<svg width="197" height="165" viewBox="0 0 197 165" fill="none" xmlns="http://www.w3.org/2000/svg">
<path d="M7.18486 142.493L0 152.221L12.0906 161.254C12.883 160.045 8.3522 153.069 8.3522 153.069L13.2162 147.009L7.18486 142.493Z" fill="#691D1B"/>
<path d="M5.02399 149.761C4.88237 149.708 4.72618 149.71 4.58596 149.767C4.44575 149.823 4.33183 149.93 4.26669 150.067C4.20802 150.207 4.2063 150.365 4.26209 150.506C4.31792 150.648 4.42677 150.762 4.56543 150.824C4.71619 150.879 4.88206 150.875 5.03009 150.813C5.17813 150.751 5.29741 150.636 5.36445 150.491C5.40838 150.338 5.39167 150.175 5.31782 150.036C5.24394 149.896 5.11881 149.79 4.96851 149.74" fill="white"/>
<path d="M0.00683594 152.27L0.771249 151.22L12.049 160.316C12.049 160.316 12.4101 160.955 12.049 161.282L0.00683594 152.27Z" fill="#341617"/>
<path d="M8.61605 153.152C8.56761 153.208 8.25463 153.013 7.82392 152.985C7.39322 152.957 7.05264 153.096 7.01095 153.027C6.96926 152.957 7.31658 152.693 7.83772 152.735C8.35885 152.777 8.66479 153.103 8.61605 153.152Z" fill="#341617"/>
<path d="M9.49236 154.618C9.49236 154.688 9.13093 154.618 8.74867 154.695C8.3667 154.771 8.10951 155.014 8.05402 154.973C7.99823 154.931 8.21374 154.563 8.69318 154.445C9.17262 154.326 9.53405 154.563 9.49236 154.618Z" fill="#341617"/>
<path d="M9.08177 156.668C9.01923 156.668 9.1581 156.286 9.54742 156.077C9.93643 155.869 10.3116 155.945 10.3049 156.015C10.2979 156.084 9.99222 156.126 9.67249 156.3C9.35276 156.473 9.1443 156.709 9.08177 156.668Z" fill="#341617"/>
<path d="M9.56836 151.644C9.50582 151.679 9.29737 151.394 8.943 151.172C8.58862 150.949 8.24805 150.859 8.24805 150.783C8.24805 150.706 8.65821 150.685 9.06807 150.956C9.47792 151.227 9.63089 151.623 9.56836 151.644Z" fill="#341617"/>
<path d="M36.4387 101.676C36.6542 102.899 36.9945 113.301 37.217 118.784C37.4393 124.266 36.8906 126.976 36.2652 128.206C35.6398 129.436 11.9447 146.87 10.1729 151.046L4.19702 146.217C4.19702 146.217 12.9732 130.43 16.7395 127.567C20.5055 124.704 27.6974 122.064 27.6974 122.064L25.6475 92.0109L35.4728 91.4756L36.4387 101.676Z" fill="#341617"/>
<path d="M14.4463 152.137L14.342 164.249L29.4136 164.457C29.344 163.019 21.5895 160.017 21.5895 160.017L21.9785 152.262L14.4463 152.137Z" fill="#691D1B"/>
<path d="M16.9128 159.301C16.7675 159.344 16.6428 159.438 16.5621 159.566C16.4815 159.694 16.4506 159.847 16.4754 159.996C16.5116 160.145 16.6045 160.274 16.7341 160.356C16.8638 160.437 17.0201 160.466 17.17 160.434C17.3242 160.39 17.4567 160.29 17.5413 160.154C17.6262 160.018 17.6571 159.855 17.6286 159.697C17.575 159.548 17.4652 159.425 17.3224 159.355C17.1799 159.285 17.0155 159.273 16.8641 159.322" fill="white"/>
<path d="M14.342 164.277V162.978L28.8228 163.728C28.8228 163.728 29.5178 164.034 29.4065 164.506L14.342 164.277Z" fill="#341617"/>
<path d="M21.8326 159.948C21.8326 160.017 21.4642 160.045 21.096 160.281C20.7278 160.517 20.5332 160.816 20.4706 160.788C20.4081 160.761 20.5194 160.33 20.9639 160.059C21.4087 159.788 21.8535 159.878 21.8326 159.948Z" fill="#341617"/>
<path d="M23.4102 160.622C23.4102 160.691 23.1042 160.809 22.8473 161.122C22.5902 161.435 22.5206 161.754 22.4442 161.754C22.3679 161.754 22.333 161.33 22.6527 160.955C22.9724 160.58 23.4031 160.552 23.4102 160.622Z" fill="#341617"/>
<path d="M24.2786 162.526C24.209 162.526 24.1119 162.171 24.2786 161.768C24.4454 161.365 24.8206 161.212 24.8553 161.275C24.8899 161.337 24.6676 161.553 24.5147 161.879C24.362 162.206 24.355 162.519 24.2786 162.526Z" fill="#341617"/>
<path d="M21.7286 158.169C21.7286 158.232 21.3604 158.127 20.9435 158.169C20.5266 158.211 20.2002 158.322 20.1652 158.259C20.1306 158.197 20.4433 157.933 20.9297 157.912C21.4162 157.891 21.7774 158.106 21.7286 158.169Z" fill="#341617"/>
<path d="M37.5297 90.2112C37.5297 90.9058 38.6691 108.819 32.8183 121.765C32.8183 121.765 30.7895 125.816 30.4352 127.588C30.0808 129.36 22.4928 158.718 22.4928 158.718L13.7444 158.398C13.7444 158.398 12.3545 143.688 13.7444 135.176C15.134 126.664 17.7538 127.657 17.7538 122.161C17.7538 116.665 16.4476 105.262 16.4476 105.262C16.4476 105.262 14.5366 102.149 13.8904 96.1104C13.3551 91.2047 15.6622 85.9517 15.6622 85.9517L17.9485 81.9144L37.2516 80.8997L37.5297 90.2112Z" fill="#341617"/>
<path d="M37.5292 90.2112C37.5292 90.2112 37.5292 90.0028 37.5292 89.5996C37.5292 89.1965 37.5295 88.592 37.4879 87.8069C37.4879 86.2297 37.3974 83.9018 37.3211 80.9001V80.8513H37.2723L17.9622 81.8727H17.9134L15.6272 85.9171C15.0303 87.3471 14.565 88.8287 14.2376 90.3433C13.8743 91.938 13.7109 93.5719 13.7511 95.2074C13.8719 96.917 14.1346 98.6134 14.5365 100.28C14.9325 102.026 15.5563 103.713 16.3917 105.297C16.7182 108.278 17.0241 111.37 17.288 114.545C17.4131 116.136 17.5311 117.749 17.6078 119.409C17.6495 120.229 17.6771 121.049 17.6841 121.876C17.6841 122.293 17.6841 122.703 17.6841 123.12C17.6578 123.533 17.6066 123.943 17.5311 124.35C17.3794 125.171 17.1004 125.964 16.7044 126.698C16.3151 127.442 15.8844 128.185 15.5162 128.964C14.7927 130.545 14.2652 132.209 13.9457 133.918C13.3234 137.42 13.0304 140.972 13.0702 144.529C13.0702 149.282 13.2925 153.944 13.6885 158.461V158.551H13.779L22.5343 158.864H22.6177V158.78C25.1538 148.948 27.5164 139.755 29.6009 131.493C29.8581 130.458 30.1083 129.409 30.3584 128.436C30.4905 127.929 30.5736 127.421 30.7266 126.942C30.8796 126.462 31.0601 125.99 31.2477 125.552C31.6159 124.628 32.0261 123.731 32.4362 122.849L32.7489 122.203C32.8599 121.987 32.957 121.765 33.0475 121.508L33.5824 120.195C34.8276 116.97 35.7583 113.633 36.3619 110.23C37.2163 105.385 37.6555 100.475 37.6752 95.5547C37.6752 92.0802 37.5642 90.2391 37.5642 90.2391C37.5642 90.2391 37.5642 90.3501 37.5642 90.5794C37.5642 90.8087 37.5642 91.1563 37.5642 91.6008C37.5642 92.5042 37.5988 93.8316 37.5642 95.5547C37.509 100.47 37.0443 105.372 36.1743 110.209C35.575 113.602 34.644 116.928 33.3948 120.139C33.2142 120.57 33.0404 121 32.8599 121.445C32.7694 121.668 32.6723 121.876 32.561 122.091L32.2486 122.745C31.8317 123.627 31.4215 124.524 31.0463 125.455C30.8587 125.92 30.6782 126.4 30.5252 126.886C30.3722 127.372 30.275 127.887 30.15 128.387L29.3854 131.438L22.3746 158.725L22.4786 158.648L13.7232 158.322L13.8277 158.419C13.4384 153.916 13.202 149.254 13.2161 144.522C13.1735 140.979 13.4641 137.441 14.0846 133.953C14.4007 132.26 14.9233 130.612 15.6413 129.047C16.0024 128.276 16.4334 127.539 16.8224 126.782C17.2277 126.032 17.5137 125.223 17.6703 124.384C17.7451 123.968 17.796 123.549 17.823 123.127C17.823 122.703 17.8647 122.286 17.823 121.869C17.823 121.042 17.7813 120.215 17.7466 119.395C17.6633 117.756 17.5452 116.143 17.4199 114.531C17.1559 111.349 16.8432 108.278 16.5097 105.276C15.69 103.704 15.0735 102.035 14.6753 100.307C14.2741 98.6554 14.0113 96.9725 13.8899 95.2766C13.8424 93.6418 14.0015 92.0076 14.3626 90.4126C14.6821 88.909 15.1355 87.4369 15.7176 86.0142L17.9968 81.9702L17.9343 82.0119L37.2374 80.9696L37.189 80.9209C37.2791 83.9297 37.3487 86.2506 37.3974 87.8278C37.425 88.6153 37.4462 89.2128 37.46 89.6205C37.5154 90.0306 37.5292 90.2112 37.5292 90.2112Z" fill="#691D1B"/>
<path d="M31.2481 53.5711C31.2481 53.5711 26.0367 52.6469 26.537 59.3383C26.8427 63.3409 28.017 70.1852 28.6703 74.5698C28.8926 76.0777 29.3653 78.7876 31.3873 80.3789L45.7359 90.3084L50.2597 84.8953L37.4533 72.6937L35.438 60.6239L31.2481 53.5711Z" fill="#691D1B"/>
<path d="M31.8593 29.4733C32.6824 30.1357 33.3335 30.987 33.7581 31.9545C34.1826 32.9222 34.3678 33.9777 34.2982 35.0319C34.2148 36.0537 33.9368 37.2139 34.5971 37.9923C35.2571 38.7703 36.5495 38.7427 37.1749 39.5348C37.9186 40.4729 37.2999 41.8625 37.5642 43.009C37.7052 43.5522 38.0351 44.0276 38.4949 44.3498C38.9544 44.6717 39.5139 44.8198 40.0727 44.767C38.7628 45.8357 37.1825 46.5211 35.5072 46.7473C35.0765 46.2054 34.6526 45.6566 34.2286 45.1076C34.4444 45.4184 34.5502 45.7924 34.5287 46.1701C34.5073 46.5481 34.3601 46.9077 34.1106 47.1921C33.6027 47.7541 32.9365 48.1486 32.1999 48.3248C30.4789 48.8564 28.6586 48.983 26.8806 48.6949C25.1026 48.407 23.4154 47.7117 21.9507 46.664" fill="#341617"/>
<path d="M12.6674 38.4926C12.9961 37.7385 13.2818 36.9656 13.5221 36.1787C13.8973 34.4486 13.0494 32.5029 13.8903 30.9465C14.4877 29.8347 15.7596 29.2927 16.9616 28.9242C18.1639 28.5561 19.463 28.2296 20.3594 27.3541C21.0197 26.7079 21.3879 25.8183 22.0479 25.1653C23.0604 24.306 24.3473 23.8376 25.6753 23.845C27.0284 23.7156 28.3922 23.9357 29.6359 24.4841C30.2515 24.7674 30.7919 25.1907 31.2143 25.7205C31.6368 26.2502 31.9292 26.8716 32.0681 27.5346C32.0972 28.1928 32.176 28.8479 32.3041 29.4941C32.6189 30.1458 32.9862 30.7709 33.4022 31.3634C33.7403 32.0562 33.8387 32.8419 33.6814 33.5967C33.5242 34.3514 33.1205 35.0325 32.5334 35.5325L23.271 47.491C21.3253 48.2277 16.6143 47.3384 15.1064 45.8997C13.5984 44.4614 12.0488 40.4729 12.6674 38.4926Z" fill="#341617"/>
<path d="M32.2903 33.997C31.9084 31.28 29.8447 28.0698 27.1415 28.5631L18.8034 31.3425C17.9833 31.4955 18.5741 32.8296 18.6504 33.6634L20.4639 52.4246C20.4639 52.4246 19.3383 53.2308 18.9352 53.0779C18.9131 53.069 18.8886 53.0677 18.8656 53.0739C18.8426 53.0803 18.8224 53.0935 18.8074 53.1122C18.7926 53.1309 18.7844 53.1539 18.7834 53.1778C18.7828 53.2014 18.7896 53.225 18.8034 53.2446C19.8039 54.6967 24.5221 61.0478 29.3861 59.1092C30.4768 58.6785 29.2748 55.2528 29.3861 53.9813L29.2402 50.7432C29.1359 49.0823 29.0802 48.4082 29.0872 48.4223C29.0943 48.4361 32.5616 47.5744 32.9019 42.9675C33.1104 40.7162 32.7143 37.0125 32.2903 33.997Z" fill="#E0C07E"/>
<path d="M31.7137 38.1798C31.7238 38.331 31.6751 38.4803 31.5782 38.5964C31.481 38.7129 31.3431 38.7877 31.1926 38.8052C31.119 38.8181 31.0433 38.8156 30.9706 38.7978C30.898 38.7804 30.8293 38.7482 30.7695 38.7034C30.7095 38.6584 30.6595 38.602 30.6224 38.537C30.5853 38.472 30.5617 38.3999 30.5534 38.3258C30.5396 38.174 30.5859 38.0232 30.6819 37.9049C30.7778 37.7868 30.9164 37.7108 31.0675 37.6933C31.1423 37.6817 31.2183 37.6851 31.2913 37.7032C31.3645 37.7216 31.4335 37.7543 31.4939 37.7997C31.554 37.8451 31.6046 37.9021 31.6423 37.9674C31.6803 38.0327 31.7045 38.1047 31.7137 38.1798Z" fill="#341617"/>
<path d="M26.0364 38.5342C26.0502 38.6859 26.0042 38.8368 25.908 38.9551C25.812 39.0731 25.6734 39.1491 25.5223 39.1666C25.4487 39.1783 25.3733 39.1752 25.301 39.1571C25.2286 39.1393 25.1606 39.1071 25.1011 39.0624C25.0413 39.0176 24.9914 38.9612 24.954 38.8968C24.9166 38.8325 24.8923 38.761 24.8832 38.6872C24.8675 38.5351 24.9129 38.3831 25.0095 38.2644C25.1057 38.1461 25.2452 38.0707 25.3972 38.0548C25.4708 38.0431 25.5459 38.0462 25.6186 38.0639C25.6909 38.082 25.7587 38.1142 25.8184 38.159C25.8782 38.2037 25.9282 38.2601 25.9656 38.3245C26.0033 38.3889 26.0272 38.4603 26.0364 38.5342Z" fill="#341617"/>
<path d="M31.9222 36.255C31.8526 36.3592 31.3107 36.0187 30.6366 36.1161C29.9628 36.2133 29.518 36.679 29.4275 36.5956C29.3374 36.5122 29.4275 36.373 29.6292 36.1578C29.8736 35.8826 30.2092 35.7051 30.574 35.6572C30.9379 35.6042 31.3085 35.6858 31.6163 35.8868C31.8526 36.0119 31.9501 36.2063 31.9222 36.255Z" fill="#341617"/>
<path d="M25.8144 36.7553C25.7378 36.8525 25.2028 36.4702 24.4732 36.4981C23.7433 36.526 23.2225 36.9429 23.1391 36.8525C23.0557 36.762 23.1738 36.637 23.3963 36.4426C23.6983 36.1989 24.0713 36.0597 24.4594 36.0465C24.8442 36.0282 25.2237 36.1407 25.5363 36.366C25.7724 36.5468 25.8561 36.7065 25.8144 36.7553Z" fill="#341617"/>
<path d="M28.1071 41.0639C28.4284 40.9278 28.7677 40.8386 29.1147 40.7996C29.2744 40.7996 29.4203 40.7233 29.4412 40.612C29.4394 40.4459 29.3885 40.284 29.2953 40.1467C29.1147 39.7715 28.9271 39.3751 28.7254 38.9652C28.2061 37.9647 27.7693 36.9236 27.4192 35.8522C28.0176 36.8071 28.5381 37.8086 28.9755 38.8472L29.5246 40.0421C29.6408 40.2285 29.6877 40.4502 29.6567 40.6678C29.638 40.7251 29.6061 40.7776 29.5641 40.8211C29.5218 40.8643 29.4703 40.8974 29.4133 40.918C29.3256 40.9489 29.2349 40.9698 29.1423 40.9805C28.802 41.0507 28.4544 41.0786 28.1071 41.0639Z" fill="#341617"/>
<path d="M29.1147 48.4569C26.975 48.6537 24.8227 48.2543 22.8958 47.3036C22.8958 47.3036 24.6676 50.375 29.1911 49.6037L29.1147 48.4569Z" fill="#D4AD72"/>
<path d="M26.1895 42.8908C26.2652 42.7385 26.3774 42.6073 26.5163 42.5089C26.6849 42.428 26.8764 42.4083 27.0582 42.4531C27.3219 42.4985 27.5647 42.6248 27.7529 42.8145C27.8482 42.9129 27.915 43.0352 27.9469 43.1686C27.9788 43.3016 27.9742 43.4411 27.9337 43.572C27.8641 43.8289 27.4751 43.9748 27.2041 44.0236C26.931 44.0579 26.6542 43.999 26.4188 43.8568C26.3158 43.8099 26.2259 43.7385 26.157 43.6486C26.088 43.5591 26.042 43.454 26.0227 43.3427C26.0365 43.1796 26.0941 43.0236 26.1895 42.8908Z" fill="#D4AD72"/>
<path d="M26.3216 42.0086C26.4188 42.0086 26.4743 42.7036 27.0997 43.1134C27.725 43.5236 28.4341 43.4261 28.4479 43.5165C28.4617 43.607 28.2949 43.6625 27.9893 43.6971C27.5905 43.7348 27.1913 43.629 26.8636 43.3985C26.5488 43.1781 26.3321 42.8443 26.2591 42.4672C26.2104 42.1824 26.2729 42.0086 26.3216 42.0086Z" fill="#341617"/>
<path d="M25.7588 34.2955C25.71 34.4764 25.0638 34.4415 24.3689 34.5874C23.6739 34.7333 23.0627 34.9767 22.9793 34.8308C22.8959 34.6849 23.021 34.5944 23.2503 34.4139C23.551 34.1812 23.9041 34.0261 24.2788 33.962C24.6518 33.8851 25.0378 33.8995 25.4044 34.0037C25.6337 34.0941 25.7796 34.2192 25.7588 34.2955Z" fill="#341617"/>
<path d="M31.5049 33.9271C31.3869 34.08 30.8866 33.9687 30.2891 34.0104C29.6914 34.0521 29.1981 34.191 29.0731 34.0451C28.948 33.8992 29.0731 33.8299 29.2953 33.6769C29.5859 33.4933 29.9191 33.3875 30.2625 33.3707C30.6058 33.3535 30.9476 33.4255 31.2548 33.5797C31.5049 33.7394 31.5816 33.8783 31.5049 33.9271Z" fill="#341617"/>
<path d="M16.9758 32.0163C17.4614 31.4112 18.1251 30.9734 18.8728 30.7656C21.9775 29.5624 25.2156 28.7365 28.5174 28.3058C28.675 28.6682 28.7023 29.0738 28.5947 29.4536C28.4871 29.8337 28.251 30.1648 27.927 30.3904C27.2615 30.8235 26.5322 31.1494 25.7658 31.3563C25.3845 31.4624 25.028 31.6436 24.7177 31.8894C24.4075 32.1353 24.1494 32.4406 23.959 32.7876C23.6393 33.5659 23.9103 34.4902 23.6255 35.2823C23.1323 36.6719 21.2353 37.0821 20.7488 38.4441C20.3807 39.4793 20.9852 40.577 21.1311 41.6681C21.2084 42.2195 21.1667 42.7811 21.0094 43.3155C20.8522 43.8495 20.5824 44.3439 20.2188 44.7657C19.8549 45.1872 19.4055 45.5263 18.9 45.7605C18.3949 45.9944 17.8452 46.1176 17.2885 46.1222C17.0614 42.2125 16.8299 38.3003 16.5936 34.386C16.4719 33.5754 16.6055 32.7475 16.9758 32.0163Z" fill="#341617"/>
<path d="M9.09587 41.8974C9.71419 41.3486 10.4858 40.8692 10.7359 40.0771C11.0903 38.9235 10.166 37.5686 10.7359 36.5122C11.3055 35.4561 12.883 35.6091 13.39 34.6294C13.7861 33.8648 13.3278 33.184 13.4805 32.5445C13.6163 32.1849 13.8618 31.8772 14.1825 31.665C14.5028 31.4529 14.882 31.3474 15.2661 31.3634L20.6099 39.1041C21.1031 41.703 21.6034 43.0788 21.0476 44.6005C20.6819 45.4089 20.4045 46.2547 20.2206 47.1228C20.1344 47.56 20.1657 48.0118 20.311 48.433C20.456 48.8542 20.7104 49.2291 21.0476 49.52C17.8512 49.7702 14.8563 48.1304 12.0909 46.4837L9.16546 44.7743C8.8445 44.6112 8.56769 44.3728 8.35923 44.0794C7.96317 43.3706 8.47756 42.4534 9.09587 41.8974Z" fill="#341617"/>
<path d="M12.0488 45.6777C12.1595 45.7121 12.2735 45.7329 12.3894 45.7403C12.722 45.7737 13.058 45.7504 13.3829 45.6707C13.9032 45.5447 14.382 45.2863 14.7725 44.9203C15.286 44.4261 15.6085 43.7667 15.683 43.058C15.7302 42.645 15.6949 42.2269 15.5788 41.8281C15.4328 41.4109 15.2342 41.0139 14.988 40.6466C14.7241 40.2671 14.5181 39.8502 14.3768 39.41C14.3032 39.1869 14.2802 38.9502 14.309 38.7172C14.3378 38.4842 14.4178 38.2605 14.5435 38.0618C14.8354 37.6728 15.377 37.5756 15.8776 37.3672C16.1575 37.2786 16.3991 37.0977 16.5631 36.854C16.7271 36.6106 16.804 36.3188 16.7807 36.026C16.7118 35.4595 16.5885 34.901 16.4126 34.3584C16.35 34.0908 16.35 33.8127 16.4126 33.5454C16.4785 33.2796 16.6422 33.0488 16.8712 32.8992C17.3595 32.612 17.9168 32.4633 18.4833 32.4682C19.0642 32.4464 19.6304 32.2794 20.1301 31.982C20.6105 31.6856 21.0001 31.2622 21.2558 30.7589C21.4755 30.2748 21.6166 29.7589 21.6727 29.2301C21.7269 28.7412 21.8318 28.2593 21.9853 27.7918C22.153 27.3657 22.4087 26.9797 22.7358 26.6591C23.3394 26.0877 24.1177 25.7351 24.9454 25.6585C25.6317 25.6088 26.3178 25.7532 26.9257 26.0754C27.3892 26.3111 27.8058 26.629 28.1556 27.0134C28.4508 27.343 28.7052 27.7072 28.9131 28.0974C28.9131 28.0974 28.9131 28.0974 28.9131 28.014C28.9131 27.9306 28.8576 27.8822 28.8021 27.7847C28.6479 27.4901 28.4588 27.2148 28.2393 26.965C27.8907 26.5631 27.4714 26.2287 27.0023 25.9782C26.3791 25.641 25.6734 25.4868 24.9662 25.5334C24.1045 25.5993 23.2906 25.9574 22.6594 26.5481C22.3112 26.8825 22.039 27.2878 21.8603 27.7363C21.7018 28.2127 21.592 28.7038 21.5335 29.2025C21.4722 29.7129 21.3367 30.2114 21.1307 30.6825C20.8811 31.1522 20.5121 31.5476 20.0605 31.829C19.5857 32.1086 19.048 32.2637 18.4971 32.2806C17.8957 32.2791 17.3052 32.4397 16.7878 32.7462C16.5278 32.9253 16.3402 33.1913 16.2596 33.4967C16.19 33.7937 16.19 34.103 16.2596 34.4001C16.4325 34.9289 16.5536 35.4736 16.621 36.026C16.6382 36.285 16.5726 36.5432 16.4334 36.7627C16.2814 36.9641 16.0735 37.1161 15.8356 37.2004C15.5996 37.3046 15.3424 37.3739 15.0923 37.4781C14.8348 37.5719 14.6085 37.7356 14.439 37.9508C14.2965 38.1703 14.2051 38.4192 14.1714 38.6792C14.1377 38.9389 14.1625 39.2028 14.2446 39.4517C14.3939 39.9026 14.6094 40.3288 14.8838 40.7162C15.1284 41.0709 15.3246 41.4565 15.4675 41.8627C15.5858 42.2422 15.6238 42.6423 15.5788 43.0371C15.5153 43.721 15.2127 44.3608 14.7241 44.8439C14.3513 45.2007 13.8949 45.4589 13.3967 45.5944C12.9565 45.7062 12.4995 45.7345 12.0488 45.6777Z" fill="#691D1B"/>
<path d="M7.7826 40.181C7.7308 40.2589 7.69524 40.3462 7.67838 40.4382C7.62473 40.7095 7.67163 40.9912 7.81019 41.2303C7.91074 41.4044 8.05145 41.5522 8.22036 41.6613C8.4285 41.7901 8.67068 41.8529 8.9153 41.8419C9.20591 41.8348 9.48947 41.7481 9.73441 41.5914C9.97934 41.4345 10.1768 41.2135 10.3049 40.9523C10.4548 40.6503 10.5311 40.3168 10.5271 39.9796C10.5176 39.6169 10.4422 39.2592 10.3049 38.9235C9.94838 38.247 9.71326 37.5131 9.60995 36.7553C9.59432 36.557 9.61915 36.3577 9.68229 36.1689C9.74544 35.9803 9.8463 35.8065 9.97842 35.6575C10.3021 35.3884 10.7194 35.2584 11.1387 35.2961C11.6068 35.3262 12.0768 35.2768 12.5283 35.1502C12.7647 35.0552 12.9642 34.8872 13.0982 34.6708C13.2233 34.4577 13.3036 34.2211 13.3345 33.9761C13.3499 33.5099 13.31 33.0433 13.2162 32.5862C13.1472 32.1482 13.1733 31.7 13.2928 31.273C13.5215 30.4563 14.0534 29.758 14.7799 29.3205C15.4647 28.9757 16.2228 28.8019 16.9895 28.8132C17.6759 28.8154 18.358 28.7096 19.0115 28.5005C19.9505 28.1412 20.7343 27.4653 21.2282 26.5895C21.4158 26.2774 21.5452 25.9335 21.6105 25.5751C21.494 25.9154 21.3453 26.2434 21.1657 26.5549C20.9489 26.9126 20.6819 27.2378 20.3735 27.5208C19.9698 27.8926 19.4977 28.1829 18.9836 28.3755C18.3399 28.5726 17.6698 28.6688 16.9966 28.6602C16.2017 28.6415 15.4142 28.8181 14.7033 29.1743C13.936 29.6305 13.3738 30.3647 13.1331 31.2242C13.0044 31.6761 12.9759 32.1503 13.0494 32.6141C13.1429 33.0709 13.1806 33.5378 13.1607 34.0037C13.1531 34.2241 13.0838 34.4378 12.9612 34.6205C12.8382 34.8035 12.6669 34.9485 12.4661 35.0392C12.0394 35.1606 11.5949 35.2051 11.1525 35.1711C10.685 35.1376 10.223 35.29 9.86714 35.595C9.71939 35.7605 9.60658 35.9543 9.53484 36.1643C9.46311 36.3743 9.4346 36.5965 9.45024 36.8178C9.46985 37.2314 9.56887 37.6372 9.74207 38.0131C9.90178 38.3745 10.0685 38.708 10.2007 39.0416C10.3352 39.3591 10.4128 39.6979 10.43 40.0421C10.4333 40.3591 10.3644 40.673 10.2283 40.9593C10.1109 41.2033 9.92907 41.4106 9.70253 41.5586C9.47598 41.7067 9.21358 41.7904 8.9429 41.8002C8.73873 41.8112 8.53518 41.7665 8.35401 41.6711C8.17284 41.5758 8.0211 41.4329 7.91473 41.2582C7.77678 41.0338 7.72037 40.7687 7.75471 40.5078C7.75409 40.3983 7.76329 40.2889 7.7826 40.181Z" fill="#341617"/>
<path d="M41.4417 42.0776C41.5297 42.3486 41.5297 42.6408 41.4417 42.9115C41.3887 43.0739 41.2982 43.2214 41.1774 43.3422C41.0567 43.4629 40.9092 43.5537 40.7467 43.6064C40.5417 43.6683 40.3234 43.6711 40.1171 43.6144C39.9105 43.558 39.7244 43.4442 39.5794 43.2867C39.405 43.0969 39.306 42.8498 39.3014 42.592C39.2925 42.3177 39.3348 42.0445 39.4264 41.7858C39.7014 41.2116 39.8574 40.5875 39.885 39.9514C39.862 39.5931 39.7643 39.2433 39.5978 38.9251C39.4316 38.6066 39.2002 38.3267 38.9191 38.1032C38.6208 37.869 38.2815 37.6921 37.9185 37.5821C37.5497 37.4779 37.1693 37.4221 36.7861 37.4153C36.4149 37.4123 36.0446 37.3727 35.681 37.297C35.3401 37.2299 35.0342 37.0426 34.8196 36.7691C34.6317 36.488 34.5238 36.1615 34.5069 35.824C34.4922 35.4929 34.5201 35.1613 34.5903 34.8372C34.7663 34.229 34.8647 33.6009 34.8821 32.9682C34.8515 32.4051 34.6504 31.8646 34.3052 31.4186C34.0177 31.063 33.6667 30.7638 33.27 30.536C32.976 30.3684 32.697 30.1752 32.4362 29.9594C32.2139 29.7684 32.0361 29.5315 31.915 29.2645C31.915 29.2645 31.915 29.2645 31.915 29.32C31.9285 29.3736 31.9494 29.4251 31.9776 29.4729C32.0735 29.6694 32.2081 29.8441 32.3736 29.987C32.6321 30.2102 32.9061 30.4146 33.1934 30.5986C33.5772 30.822 33.9147 31.1169 34.1872 31.4673C34.5063 31.8968 34.6878 32.4127 34.7083 32.9474C34.6844 33.5663 34.5839 34.1803 34.4094 34.7747C34.33 35.1113 34.2997 35.4577 34.3193 35.8032C34.33 36.1762 34.4484 36.538 34.6596 36.8454C34.8987 37.1532 35.238 37.3672 35.6185 37.45C35.9934 37.5294 36.375 37.5714 36.7582 37.575C37.1291 37.579 37.4979 37.6305 37.856 37.728C38.1938 37.8307 38.5098 37.9956 38.7873 38.2142C39.0503 38.4214 39.2676 38.6811 39.4255 38.9766C39.5834 39.2718 39.6784 39.5967 39.7045 39.9306C39.6769 40.5467 39.5279 41.1509 39.2667 41.7095C39.1695 41.9857 39.1294 42.2787 39.1484 42.5712C39.1637 42.8511 39.2768 43.1165 39.4681 43.3216C39.6315 43.4936 39.8403 43.6156 40.0705 43.6735C40.3004 43.7315 40.5423 43.7226 40.7676 43.6481C41.0355 43.5423 41.2565 43.344 41.3905 43.0886C41.5245 42.8336 41.5622 42.539 41.4972 42.2585C41.4855 42.1963 41.4671 42.1356 41.4417 42.0776Z" fill="#341617"/>
<path d="M37.6198 73.3816V68.9553C38.1535 66.3637 37.8393 63.6692 36.7235 61.2701C35.8808 59.8106 34.9525 58.4023 33.944 57.0523L29.5386 51.3474C27.1205 53.1054 23.3334 51.8339 20.0745 50.6524C20.0745 50.6524 16.8643 52.4313 15.3704 54.1269C13.8763 55.8224 19.1714 77.8842 19.1714 77.8842C16.7321 82.7482 13.6124 87.0635 13.1191 91.5036L38.537 92.4833L37.4531 80.8304L37.6198 73.3816Z" fill="#691D1B"/>
<path d="M37.2655 80.9276C37.2478 80.7639 37.2478 80.5984 37.2655 80.4344C37.2655 80.0683 37.2655 79.6168 37.2655 79.0794C37.2655 77.8912 37.3072 76.2999 37.3348 74.6114C37.3627 72.923 37.4114 71.2829 37.4669 70.1435C37.4669 69.5666 37.5224 69.1079 37.5503 68.7536C37.554 68.5874 37.5751 68.4222 37.6129 68.2603C37.6306 68.4243 37.6306 68.5899 37.6129 68.7536C37.6129 69.1221 37.6129 69.5736 37.6129 70.1435C37.6129 71.3317 37.5641 72.923 37.5365 74.6114C37.5086 76.2999 37.4599 77.9397 37.4044 79.0794C37.4044 79.656 37.3489 80.1146 37.321 80.4344C37.3198 80.6002 37.3011 80.7657 37.2655 80.9276Z" fill="#341617"/>
<path d="M48.6685 84.9232C49.9428 85.0001 51.1874 85.3407 52.3235 85.924C53.7131 86.7996 55.9644 88.1545 56.8886 89.843C57.3193 90.621 56.1035 90.781 55.499 90.3292C54.901 89.7866 54.2379 89.3197 53.5255 88.9396L53.0739 88.8353C53.4887 89.7853 53.9528 90.713 54.4635 91.6148C54.9362 92.3098 55.3461 93.5535 53.9356 93.6089C53.9356 93.6089 52.9764 94.8459 52.0175 93.9287C52.0175 93.9287 51.2671 95.0473 50.0581 93.4909C50.0581 93.4909 49.3631 94.3805 49.0645 94.0467C48.7657 93.7132 47.8068 93.1644 47.522 92.0455C47.1029 90.7491 46.6158 89.4757 46.0625 88.2308L48.6685 84.9232Z" fill="#E0C07E"/>
<path d="M89.5054 53.3001C89.7764 53.3001 100.811 52.1395 100.811 52.1395C100.811 52.1395 101.742 47.6577 101.693 46.4904C101.644 45.323 100.859 37.6099 100.859 37.6099L104.987 35.6572C104.987 35.6572 110.511 54.2798 109.302 55.8083C108.283 57.0179 107.04 58.0185 105.64 58.7545C105.445 58.7545 94.9531 63.4101 87.6501 60.992C80.3472 58.574 89.5054 53.3001 89.5054 53.3001Z" fill="#E0C07E"/>
<path d="M79.8398 63.3549C81.4661 64.96 84.2661 66.3009 88.9287 65.1406C98.1636 62.8338 105.085 60.8811 107.836 59.3873C110.588 57.8931 109.518 51.3127 109.747 51.0488C110.442 50.1454 109.678 48.2138 108.684 47.9079C105.863 47.0532 100.943 47.3938 100.7 47.651C99.2475 49.1727 100.575 51.0209 100.575 51.0209L88.3938 52.6192C86.8985 52.5478 85.3997 52.6435 83.9259 52.904" fill="#691D1B"/>
<path d="M83.9256 52.869L84.2175 52.8065C84.4121 52.8065 84.6969 52.7231 85.0792 52.6744C86.1803 52.5318 87.2913 52.4855 88.4003 52.5355L100.568 50.9025L100.505 51.0346C100.105 50.4491 99.9098 49.7481 99.9493 49.0402C99.9769 48.6718 100.096 48.3159 100.297 48.005C100.394 47.8465 100.505 47.6979 100.63 47.5602C100.678 47.5231 100.732 47.4946 100.79 47.4768H100.929C101.02 47.4532 101.113 47.437 101.207 47.4281C102.713 47.2524 104.232 47.2196 105.744 47.3309C106.539 47.3794 107.329 47.4885 108.107 47.6574C108.302 47.6991 108.496 47.7549 108.698 47.8104C108.905 47.8738 109.094 47.9829 109.253 48.1301C109.564 48.4259 109.802 48.7898 109.948 49.1932C110.103 49.5957 110.157 50.0295 110.108 50.4577C110.072 50.6787 109.989 50.8897 109.865 51.0763C109.823 51.0763 109.83 51.2223 109.823 51.3194V51.6321C109.823 52.4659 109.893 53.3138 109.872 54.1753C109.878 55.3923 109.681 56.6019 109.288 57.7539C109.088 58.3293 108.741 58.8422 108.281 59.241C108.044 59.4258 107.785 59.58 107.509 59.6996C107.252 59.8385 106.981 59.9427 106.717 60.0678C105.654 60.5193 104.584 60.8948 103.535 61.2422C102.485 61.5895 101.45 61.9371 100.428 62.201C96.3706 63.3822 92.674 64.2856 89.575 65.0848C88.8381 65.2809 88.0913 65.4364 87.3375 65.5504C86.6631 65.6442 85.982 65.6813 85.3014 65.6614C84.2061 65.6338 83.1261 65.3981 82.1191 64.9664C81.4889 64.6862 80.8997 64.3218 80.3678 63.8825C80.1824 63.731 80.0082 63.5661 79.8467 63.3892C79.8467 63.3892 80.0275 63.556 80.3957 63.8478C80.931 64.273 81.5195 64.6255 82.1467 64.8971C83.1473 65.3125 84.2181 65.5317 85.3014 65.5434C85.9752 65.5608 86.6493 65.5213 87.3167 65.4253C88.0659 65.3064 88.8084 65.1464 89.5401 64.9459C92.6393 64.1535 96.329 63.2154 100.38 62.0272C101.395 61.7216 102.423 61.4089 103.472 61.0616C104.522 60.714 105.591 60.3667 106.641 59.8872C106.898 59.7621 107.169 59.6579 107.419 59.5258C107.681 59.4133 107.926 59.2661 108.149 59.088C108.581 58.7146 108.909 58.2358 109.1 57.6984C109.486 56.5667 109.676 55.3779 109.663 54.1823C109.663 53.3347 109.663 52.4868 109.622 51.6459V51.2986C109.618 51.2431 109.618 51.1873 109.622 51.1318C109.615 51.0996 109.615 51.0665 109.622 51.0346V50.9651C109.733 50.8063 109.805 50.6227 109.83 50.4301C109.879 50.0371 109.829 49.6383 109.684 49.2695C109.55 48.8992 109.334 48.5642 109.052 48.2898C108.914 48.1617 108.751 48.0645 108.572 48.005L107.996 47.8521C107.227 47.6884 106.446 47.5814 105.661 47.5323C104.163 47.4168 102.658 47.4446 101.165 47.6157C101.076 47.6246 100.988 47.6408 100.901 47.6644H100.776H100.693C100.579 47.7956 100.474 47.9351 100.38 48.0814C100.195 48.3674 100.083 48.6941 100.053 49.0335C100.02 49.7018 100.205 50.363 100.581 50.9163L100.658 51.0346H100.519L88.3381 52.5981C87.2348 52.5407 86.1288 52.5708 85.0304 52.6885C84.6482 52.7302 84.3355 52.7716 84.162 52.7995L83.9256 52.869Z" fill="#341617"/>
<path d="M57.8084 61.889L53.54 54.2207L134.079 9.39355C134.583 9.11306 135.137 8.93465 135.71 8.86843C136.283 8.80191 136.863 8.84912 137.418 9.00699C137.973 9.16517 138.491 9.43064 138.942 9.789C139.394 10.1471 139.771 10.5909 140.052 11.0949C140.332 11.5989 140.511 12.1531 140.577 12.7257C140.643 13.2987 140.596 13.8793 140.438 14.4338C140.28 14.9884 140.014 15.5065 139.656 15.9583C139.298 16.4105 138.854 16.7875 138.35 17.068L57.8118 61.8951L57.8084 61.889Z" fill="#C19161"/>
<path d="M125.65 21.2565L116.141 4.17121C115.94 3.8104 115.891 3.38491 116.004 2.98792C116.117 2.59094 116.383 2.25496 116.744 2.05417L119.883 0.307114C120.243 0.106355 120.669 0.0570614 121.066 0.170148C121.463 0.283234 121.799 0.549318 122 0.910127L131.509 17.9954L125.656 21.2531L125.65 21.2565Z" fill="#C19161"/>
<path d="M106.737 13.9875L112.82 24.9163C113.425 26.0027 114.796 26.3932 115.882 25.7887L117.801 24.7207C118.887 24.1162 119.278 22.745 118.673 21.6586L112.59 10.7301C111.985 9.64335 110.615 9.25311 109.528 9.85763L107.609 10.9256C106.523 11.5302 106.132 12.9011 106.737 13.9875Z" fill="#C19161"/>
<path d="M112.552 12.2102L117.019 20.2369L126.108 15.1779L121.64 7.15147L112.552 12.2102Z" fill="#C19161"/>
<path d="M133.206 9.87112C133.206 9.91281 117.356 18.7929 97.7675 29.7024C78.1793 40.6119 62.2669 49.4158 62.2393 49.3741C62.2114 49.3324 78.0821 40.459 97.6771 29.5495C117.272 18.6403 133.178 9.82943 133.206 9.87112Z" fill="#341617"/>
<path d="M25.0496 76.731C31.0046 87.4387 43.5814 91.8095 53.136 86.459C62.6902 81.1085 65.5948 68.1494 59.633 57.4416C53.6709 46.7338 41.0941 42.363 31.5466 47.7135C21.9991 53.0638 19.0878 66.0232 25.0496 76.731ZM54.4354 60.3321C58.6045 67.8367 56.5755 76.9394 49.8841 80.664C43.1924 84.3883 34.3819 81.3586 30.1987 73.8193C26.0155 66.2801 28.0654 57.2123 34.7568 53.4877C41.4485 49.7634 50.2664 52.8553 54.4354 60.3321Z" fill="#C19161"/>
<path d="M67.2819 46.7074L71.4926 54.2725C72.1345 55.426 73.59 55.8408 74.7436 55.1986C75.8971 54.5567 76.3119 53.1012 75.6697 51.9476L71.4592 44.3826C70.817 43.229 69.3615 42.8143 68.2079 43.4562C67.0544 44.0984 66.6399 45.5539 67.2819 46.7074Z" fill="#C19161"/>
<path d="M75.7583 41.997L79.9691 49.5621C80.611 50.7156 82.0665 51.1304 83.22 50.4882C84.3736 49.8463 84.7884 48.3908 84.1461 47.2372L79.9354 39.6719C79.2934 38.5183 77.838 38.1039 76.6844 38.7458C75.5309 39.388 75.1161 40.8435 75.7583 41.997Z" fill="#C19161"/>
<path d="M71.2093 44.0794C71.258 44.0794 72.2795 45.8512 73.5026 48.0958C74.7254 50.34 75.6776 52.1677 75.6359 52.1953C75.5942 52.2232 74.5657 50.4167 73.3496 48.1792C72.1336 45.9417 71.1676 44.1002 71.2093 44.0794Z" fill="#341617"/>
<path d="M67.3253 46.8588C67.367 46.8588 68.3676 48.5541 69.5558 50.6944C70.744 52.8344 71.6823 54.5857 71.6406 54.6066C71.5989 54.6274 70.5981 52.9178 69.4031 50.7778C68.2079 48.6374 67.2836 46.8797 67.3253 46.8588Z" fill="#341617"/>
<path d="M79.742 39.4238C79.7837 39.4238 80.8263 41.1956 82.0629 43.4261C83.2998 45.6565 84.2796 47.4842 84.2379 47.5118C84.1962 47.5397 83.1539 45.7399 81.9103 43.5095C80.6663 41.279 79.7003 39.4863 79.742 39.4238Z" fill="#341617"/>
<path d="M75.6498 41.8974C75.6915 41.8974 76.7061 43.6555 77.9222 45.8721C79.138 48.0888 80.0901 49.9023 80.0485 49.9299C80.0068 49.9578 78.9853 48.1722 77.7693 45.9555C76.5532 43.7388 75.6081 41.9182 75.6498 41.8974Z" fill="#341617"/>
<path d="M99.1575 28.32C99.6139 28.3822 100.077 28.2703 100.455 28.0067C100.833 27.7427 101.098 27.3464 101.197 26.8963C101.296 26.446 101.221 25.9752 100.989 25.5773C100.757 25.1794 100.383 24.8832 99.9426 24.7483C100.223 24.4614 100.406 24.0936 100.466 23.6966C100.526 23.2996 100.459 22.894 100.275 22.5372C100.092 22.1804 99.8 21.8907 99.442 21.7086C99.0842 21.5268 98.6783 21.4624 98.282 21.5244C98.2706 21.124 98.1542 20.7341 97.9442 20.3932C97.7345 20.0523 97.4387 19.773 97.0864 19.5827C96.7345 19.3926 96.3381 19.2985 95.9381 19.3098C95.5381 19.3215 95.1481 19.438 94.8075 19.648C94.3646 19.2835 93.8122 19.0787 93.2386 19.0658C92.6654 19.0533 92.1044 19.2338 91.6458 19.5787C91.2608 19.506 90.8629 19.5594 90.5103 19.7304C90.1578 19.9015 89.8696 20.1811 89.6885 20.5284C89.507 20.8757 89.442 21.2718 89.503 21.6589C89.564 22.0458 89.7473 22.4029 90.0269 22.6776" fill="#341617"/>
<path d="M91.2636 21.4198H91.6667C93.6246 21.4229 95.509 22.1645 96.944 23.4964C98.3789 24.8284 99.2587 26.6527 99.4074 28.6048C99.6992 32.371 99.9773 36.5331 99.9423 38.5551C99.8798 42.7245 95.6969 43.3707 95.6969 43.3707L96.0375 48.4015L85.8855 48.0541L85.0446 29.8276C84.6973 25.4571 86.9207 21.6283 91.2636 21.4198Z" fill="#E0C07E"/>
<path d="M95.7454 43.3428C93.8018 43.3378 91.9009 42.7735 90.2698 41.7168C90.2698 41.7168 91.618 44.8853 95.7871 44.4963L95.7454 43.3428Z" fill="#D4AD72"/>
<path d="M97.1281 32.5375C97.1281 32.6933 97.0683 32.8429 96.961 32.9557C96.8534 33.0682 96.7069 33.135 96.5515 33.1421C96.4751 33.1479 96.3982 33.1384 96.3259 33.1139C96.2532 33.0896 96.1861 33.0513 96.1284 33.0007C96.0708 32.9502 96.0239 32.8889 95.9905 32.8202C95.9568 32.7512 95.9372 32.6767 95.9329 32.6001C95.9329 32.4453 95.9929 32.2963 96.1005 32.1847C96.2081 32.0734 96.3547 32.0078 96.5098 32.0026C96.5855 31.9959 96.6621 32.0048 96.7345 32.0281C96.8071 32.0517 96.8743 32.0894 96.9322 32.1393C96.9898 32.1893 97.0367 32.25 97.0705 32.3187C97.1039 32.387 97.1235 32.4615 97.1281 32.5375Z" fill="#341617"/>
<path d="M98.5177 30.6197C98.4414 30.696 97.9898 30.3625 97.3504 30.3625C96.7112 30.3625 96.2318 30.6822 96.1622 30.6059C96.0929 30.5293 96.2039 30.4251 96.4123 30.2791C96.6928 30.0882 97.0248 29.9864 97.3645 29.9873C97.6971 29.9885 98.0208 30.0955 98.2884 30.2932C98.4901 30.4529 98.5524 30.5851 98.5177 30.6197Z" fill="#341617"/>
<path d="M91.3329 32.2315C91.3329 32.3878 91.2719 32.5377 91.1628 32.6493C91.0537 32.7609 90.9053 32.8256 90.7493 32.8293C90.6732 32.8348 90.5969 32.8253 90.5249 32.8008C90.4525 32.7766 90.386 32.7379 90.329 32.6873C90.272 32.6368 90.2257 32.5755 90.1929 32.5068C90.1598 32.4378 90.1411 32.3633 90.1377 32.2873C90.1374 32.1322 90.1978 31.9832 90.3054 31.8719C90.413 31.7603 90.5595 31.695 90.7143 31.6895C90.7907 31.684 90.8676 31.6935 90.9399 31.7177C91.0126 31.7423 91.0797 31.7806 91.1371 31.8311C91.1947 31.8814 91.2416 31.943 91.2753 32.0117C91.3087 32.0804 91.3286 32.1552 91.3329 32.2315Z" fill="#341617"/>
<path d="M92.2018 30.7239C92.1251 30.8002 91.6736 30.4597 91.0341 30.4597C90.3949 30.4597 89.9155 30.7794 89.8459 30.7031C89.7763 30.6264 89.8876 30.5293 90.0961 30.3763C90.3741 30.1859 90.7043 30.0863 91.0411 30.0915C91.375 30.0909 91.7009 30.1954 91.9721 30.3904C92.1668 30.543 92.2364 30.689 92.2018 30.7239Z" fill="#341617"/>
<path d="M94.5153 35.4978C94.8544 35.3862 95.2078 35.3231 95.5647 35.3102C95.7244 35.3102 95.8841 35.2615 95.912 35.1505C95.9255 34.9807 95.8865 34.8108 95.8007 34.664L95.3213 33.4133C94.8768 32.3517 94.5144 31.2573 94.2373 30.1402C94.7716 31.1598 95.2201 32.222 95.5785 33.3158C95.7452 33.7535 95.8979 34.1775 96.0438 34.5736C96.1462 34.7728 96.1759 35.0012 96.1275 35.2198C96.1033 35.2771 96.0662 35.3283 96.0193 35.3694C95.9721 35.4101 95.9166 35.4399 95.8565 35.4561C95.7661 35.4816 95.6726 35.4957 95.5785 35.4978C95.2253 35.5417 94.8682 35.5417 94.5153 35.4978Z" fill="#341617"/>
<path d="M92.7641 28.2504C92.6807 28.4101 92.132 28.2504 91.4509 28.2087C90.77 28.167 90.2001 28.2988 90.1447 28.1253C90.0889 27.9515 90.2351 27.9027 90.4782 27.7709C90.7942 27.6118 91.1468 27.5401 91.4996 27.5625C91.8475 27.5756 92.1857 27.6811 92.4793 27.8681C92.7016 28.014 92.8058 28.1737 92.7641 28.2504Z" fill="#341617"/>
<path d="M98.5597 27.9723C98.4205 28.1182 97.8648 27.9723 97.2535 27.9723C96.6419 27.9723 96.0721 28.0695 95.9537 27.9168C95.8357 27.7639 95.9537 27.6943 96.218 27.5625C96.5451 27.3908 96.912 27.3093 97.2811 27.3261C97.6462 27.3276 98.0039 27.4285 98.3163 27.618C98.5456 27.7501 98.6152 27.9027 98.5597 27.9723Z" fill="#341617"/>
<path d="M99.025 26.6591C99.025 26.6591 97.9343 24.0396 96.6695 23.421C95.141 22.6776 94.4807 24.3523 93.0286 23.9421C91.5761 23.5323 90.1099 22.8165 88.6231 23.9421C86.9901 25.1723 87.7476 26.027 87.6434 27.896C87.2124 35.4145 85.8295 37.5407 85.4476 33.997C85.4059 33.6076 84.3357 33.302 84.176 31.6552C83.9746 29.529 83.905 26.9442 84.3845 25.4013C84.8179 24.1175 85.6757 23.0197 86.8166 22.2886C88.9012 20.7669 91.6804 20.739 93.6122 20.9404C95.5438 21.1421 99.2126 23.3793 99.025 26.6591Z" fill="#341617"/>
<path d="M85.7044 33.8719C85.6992 33.7186 85.6633 33.5678 85.5983 33.4286C85.5333 33.2894 85.441 33.165 85.3267 33.0626C85.2127 32.9599 85.0787 32.8814 84.9337 32.832C84.7884 32.7824 84.6345 32.7628 84.4815 32.7741C83.7032 32.8504 82.8348 33.2882 82.8764 34.9003C82.9598 37.7562 85.8156 37.0891 85.8156 36.9849C85.8156 36.8806 85.7602 35.0671 85.7044 33.8719Z" fill="#E0C07E"/>
<path d="M85.1767 35.9494C85.1767 35.9494 85.128 35.984 85.0446 36.0257C84.9266 36.0735 84.7945 36.0735 84.6765 36.0257C84.4876 35.9159 84.3319 35.7575 84.2255 35.5668C84.1191 35.3761 84.0658 35.1603 84.0716 34.9417C84.0627 34.7045 84.1029 34.4678 84.19 34.2471C84.2151 34.1582 84.2611 34.0766 84.3239 34.0089C84.3868 33.9411 84.4646 33.8897 84.5514 33.8578C84.6078 33.84 84.6688 33.8424 84.7237 33.8654C84.7785 33.8884 84.8233 33.9301 84.85 33.9828C84.8917 34.0662 84.85 34.122 84.8917 34.1288C84.9333 34.1358 84.9542 34.0733 84.9263 33.962C84.9097 33.8896 84.8677 33.8256 84.8083 33.7814C84.7273 33.7247 84.6277 33.7023 84.5305 33.7189C84.4134 33.745 84.3052 33.8011 84.2163 33.8814C84.1274 33.9617 84.0609 34.0638 84.0232 34.1775C83.9067 34.427 83.8543 34.7017 83.8702 34.9767C83.8641 35.232 83.9334 35.4834 84.0692 35.6998C84.205 35.9159 84.4018 36.0876 84.6345 36.1925C84.7117 36.2133 84.7926 36.2158 84.8708 36.2001C84.9493 36.1845 85.0232 36.1508 85.0863 36.1023C85.1767 36.0119 85.1905 35.9494 85.1767 35.9494Z" fill="#D4AD72"/>
<path d="M85.7879 28.3684C86.137 28.6547 86.553 28.8484 86.9969 28.9312C87.2195 28.9674 87.4476 28.9208 87.6382 28.8006C87.8289 28.6801 87.9693 28.4944 88.0324 28.2779C88.0671 28.0833 88.0324 27.8472 88.1505 27.6943C88.2685 27.5413 88.5953 27.5692 88.8454 27.5971C89.6722 27.6872 90.6519 26.77 90.8604 25.9641C90.9698 26.1189 91.1341 26.2262 91.3196 26.2648C91.5053 26.3038 91.6988 26.2707 91.8609 26.1726C92.1267 26.0141 92.3622 25.8093 92.5559 25.568C92.6669 25.4108 92.8152 25.2836 92.9872 25.1974C93.1595 25.1113 93.3502 25.0693 93.5427 25.0748C93.7416 25.1481 93.9495 25.1947 94.161 25.2137C94.5362 25.2137 94.7238 24.741 94.7793 24.3728C94.8351 24.0046 94.8835 23.5669 95.2033 23.3652C95.5334 23.2465 95.8945 23.2465 96.2247 23.3652C96.572 23.421 97.0168 23.3652 97.1072 23.0041C97.122 22.913 97.1183 22.8204 97.0968 22.7309C97.0754 22.6414 97.0364 22.5571 96.9822 22.4829C96.7474 22.139 96.4043 21.8836 96.0076 21.7579C95.6107 21.6319 95.1833 21.6424 94.7934 21.788C92.4553 21.7693 90.1335 21.3968 87.9071 20.6832C87.5092 20.777 87.1395 20.9637 86.8277 21.2282C86.5159 21.4928 86.2716 21.8275 86.1147 22.2049C85.7649 22.1114 85.3958 22.1227 85.0528 22.2377C84.7097 22.3529 84.4081 22.5663 84.1859 22.8517C83.9636 23.1371 83.83 23.4817 83.8024 23.8425C83.7745 24.2033 83.8539 24.5641 84.0298 24.8801C83.7643 25.0107 83.536 25.2069 83.3671 25.45C83.1982 25.6931 83.0936 25.9751 83.0639 26.2697C83.0587 26.4153 83.085 26.5603 83.1418 26.6946C83.1982 26.8289 83.2834 26.9494 83.3913 27.0471C83.4992 27.1452 83.6273 27.2185 83.7662 27.2617C83.9054 27.305 84.0522 27.3175 84.1966 27.2982C84.0801 27.5309 84.0565 27.7994 84.1313 28.0486C84.2058 28.2982 84.3728 28.5097 84.5982 28.64C84.8235 28.7703 85.0902 28.8098 85.3434 28.7503C85.5969 28.6909 85.8179 28.5367 85.9617 28.3196" fill="#341617"/>
<path d="M94.9952 22.5522C94.9967 22.5709 94.9967 22.5896 94.9952 22.608C95.0007 22.6589 95.0007 22.7101 94.9952 22.7607C94.9544 22.9535 94.8839 23.1386 94.7868 23.3097C94.6283 23.5862 94.4097 23.8238 94.1473 24.0047C93.8021 24.2389 93.3898 24.3535 92.9732 24.3311L93.0216 24.2686C93.1078 24.5298 93.0879 24.8142 92.9662 25.0607C92.8356 25.3148 92.6697 25.5487 92.4729 25.7557C92.3791 25.8764 92.2718 25.9859 92.1532 26.0821C91.9395 26.2247 91.6823 26.286 91.4276 26.2553C91.1725 26.2247 90.9374 26.1042 90.7636 25.9154H90.8746C90.832 26.2121 90.7283 26.4966 90.5705 26.7513C90.4126 27.0061 90.2041 27.2253 89.9574 27.3954C89.6855 27.5953 89.3565 27.7023 89.0193 27.7013C88.7017 27.6839 88.3894 27.6134 88.0951 27.4929H88.1717C88.02 27.842 87.7806 28.1458 87.4768 28.3754C87.3416 28.4913 87.1822 28.5756 87.0105 28.6225C86.8385 28.6694 86.6586 28.6777 86.4832 28.6464C86.1828 28.5811 85.9078 28.4291 85.693 28.2093C85.4781 27.9895 85.3321 27.7115 85.2739 27.4095H85.3364C85.0357 27.5674 84.6896 27.6164 84.3567 27.5484C84.1038 27.5045 83.8653 27.3997 83.6621 27.2427C83.5379 27.1443 83.4303 27.0269 83.3423 26.8951C83.2936 26.7979 83.266 26.7492 83.2727 26.7424C83.3788 26.9242 83.5207 27.0827 83.6896 27.2081C83.8984 27.35 84.1357 27.4448 84.3846 27.4858C84.7034 27.5389 85.0305 27.4852 85.3156 27.3332H85.3714V27.3887C85.4308 27.6701 85.5709 27.9285 85.7745 28.1317C85.978 28.3353 86.2362 28.4754 86.5179 28.5352C86.6776 28.5643 86.8419 28.5569 86.9982 28.5134C87.1546 28.4702 87.2993 28.392 87.421 28.285C87.699 28.0634 87.9185 27.7771 88.0604 27.4512V27.3954H88.1159C88.3983 27.5061 88.6959 27.5717 88.9985 27.5901C89.3115 27.5925 89.6165 27.4926 89.8669 27.3053C90.1002 27.1471 90.2973 26.9414 90.4457 26.702C90.5941 26.4626 90.6906 26.1946 90.7286 25.9154V25.7836L90.8191 25.8878C90.9212 25.9978 91.0484 26.0818 91.19 26.1327C91.3313 26.1836 91.4831 26.1995 91.632 26.1796C91.7749 26.168 91.9119 26.1174 92.0281 26.0337C92.1434 25.946 92.2464 25.8433 92.3337 25.7278C92.5275 25.5215 92.689 25.2873 92.8132 25.0331C92.9232 24.8182 92.9459 24.569 92.8757 24.3382V24.2686H92.9453C93.3426 24.2907 93.7368 24.1858 94.071 23.97C94.3269 23.8066 94.5427 23.588 94.7034 23.3305C94.8487 23.0917 94.9477 22.8278 94.9952 22.5522Z" fill="#691D1B"/>
<path d="M94.5084 37.6311C94.5084 37.5268 93.8134 37.6936 93.1188 37.2209C92.4238 36.7485 92.3684 35.9843 92.2709 36.0051C92.1737 36.026 92.1737 36.2065 92.2709 36.5192C92.3739 36.9334 92.62 37.2975 92.9658 37.5477C93.2899 37.7859 93.692 37.8926 94.0918 37.8466C94.3695 37.7978 94.5225 37.6798 94.5084 37.6311Z" fill="#341617"/>
<path d="M116.056 146.342L118.836 155.744C118.836 155.744 129.321 156.091 130.002 157.78L111.936 163.783L107.037 149.316L116.056 146.342Z" fill="#691D1B"/>
<path d="M112.978 156.814C112.824 156.927 112.716 157.092 112.674 157.278C112.632 157.465 112.658 157.66 112.749 157.828C112.854 157.988 113.016 158.101 113.202 158.145C113.388 158.189 113.584 158.16 113.75 158.065C113.914 157.947 114.029 157.772 114.072 157.575C114.116 157.377 114.085 157.171 113.986 156.994C113.861 156.837 113.68 156.736 113.481 156.711C113.283 156.686 113.082 156.741 112.923 156.863" fill="#E9DCDB"/>
<path d="M128.96 157.099C128.96 157.099 129.884 157.182 129.981 157.793L111.914 163.797L111.477 162.324L128.932 157.113" fill="#341617"/>
<path d="M119.058 155.529C119.058 155.619 118.655 155.806 118.321 156.224C117.988 156.641 117.87 157.092 117.779 157.085C117.689 157.078 117.647 156.529 118.071 156.015C118.495 155.501 119.058 155.466 119.058 155.529Z" fill="white"/>
<path d="M121.233 155.702C121.281 155.786 120.948 156.057 120.774 156.529C120.601 157.001 120.642 157.425 120.552 157.453C120.461 157.481 120.246 156.995 120.468 156.418C120.691 155.841 121.198 155.619 121.233 155.702Z" fill="white"/>
<path d="M123.06 157.613C122.984 157.655 122.72 157.259 122.782 156.696C122.845 156.133 123.192 155.813 123.255 155.876C123.317 155.938 123.151 156.279 123.102 156.737C123.053 157.196 123.144 157.571 123.06 157.613Z" fill="white"/>
<path d="M118.211 153.478C118.211 153.569 117.759 153.583 117.272 153.784C116.786 153.986 116.445 154.271 116.376 154.208C116.307 154.146 116.578 153.708 117.154 153.513C117.731 153.319 118.231 153.395 118.211 153.478Z" fill="white"/>
<path d="M73.9615 146.426L70.0352 155.397C70.0352 155.397 77.8387 162.408 77.2759 164.138L59.5984 157.148L65.1574 142.91L73.9615 146.426Z" fill="#691D1B"/>
<path d="M64.8585 152.471C64.6678 152.455 64.4784 152.51 64.3257 152.626C64.1734 152.741 64.0685 152.909 64.0317 153.096C64.0094 153.287 64.0609 153.479 64.1761 153.633C64.2911 153.787 64.4606 153.891 64.65 153.923C64.8554 153.938 65.0593 153.874 65.2202 153.745C65.3812 153.617 65.4875 153.432 65.5185 153.228C65.5185 152.846 65.1641 152.395 64.7819 152.436" fill="#E9DCDB"/>
<path d="M76.9353 162.963C76.9353 162.963 77.5815 163.616 77.2759 164.138L59.5984 157.147L60.217 155.758L76.9353 162.991" fill="#341617"/>
<path d="M70.3548 155.424C70.3548 155.508 69.8753 155.375 69.3404 155.487C68.8055 155.598 68.4373 155.869 68.3677 155.799C68.2981 155.73 68.6316 155.292 69.2779 155.167C69.9241 155.042 70.4173 155.348 70.3548 155.424Z" fill="white"/>
<path d="M71.9114 156.918C71.9114 157.008 71.4666 157.008 71.0288 157.252C70.5911 157.495 70.3342 157.856 70.2646 157.821C70.195 157.787 70.3201 157.272 70.8691 156.974C71.4178 156.675 71.9393 156.841 71.9114 156.918Z" fill="white"/>
<path d="M72.0848 159.559C72.0014 159.559 72.0501 159.065 72.4603 158.683C72.8701 158.301 73.3425 158.266 73.3496 158.356C73.3566 158.447 73.009 158.593 72.6546 158.912C72.3003 159.232 72.1752 159.579 72.0848 159.559Z" fill="white"/>
<path d="M71.0287 153.277C70.9594 153.34 70.6121 153.069 70.1115 152.909C69.6112 152.749 69.1664 152.749 69.1526 152.659C69.1388 152.568 69.6253 152.402 70.209 152.596C70.7927 152.791 71.1121 153.229 71.0287 153.277Z" fill="white"/>
<path d="M80.5833 97.1183L74.3852 122.238C74.3852 122.238 63.2117 141.048 61.3215 150.456L71.5431 154.472C71.5431 154.472 78.9782 136.35 81.1532 133.022C82.1317 131.521 83.261 130.124 84.5231 128.853C85.3373 128.039 85.9219 127.025 86.2186 125.913L90.9088 107.986L80.5833 97.1183Z" fill="#341617"/>
<path d="M77.9426 93.102C77.9426 93.102 78.804 99.8283 85.2802 102.83L98.9275 125.066C99.6298 129.579 100.675 134.032 102.054 138.386C104.097 144.432 108.218 156.203 108.218 156.203L119.44 152.033L112.29 127.574L111.115 119.09L99.9977 90.7465L90.4364 85.0137L77.9426 93.102Z" fill="#341617"/>
<path d="M77.9431 93.1019L78.1448 92.956L78.7701 92.5462L81.1882 90.9478L90.381 84.9094H90.416L99.9911 90.6281C103.111 98.5426 106.94 108.208 111.151 118.965C111.519 121.64 111.915 124.524 112.325 127.442C114.264 134.05 116.327 141.117 118.46 148.399C118.803 149.576 119.144 150.734 119.482 151.873V151.964H119.392L108.17 156.133L108.072 156.168V156.07L102.472 139.859C102.027 138.567 101.589 137.295 101.221 136.024C100.853 134.752 100.526 133.48 100.234 132.23C99.6437 129.728 99.1643 127.282 98.7961 124.913L85.1767 102.677C83.5305 101.911 82.0683 100.799 80.8893 99.4181C80.0331 98.4059 79.3305 97.2726 78.8048 96.0552C78.4749 95.3094 78.2144 94.5348 78.0264 93.7411C77.974 93.5397 77.9323 93.3355 77.9014 93.1298C77.9014 92.9907 77.9014 92.9214 77.9014 92.9214L77.9431 93.1228C77.9431 93.2617 78.0126 93.4634 78.0822 93.7344C78.283 94.5222 78.5503 95.2916 78.8811 96.0344C79.4099 97.2395 80.1122 98.3608 80.9656 99.3626C82.1465 100.726 83.6032 101.822 85.2392 102.58L98.9141 124.815V124.85C99.2823 127.213 99.7688 129.652 100.36 132.146C100.651 133.397 100.982 134.657 101.353 135.926C101.714 137.198 102.152 138.469 102.604 139.755C104.383 144.904 106.266 150.331 108.211 155.966L108.086 155.904L119.308 151.735L119.246 151.86C118.908 150.701 118.567 149.543 118.224 148.385C116.098 141.103 114.055 134.036 112.096 127.428L110.928 118.944C106.704 108.181 102.916 98.515 99.8105 90.5934L90.2562 84.8469H90.3117L81.1116 90.8298L78.6588 92.407C78.3879 92.5879 78.1724 92.7197 78.0264 92.8101L77.9431 93.1019Z" fill="#691D1B"/>
<path d="M83.9326 45.0867C83.9326 45.0867 80.6666 47.602 79.0685 50.4164C77.1646 53.7796 76.984 58.7546 76.9006 66.5302C76.8448 73.7081 77.915 75.7025 77.5048 78.4053C76.6919 83.6863 76.1152 101.405 76.1152 101.405C76.1152 101.405 86.5937 97.3753 88.6228 95.5964L90.7073 93.8175L103.833 98.1536L101.186 82.0257L99.3652 61.9163L97.0376 51.2502L96.6345 47.0808L85.3847 42.5295L83.9326 45.0867Z" fill="#691D1B"/>
<path d="M96.204 46.8381C96.3428 46.8381 95.8772 47.7829 95.0712 49.1381L95.0363 49.1936H94.9741C93.8343 48.7558 92.3264 48.1998 90.6796 47.5952C88.8244 46.9006 87.1429 46.289 85.9477 45.8025C85.3432 45.5524 84.8637 45.351 84.5578 45.198C84.3819 45.1297 84.212 45.046 84.0508 44.9479C84.2353 44.9874 84.415 45.0481 84.5857 45.1284L86.024 45.6637L90.7771 47.4076C92.4239 48.0054 93.9315 48.582 95.0642 49.0477H94.967C95.455 48.3561 95.8695 47.6155 96.204 46.8381Z" fill="#341617"/>
<path d="M109.768 38.4438C109.768 38.4438 108.941 37.1514 108.155 35.9632C107.37 34.775 106.182 34.1843 105.995 33.5589C105.807 32.9335 104.758 30.1678 104.605 29.4799C104.457 28.8141 104.39 28.133 104.403 27.4509C104.403 27.4509 105.258 27.0827 105.675 28.3126C106.009 29.4597 106.413 30.5851 106.884 31.6828C107.051 31.8079 107.287 31.627 107.287 31.627C106.933 30.6865 106.627 29.7289 106.37 28.7574C106.37 28.3059 106.495 25.283 106.495 25.283C106.708 25.2413 106.929 25.2762 107.118 25.3817C107.308 25.4874 107.454 25.6567 107.53 25.8599C107.815 26.7394 107.956 27.6593 107.947 28.5836L108.565 30.7586L108.35 28.6115L108.663 24.6717C108.963 24.7131 109.244 24.8461 109.467 25.0524C109.689 25.2588 109.843 25.5285 109.907 25.825C110.164 26.8881 109.823 28.3751 109.997 28.6878C110.177 29.418 110.298 30.1617 110.358 30.9115C110.358 30.9115 110.573 26.2835 111.053 26.1517C111.533 26.0196 111.949 26.5128 111.88 27.4441C111.774 28.7038 111.83 29.9717 112.047 31.2172C112.304 32.0927 114.938 35.4767 114.722 36.9846C114.589 37.8825 114.507 38.7871 114.479 39.6945H109.955L109.768 38.4438Z" fill="#E0C07E"/>
<path d="M93.9597 50.0966C94.2166 50.1871 104.98 52.8761 104.98 52.8761C104.98 52.8761 107.384 48.978 107.76 47.8662C108.135 46.7546 109.997 39.2291 109.997 39.2291L114.549 38.7984C114.549 38.7984 113.395 58.192 111.734 59.2343C110.364 60.0236 108.854 60.5383 107.287 60.7489C107.106 60.6935 95.6552 61.4856 89.6098 56.7258C83.5646 51.966 93.9597 50.0966 93.9597 50.0966Z" fill="#E0C07E"/>
<g opacity="0.3">
<path d="M86.2461 60.3324C87.4009 61.6404 88.941 62.5481 90.6448 62.9243C93.5006 63.5564 99.5807 64.6682 99.5807 64.6682L99.2818 61.6803L86.0793 60.2907" fill="black"/>
</g>
<path d="M81.4517 56.2531C82.4314 58.3376 84.6064 60.5334 89.387 61.027C98.8582 62.0067 106.022 62.5278 109.121 62.0622C112.22 61.5965 113.45 55.0373 113.77 54.8356C114.736 54.2311 114.673 52.1465 113.839 51.5282C111.477 49.7631 106.738 48.4011 106.418 48.5611C104.535 49.4991 105.153 51.6879 105.153 51.6879L93.16 49.0405C91.7772 48.4655 90.3346 48.0461 88.8588 47.7898" fill="#691D1B"/>
<path d="M88.8592 47.8248H89.158C89.3527 47.8248 89.6375 47.9152 90.0127 47.9986C91.0958 48.2402 92.1558 48.5752 93.1812 48.9992L105.175 51.6119L105.077 51.7158C104.896 51.0233 104.95 50.2901 105.23 49.6313C105.388 49.2956 105.627 49.0044 105.925 48.7837C106.07 48.6675 106.226 48.5651 106.391 48.478C106.451 48.4707 106.511 48.4707 106.571 48.478H106.71L106.988 48.5265C108.465 48.8759 109.905 49.3643 111.289 49.9857C112.013 50.3008 112.71 50.6723 113.374 51.0975C113.548 51.2017 113.708 51.3268 113.881 51.4381C114.051 51.5724 114.19 51.7403 114.291 51.9313C114.482 52.3133 114.579 52.7345 114.576 53.1612C114.588 53.5925 114.492 54.0198 114.298 54.4052C114.191 54.6041 114.039 54.7755 113.853 54.9055C113.812 54.9055 113.777 55.0305 113.735 55.1207L113.638 55.4196C113.381 56.2117 113.124 57.0247 112.811 57.8238C112.408 58.9731 111.811 60.0448 111.046 60.9923C110.77 61.355 110.419 61.6523 110.015 61.8639C109.611 62.0751 109.167 62.1952 108.712 62.2155C108.42 62.2572 108.135 62.2639 107.843 62.2918C106.69 62.3614 105.557 62.3405 104.452 62.2918C103.347 62.2431 102.263 62.2014 101.207 62.1388C96.9824 61.8678 93.1953 61.4442 90.0198 61.1524C89.2592 61.084 88.5033 60.9749 87.7544 60.8256C87.0885 60.6827 86.4353 60.4853 85.8019 60.2352C84.7735 59.8376 83.8302 59.2481 83.0225 58.4979C82.5243 58.0206 82.0964 57.4756 81.7509 56.8787C81.6261 56.6752 81.5194 56.4615 81.4312 56.2396C81.4312 56.2396 81.5424 56.4618 81.7855 56.8579C82.1451 57.4403 82.5795 57.9731 83.0779 58.4421C83.8777 59.172 84.8093 59.7428 85.8228 60.1239C86.4515 60.3703 87.1002 60.5632 87.7614 60.7005C88.5057 60.843 89.2574 60.9451 90.0127 61.0064C93.1883 61.3191 96.9613 61.7011 101.193 61.9512C102.249 62.0138 103.333 62.0695 104.438 62.0971C105.543 62.125 106.669 62.1388 107.815 62.0971C108.1 62.0971 108.385 62.0971 108.67 62.0279C108.953 62.0067 109.233 61.9531 109.504 61.8678C110.046 61.6603 110.525 61.3154 110.893 60.8673C111.638 59.9332 112.22 58.8808 112.617 57.7542C112.929 56.9621 113.179 56.1632 113.437 55.357L113.541 55.0581L113.61 54.9055C113.623 54.8754 113.639 54.8475 113.659 54.8221L113.707 54.7663C113.864 54.652 113.995 54.5051 114.09 54.3356C114.267 53.98 114.352 53.5861 114.34 53.1891C114.343 52.7967 114.255 52.4089 114.083 52.0564C113.996 51.8896 113.875 51.7428 113.729 51.6257C113.562 51.5144 113.402 51.3964 113.235 51.2922C112.569 50.8722 111.872 50.5031 111.151 50.1874C109.781 49.5724 108.357 49.0862 106.898 48.7349L106.634 48.6932H106.509H106.419C106.265 48.7726 106.118 48.8658 105.981 48.9713C105.711 49.1794 105.494 49.4486 105.348 49.7564C105.09 50.3744 105.039 51.0595 105.203 51.7091V51.8479L105.07 51.8133L93.0908 49.131C92.0727 48.7027 91.0228 48.3542 89.9502 48.0887L89.1789 47.8248H88.8592Z" fill="#341617"/>
<path d="M109.121 55.4677C108.847 55.3972 108.587 55.282 108.35 55.1275C107.753 54.7949 107.202 54.3862 106.71 53.9114C106.223 53.4326 105.796 52.8958 105.438 52.3134C105.276 52.0822 105.152 51.8262 105.07 51.5559C105.601 52.3422 106.198 53.0816 106.856 53.7655C107.559 54.3991 108.317 54.969 109.121 55.4677Z" fill="#341617"/>
<path d="M37.8424 84.2353C39.1777 84.3159 40.4812 84.673 41.6709 85.2846C43.1371 86.2018 45.4859 87.6263 46.4586 89.3912C46.9034 90.2041 45.6318 90.3779 45.0065 89.9055C44.3811 89.4328 43.4152 88.5156 42.9219 88.4393L42.4425 88.328C42.8781 89.313 43.3627 90.2752 43.8946 91.2118C44.3881 91.9622 44.8188 93.2408 43.3388 93.2963C43.3388 93.2963 42.3379 94.5958 41.3306 93.6369C41.3306 93.6369 40.5452 94.8113 39.2458 93.1783C39.2458 93.1783 38.5094 94.1093 38.1968 93.7549C37.8841 93.4005 36.8835 92.831 36.5917 91.6704C36.1472 90.3136 35.6346 88.9801 35.0562 87.6748L37.8424 84.2353Z" fill="#E0C07E"/>
<path d="M17.7192 53.133C16.5059 53.5223 15.4584 54.3077 14.745 55.3634C13.8349 56.7533 13.5569 59.1993 13.814 60.9782C14.3698 64.7721 16.107 71.1786 17.0868 75.2922C17.4203 76.6821 18.1153 79.2529 20.144 80.6011L34.5972 89.266L38.4607 83.5265L25.2585 72.7908L22.6528 58.0736L17.7192 53.133Z" fill="#691D1B"/>
<path d="M15.2178 67.6074C15.2368 67.6549 15.2527 67.7037 15.2665 67.7533L15.3845 68.2049L15.8223 69.9283C16.2046 71.443 16.7465 73.6179 17.4206 76.3208C17.8149 77.7889 18.6459 79.1024 19.8038 80.0871C20.4567 80.6103 21.1541 81.0754 21.8883 81.4767L24.2095 82.8666L34.6322 89.1202H34.5004C34.9452 88.4602 35.4176 87.7652 35.89 87.0356L38.3638 83.3668V83.4919L25.3419 72.8396C24.4802 69.2125 23.8548 66.2384 23.4588 64.1747C23.2574 63.1395 23.1255 62.3332 23.0351 61.7845C23.0005 61.5203 22.9655 61.3118 22.9447 61.1588C22.9398 61.0874 22.9398 61.0154 22.9447 60.9436L22.9864 61.1588C22.9864 61.3051 23.0559 61.5135 23.1044 61.7775C23.2019 62.3265 23.3548 63.1253 23.5633 64.1609C23.9802 66.2454 24.6331 69.1846 25.509 72.805V72.7633L38.5999 83.4849L38.6695 83.5407L38.6207 83.6099L36.1472 87.2858C35.6677 87.9807 35.195 88.6757 34.7573 89.3703L34.7018 89.447L34.6255 89.3982L24.2024 83.0959L21.8816 81.706C21.1305 81.2949 20.419 80.8157 19.7553 80.2747C18.5788 79.2637 17.7379 77.9185 17.3443 76.4183C16.6981 73.7151 16.1696 71.5542 15.8085 70.0184C15.6347 69.268 15.4958 68.6843 15.4054 68.2812L15.3012 67.8297C15.2248 67.6559 15.2178 67.6074 15.2178 67.6074Z" fill="#341617"/>
<path d="M15.4541 55.1762C15.5424 55.1164 15.6417 55.0738 15.7459 55.0511C16.0231 54.9647 16.3066 54.8997 16.5939 54.8568C17.5512 54.7096 18.5309 54.8424 19.415 55.2387C20.262 55.69 20.9794 56.3503 21.4996 57.1568C21.6584 57.4018 21.7868 57.6654 21.8815 57.9419C21.9205 58.0397 21.9438 58.1427 21.9511 58.2475C21.7859 57.8984 21.5955 57.5615 21.3812 57.2402C20.839 56.4778 20.1247 55.8543 19.2967 55.4196C18.4445 55.0398 17.5065 54.896 16.5798 55.0027C15.8919 55.0652 15.4679 55.2111 15.4541 55.1762Z" fill="#341617"/>
<path d="M174.16 62.0693L168.379 60.867L175.717 25.6653C175.992 23.8205 175.586 21.9389 174.577 20.3706C165.363 7.61962 150.375 12.8034 148.082 23.8447L141.523 55.3013L135.734 54.0782L143.114 18.6401C143.494 16.8072 144.277 15.0817 145.407 13.5888C146.537 12.0962 147.985 10.8736 149.646 10.0101C168.261 0.420934 183.882 15.3327 180.699 30.6198L174.16 62.0693Z" fill="#EBE0DF"/>
<path d="M174.161 62.069C174.161 62.069 174.161 61.8535 174.279 61.4436L174.647 59.6371C174.981 58.025 175.46 55.6695 176.086 52.6328C176.711 49.5961 177.475 45.8856 178.358 41.5777C178.821 39.4235 179.284 37.1256 179.747 34.6846C180.206 32.2386 180.956 29.6814 180.984 26.916C181.03 24.0197 180.414 21.1513 179.185 18.5288C179.025 18.1885 178.872 17.8341 178.698 17.5006C178.525 17.1671 178.316 16.8473 178.121 16.5209C177.72 15.8569 177.282 15.2168 176.808 14.6028C176.579 14.2834 176.294 14.0124 176.044 13.7064C175.789 13.402 175.518 13.112 175.231 12.838C174.665 12.2703 174.061 11.7408 173.424 11.2537C172.123 10.2415 170.701 9.3945 169.192 8.73144L168.011 8.28663L167.421 8.06438L166.802 7.90436L165.565 7.57789C165.148 7.48746 164.718 7.43902 164.294 7.36943C160.763 6.84401 157.156 7.30567 153.871 8.70354C150.418 10.1692 147.46 12.5986 145.352 15.7009C144.28 17.3023 143.44 19.0475 142.857 20.8843C142.322 22.7466 141.982 24.7064 141.564 26.6517C139.938 34.4553 138.25 42.5365 136.527 50.8192C136.3 51.9216 136.068 53.0196 135.832 54.1128L135.728 53.9531L141.502 55.1551L141.342 55.2663C142.649 49.0078 143.923 42.9001 145.164 36.9429C145.785 33.9688 146.396 31.0388 146.998 28.1526C147.295 26.7167 147.594 25.2876 147.895 23.8655C148.206 22.4517 148.719 21.0897 149.417 19.8212C150.821 17.3593 152.945 15.3857 155.504 14.165C155.816 14.0332 156.115 13.8594 156.442 13.7552L157.408 13.4079C158.057 13.2147 158.718 13.0685 159.388 12.9701C160.051 12.8699 160.719 12.8141 161.389 12.803C161.723 12.803 162.084 12.803 162.383 12.8447H162.883L163.37 12.9214C164.656 13.1031 165.912 13.4609 167.101 13.9845C168.254 14.5114 169.333 15.1868 170.311 15.9927C172.177 17.5647 173.598 19.5989 174.432 21.8919C174.832 22.9836 175.095 24.1199 175.217 25.2759C175.312 26.3927 175.276 27.5165 175.113 28.6253C175.064 28.8963 175.022 29.1673 174.981 29.4383L174.814 30.2304C174.703 30.7586 174.599 31.2797 174.487 31.7938L173.848 34.8305C173.021 38.7982 172.25 42.474 171.562 45.7326C170.172 52.3063 169.088 57.4481 168.373 60.867L168.338 60.8183L172.695 61.7493L173.758 61.9856L174.112 62.0619L173.765 61.9997L172.708 61.791L168.324 60.9017H168.282V60.86C168.977 57.4343 170.047 52.2922 171.402 45.7121C172.097 42.4182 172.84 38.7632 173.661 34.7955C173.869 33.802 174.077 32.7944 174.293 31.7592C174.397 31.2448 174.508 30.7236 174.612 30.1958L174.779 29.4036L174.904 28.6045C175.062 27.5116 175.095 26.404 175.001 25.3038C174.879 24.1668 174.617 23.0492 174.223 21.9753C173.398 19.7194 171.997 17.7189 170.158 16.1732C169.194 15.3866 168.134 14.726 167.003 14.2067C165.832 13.6911 164.595 13.3404 163.328 13.1645L162.848 13.0881H162.362C162.036 13.0881 161.709 13.0394 161.382 13.0464C160.726 13.0538 160.071 13.1093 159.423 13.2132C158.765 13.3122 158.115 13.456 157.477 13.6439L156.525 13.9845C156.21 14.1053 155.902 14.242 155.601 14.3943C153.093 15.5975 151.01 17.5365 149.632 19.9533C148.947 21.2001 148.444 22.5385 148.138 23.928C147.846 25.3455 147.55 26.7747 147.249 28.2154C146.651 31.0967 146.042 34.0267 145.421 37.0052C144.184 42.9535 142.913 49.0612 141.606 55.3289V55.461H141.467L135.693 54.2587H135.554V54.1198C135.783 53.0288 136.013 51.924 136.249 50.8192C137.979 42.5433 139.661 34.462 141.287 26.6588C141.711 24.7061 142.051 22.7674 142.593 20.8638C143.44 18.1002 144.882 15.5562 146.818 13.4106C148.755 11.2651 151.139 9.57077 153.801 8.44634C157.127 7.03713 160.777 6.57302 164.349 7.10519C164.78 7.18183 165.218 7.23026 165.635 7.32069L167.073 7.69591L167.858 7.94606L169.033 8.38381L169.567 8.61311C170.999 9.26269 172.348 10.0815 173.584 11.052C174.228 11.5462 174.838 12.0826 175.412 12.6574C175.717 12.9214 175.954 13.2478 176.232 13.5397C176.509 13.8315 176.773 14.1233 177.003 14.4431C177.479 15.0638 177.92 15.7113 178.323 16.3817C178.525 16.7152 178.719 17.0767 178.914 17.3823C179.108 17.6882 179.24 18.0772 179.4 18.4178C180.636 21.0701 181.251 23.9691 181.2 26.8951C181.2 29.6746 180.401 32.2662 179.935 34.7122C179.47 37.1581 178.934 39.4652 178.483 41.661L176.162 52.6883C175.522 55.7179 175.023 58.0667 174.682 59.6371C174.515 60.4293 174.383 61.0267 174.293 61.4436C174.202 61.8605 174.161 62.069 174.161 62.069Z" fill="#612629"/>
<path d="M133.243 32.082L185.031 42.8728C185.705 43.0132 186.297 43.4164 186.674 43.9927C187.052 44.5693 187.185 45.2722 187.045 45.9469L178.834 85.3542C178.706 85.9676 178.339 86.505 177.815 86.8484C177.291 87.1917 176.652 87.3128 176.039 87.1853L124.033 76.349L133.256 32.085L133.243 32.082Z" fill="#C09161"/>
<g opacity="0.3">
<path d="M133.268 32.1289L184.784 42.8627C185.527 43.0178 186.179 43.4614 186.595 44.0966C187.011 44.7318 187.158 45.5061 187.003 46.2495L178.898 85.1464C178.756 85.8285 178.349 86.4259 177.766 86.8076C177.183 87.1892 176.473 87.3241 175.791 87.1819L124.044 76.3996L133.268 32.1289Z" fill="black"/>
</g>
<path d="M137.326 25.0356L182.269 34.2078C183.002 34.3574 183.646 34.7921 184.059 35.4166C184.471 36.041 184.619 36.8034 184.47 37.5367L176.687 75.6709C176.503 76.574 175.968 77.3667 175.199 77.875C174.43 78.3832 173.49 78.565 172.588 78.3808L128.386 69.3602C127.628 69.2054 126.961 68.7554 126.535 68.1098C126.108 67.4639 125.955 66.6749 126.109 65.9165L134.002 27.2443C134.152 26.511 134.586 25.8672 135.211 25.4546C135.835 25.042 136.597 24.8942 137.331 25.0438L137.326 25.0356Z" fill="#C09161"/>
<g opacity="0.7">
<path d="M159.117 56.6078C159.289 55.7798 159.293 54.9261 159.129 54.0966C158.965 53.2673 158.636 52.4792 158.161 51.7797C157.687 51.0798 157.077 50.4823 156.367 50.0225C155.658 49.5627 154.863 49.25 154.031 49.1032C152.428 48.8371 150.784 49.1921 149.433 50.0958C148.083 50.9995 147.128 52.3839 146.762 53.9672C146.474 55.3166 146.635 56.7237 147.223 57.9723C147.81 59.2212 148.791 60.2429 150.014 60.8811L144.205 68.5663L154.823 70.9844L153.391 61.5828C154.756 61.4875 156.054 60.9507 157.086 60.0531C158.119 59.1555 158.832 57.9462 159.117 56.6078Z" fill="#691D1B"/>
</g>
<path d="M172.785 82.2826C172.708 82.2826 174.285 74.5486 176.308 65.0499C178.33 55.5511 180.032 47.8659 180.109 47.88C180.185 47.8938 178.601 55.6069 176.579 65.1124C174.557 74.6182 172.854 82.2964 172.785 82.2826Z" fill="#612629"/>
<path d="M169.186 41.0773C169.186 41.1537 162.355 39.8891 153.968 38.2562C145.581 36.6232 138.785 35.2403 138.799 35.164C138.813 35.0877 145.63 36.3522 154.017 37.9852C162.404 39.6182 169.199 41.0007 169.186 41.0773Z" fill="white"/>
<path d="M145.859 57.3163C145.778 57.1808 145.719 57.033 145.685 56.8785C145.562 56.4644 145.485 56.0379 145.456 55.6069C145.338 54.1753 145.656 52.7416 146.366 51.4933C147.09 50.2491 148.169 49.2497 149.465 48.6234C149.852 48.4358 150.257 48.289 150.675 48.1857C150.827 48.1372 150.987 48.1139 151.147 48.1164C151.147 48.1648 150.494 48.2969 149.556 48.811C148.323 49.4536 147.3 50.4354 146.608 51.6411C145.916 52.8468 145.584 54.2253 145.65 55.614C145.692 56.663 145.915 57.3025 145.859 57.3163Z" fill="white"/>
<path d="M147.693 60.756C147.637 60.8118 147.311 60.5825 146.949 60.249C146.588 59.9152 146.338 59.5957 146.394 59.554C146.449 59.5123 146.776 59.7275 147.137 60.0611C147.499 60.3946 147.742 60.7005 147.693 60.756Z" fill="white"/>
<path d="M163.314 8.59222C163.314 8.59222 162.932 8.59222 162.244 8.52294C158.047 8.24306 153.888 9.47539 150.522 11.9971C147.981 13.9774 146.04 16.6232 144.914 19.6406C144.575 20.5446 144.308 21.4741 144.115 22.4201C144.066 22.7741 143.994 23.1245 143.9 23.4694C143.892 23.3768 143.892 23.2839 143.9 23.1914C143.9 23.0108 143.934 22.7398 143.997 22.3992C144.138 21.4321 144.371 20.4805 144.692 19.5572C145.765 16.4718 147.72 13.7686 150.313 11.7816C152.907 9.79451 156.025 8.61092 159.284 8.37702C160.259 8.28843 161.241 8.28843 162.216 8.37702C162.564 8.41166 162.828 8.46715 163.008 8.49504C163.189 8.52294 163.314 8.57843 163.314 8.59222Z" fill="white"/>
<path d="M142.684 28.2016C142.662 27.6489 142.735 27.0968 142.899 26.5687C142.972 26.0193 143.136 25.4862 143.385 24.9915C143.406 25.5439 143.334 26.096 143.17 26.6241C143.097 27.1735 142.932 27.7066 142.684 28.2016Z" fill="white"/>
<path d="M195.319 91.2884H118.613C118.057 91.2884 117.606 91.7397 117.606 92.296V103.879C117.606 104.436 118.057 104.887 118.613 104.887H195.319C195.876 104.887 196.327 104.436 196.327 103.879V92.296C196.327 91.7397 195.876 91.2884 195.319 91.2884Z" fill="#E0C07E"/>
<path d="M195.396 109.966H118.69C118.134 109.966 117.682 110.417 117.682 110.973V122.557C117.682 123.113 118.134 123.564 118.69 123.564H195.396C195.953 123.564 196.403 123.113 196.403 122.557V110.973C196.403 110.417 195.953 109.966 195.396 109.966Z" fill="#E0C07E"/>
<path d="M126.201 97.3056C126.201 98.0006 125.707 98.4037 124.887 98.4037H124.116V99.3555H123.665V96.2079H124.887C125.707 96.2079 126.201 96.6248 126.201 97.3056ZM125.756 97.3056C125.756 96.8541 125.45 96.611 124.881 96.611H124.116V98.0006H124.881C125.45 98.0076 125.756 97.7575 125.756 97.3056Z" fill="#1A2E35"/>
<path d="M128.661 97.9172V99.3555H128.258V99.0361C128.167 99.155 128.047 99.2491 127.91 99.3098C127.772 99.3705 127.622 99.396 127.473 99.3834C126.931 99.3834 126.59 99.0916 126.59 98.6885C126.59 98.2857 126.84 97.9938 127.549 97.9938H128.244V97.9104C128.244 97.549 128.036 97.3335 127.605 97.3335C127.333 97.3335 127.069 97.4239 126.854 97.5907L126.674 97.271C126.959 97.0613 127.306 96.9534 127.66 96.9654C127.792 96.947 127.926 96.9586 128.052 96.9994C128.179 97.0398 128.294 97.1085 128.39 97.2002C128.486 97.2915 128.561 97.4034 128.607 97.5276C128.654 97.652 128.673 97.7851 128.661 97.9172ZM128.23 98.6121V98.2786H127.57C127.139 98.2786 127.021 98.4454 127.021 98.6468C127.021 98.8485 127.216 99.0361 127.542 99.0361C127.685 99.0468 127.828 99.0134 127.951 98.9401C128.074 98.8666 128.172 98.7568 128.23 98.6259V98.6121Z" fill="#1A2E35"/>
<path d="M129.161 99.0984L129.342 98.7578C129.589 98.9218 129.879 99.0089 130.176 99.008C130.579 99.008 130.739 98.8829 130.739 98.6815C130.739 98.1463 129.237 98.6119 129.237 97.6668C129.237 97.2361 129.62 96.9719 130.231 96.9719C130.535 96.9654 130.835 97.0396 131.1 97.1874L130.912 97.528C130.704 97.398 130.462 97.3327 130.217 97.3404C129.842 97.3404 129.654 97.4792 129.654 97.6668C129.654 98.2297 131.169 97.7711 131.169 98.6953C131.169 99.126 130.773 99.3902 130.134 99.3902C129.787 99.3952 129.448 99.2931 129.161 99.0984Z" fill="#1A2E35"/>
<path d="M131.413 99.0984L131.586 98.7578C131.836 98.9209 132.128 99.0077 132.427 99.008C132.823 99.008 132.99 98.8829 132.99 98.6815C132.99 98.1466 131.489 98.6119 131.489 97.6671C131.489 97.2361 131.871 96.9722 132.483 96.9722C132.784 96.9648 133.082 97.039 133.344 97.1874L133.164 97.528C132.955 97.3992 132.714 97.3339 132.469 97.3404C132.093 97.3404 131.906 97.4795 131.906 97.6671C131.906 98.23 133.414 97.7714 133.414 98.6953C133.414 99.1263 133.018 99.3902 132.385 99.3902C132.039 99.3961 131.699 99.294 131.413 99.0984Z" fill="#1A2E35"/>
<path d="M137.521 96.9724L136.631 99.3559H136.214L135.519 97.5494L134.824 99.3559H134.414L133.525 96.9724H133.935L134.63 98.8694L135.325 96.9724H135.686L136.381 98.8764L137.076 96.9724H137.521Z" fill="#1A2E35"/>
<path d="M137.667 98.1603C137.664 97.9151 137.734 97.6748 137.868 97.4694C138.003 97.2643 138.194 97.1037 138.42 97.0077C138.646 96.9121 138.895 96.8857 139.136 96.9317C139.377 96.978 139.599 97.0945 139.773 97.267C139.947 97.4393 140.067 97.6597 140.115 97.9001C140.164 98.1404 140.14 98.3896 140.047 98.6165C139.954 98.8433 139.796 99.0374 139.592 99.1738C139.388 99.3105 139.149 99.3832 138.904 99.3835C138.74 99.3911 138.577 99.3651 138.424 99.3065C138.271 99.248 138.133 99.1585 138.016 99.0435C137.9 98.9286 137.809 98.7906 137.749 98.6386C137.689 98.4865 137.66 98.3237 137.667 98.1603ZM139.702 98.1603C139.713 98.0488 139.7 97.9359 139.664 97.8299C139.629 97.7235 139.571 97.6257 139.496 97.5426C139.42 97.4599 139.328 97.3937 139.226 97.3483C139.123 97.3029 139.012 97.2796 138.9 97.2796C138.788 97.2796 138.677 97.3029 138.574 97.3483C138.472 97.3937 138.38 97.4599 138.304 97.5426C138.229 97.6257 138.171 97.7235 138.136 97.8299C138.1 97.9359 138.087 98.0488 138.097 98.1603C138.087 98.2719 138.1 98.3847 138.136 98.4911C138.171 98.5975 138.229 98.695 138.304 98.778C138.38 98.8608 138.472 98.927 138.574 98.9724C138.677 99.0178 138.788 99.0411 138.9 99.0411C139.012 99.0411 139.123 99.0178 139.226 98.9724C139.328 98.927 139.42 98.8608 139.496 98.778C139.571 98.695 139.629 98.5975 139.664 98.4911C139.7 98.3847 139.713 98.2719 139.702 98.1603Z" fill="#1A2E35"/>
<path d="M141.988 96.9513V97.3682H141.891C141.785 97.3581 141.678 97.3728 141.579 97.4105C141.479 97.4485 141.39 97.5086 141.318 97.5864C141.245 97.6643 141.191 97.7578 141.161 97.8596C141.13 97.9617 141.123 98.0693 141.141 98.1741V99.3623H140.71V96.9789H141.12V97.382C141.209 97.2351 141.338 97.1165 141.491 97.0402C141.645 96.9638 141.818 96.9329 141.988 96.9513Z" fill="#1A2E35"/>
<path d="M144.768 96.0206V99.3559H144.358V98.9736C144.261 99.1057 144.133 99.2124 143.985 99.2838C143.837 99.3552 143.674 99.3896 143.51 99.3838C143.188 99.3838 142.878 99.2556 142.65 99.0275C142.423 98.7995 142.294 98.4902 142.294 98.1677C142.294 97.8452 142.423 97.5359 142.65 97.3078C142.878 97.0797 143.188 96.9516 143.51 96.9516C143.668 96.9455 143.826 96.9767 143.97 97.0432C144.114 97.1095 144.24 97.2091 144.337 97.3339V96.0206H144.768ZM144.344 98.1606C144.337 98.0027 144.284 97.8501 144.191 97.7219C144.098 97.5941 143.97 97.496 143.822 97.4405C143.673 97.385 143.512 97.3743 143.358 97.4099C143.204 97.4454 143.064 97.5254 142.954 97.6401C142.846 97.7547 142.773 97.8991 142.745 98.0549C142.718 98.2106 142.737 98.3709 142.799 98.5162C142.863 98.6612 142.967 98.7848 143.099 98.8709C143.232 98.9573 143.387 99.0027 143.545 99.0015C143.654 99.0036 143.763 98.9831 143.863 98.9411C143.964 98.8991 144.055 98.8366 144.13 98.7575C144.206 98.6784 144.263 98.5843 144.3 98.4816C144.337 98.3789 144.352 98.2694 144.344 98.1606Z" fill="#1A2E35"/>
<path d="M123.408 117.311C123.404 117.094 123.446 116.878 123.529 116.678C123.613 116.477 123.737 116.296 123.893 116.144C124.049 115.993 124.234 115.876 124.438 115.799C124.641 115.723 124.858 115.689 125.075 115.699C125.298 115.69 125.521 115.729 125.727 115.815C125.933 115.9 126.118 116.029 126.27 116.193L125.978 116.47C125.84 116.32 125.667 116.207 125.474 116.14C125.281 116.074 125.074 116.057 124.873 116.092C124.672 116.126 124.482 116.21 124.322 116.336C124.161 116.462 124.035 116.626 123.954 116.814C123.874 117.001 123.841 117.206 123.86 117.409C123.879 117.613 123.948 117.808 124.061 117.978C124.175 118.147 124.329 118.286 124.509 118.38C124.69 118.475 124.892 118.523 125.096 118.52C125.262 118.522 125.426 118.49 125.578 118.424C125.73 118.358 125.867 118.261 125.978 118.138L126.27 118.423C126.118 118.588 125.931 118.717 125.724 118.802C125.516 118.887 125.292 118.926 125.068 118.916C124.852 118.927 124.636 118.893 124.434 118.817C124.231 118.74 124.046 118.624 123.891 118.473C123.735 118.322 123.612 118.142 123.529 117.942C123.446 117.742 123.404 117.528 123.408 117.311Z" fill="#1A2E35"/>
<path d="M126.528 117.721C126.524 117.476 126.593 117.235 126.726 117.029C126.859 116.823 127.05 116.661 127.275 116.564C127.5 116.467 127.749 116.439 127.99 116.484C128.232 116.529 128.454 116.644 128.629 116.816C128.804 116.987 128.925 117.207 128.975 117.447C129.025 117.687 129.003 117.936 128.911 118.164C128.819 118.391 128.662 118.586 128.459 118.724C128.256 118.861 128.017 118.936 127.772 118.937C127.609 118.945 127.446 118.919 127.293 118.861C127.141 118.802 127.002 118.714 126.885 118.6C126.768 118.486 126.676 118.349 126.615 118.197C126.553 118.046 126.524 117.884 126.528 117.721ZM128.571 117.721C128.564 117.563 128.511 117.41 128.418 117.282C128.325 117.154 128.196 117.056 128.048 117.001C127.9 116.945 127.739 116.935 127.585 116.97C127.43 117.006 127.29 117.086 127.181 117.2C127.072 117.315 126.999 117.459 126.972 117.615C126.944 117.771 126.963 117.931 127.026 118.076C127.089 118.222 127.193 118.345 127.326 118.431C127.458 118.518 127.613 118.563 127.772 118.562C127.881 118.564 127.989 118.543 128.09 118.501C128.191 118.459 128.281 118.397 128.357 118.318C128.432 118.238 128.49 118.145 128.527 118.042C128.563 117.939 128.579 117.83 128.571 117.721Z" fill="#1A2E35"/>
<path d="M131.857 117.54V118.93H131.427V117.61C131.427 117.144 131.197 116.915 130.787 116.915C130.683 116.904 130.577 116.918 130.479 116.954C130.38 116.99 130.291 117.048 130.218 117.124C130.145 117.199 130.09 117.29 130.058 117.39C130.025 117.49 130.015 117.596 130.03 117.7V118.93H129.599V116.547H130.016V116.908C130.117 116.78 130.248 116.679 130.397 116.612C130.545 116.546 130.708 116.516 130.87 116.526C131.005 116.514 131.141 116.533 131.267 116.581C131.394 116.628 131.509 116.703 131.603 116.8C131.697 116.897 131.769 117.014 131.813 117.142C131.857 117.27 131.872 117.406 131.857 117.54Z" fill="#1A2E35"/>
<path d="M133.504 115.546C133.677 115.54 133.847 115.588 133.991 115.685L133.866 116.018C133.77 115.944 133.653 115.902 133.532 115.9C133.275 115.9 133.143 116.046 133.143 116.324V116.525H133.838V116.88H133.143V118.909H132.712V116.88H132.309V116.525H132.712V116.317C132.699 116.211 132.711 116.103 132.747 116.002C132.782 115.901 132.84 115.81 132.917 115.735C132.994 115.661 133.087 115.605 133.189 115.572C133.29 115.539 133.399 115.53 133.504 115.546ZM134.526 115.789C134.527 115.752 134.535 115.715 134.55 115.681C134.565 115.646 134.587 115.615 134.614 115.59C134.641 115.564 134.673 115.544 134.708 115.53C134.743 115.517 134.78 115.51 134.818 115.511C134.855 115.509 134.892 115.515 134.927 115.527C134.961 115.54 134.994 115.56 135.021 115.585C135.048 115.61 135.07 115.641 135.085 115.675C135.1 115.709 135.108 115.745 135.109 115.782C135.109 115.859 135.079 115.934 135.024 115.988C134.969 116.043 134.895 116.074 134.818 116.074C134.74 116.074 134.666 116.043 134.611 115.988C134.556 115.934 134.526 115.859 134.526 115.782V115.789ZM134.602 116.525H135.033V118.909H134.602V116.525Z" fill="#1A2E35"/>
<path d="M137.125 116.505V116.921H137.02C136.915 116.912 136.809 116.926 136.71 116.964C136.611 117.001 136.522 117.061 136.45 117.138C136.377 117.215 136.324 117.307 136.292 117.409C136.261 117.509 136.254 117.616 136.27 117.721V118.909H135.839V116.525H136.256V116.929C136.347 116.784 136.476 116.668 136.63 116.593C136.783 116.518 136.955 116.487 137.125 116.505Z" fill="#1A2E35"/>
<path d="M141.62 117.54V118.93H141.189V117.61C141.189 117.144 140.96 116.915 140.571 116.915C140.472 116.914 140.373 116.934 140.282 116.975C140.192 117.015 140.11 117.075 140.045 117.149C139.979 117.224 139.93 117.311 139.901 117.407C139.872 117.502 139.863 117.601 139.876 117.7V118.93H139.445V117.61C139.445 117.144 139.223 116.915 138.834 116.915C138.734 116.914 138.636 116.934 138.545 116.975C138.454 117.015 138.373 117.075 138.308 117.149C138.242 117.224 138.193 117.311 138.164 117.407C138.134 117.502 138.126 117.601 138.139 117.7V118.93H137.708V116.547H138.118V116.901C138.215 116.776 138.341 116.676 138.485 116.611C138.629 116.546 138.787 116.516 138.945 116.526C139.11 116.516 139.274 116.551 139.42 116.628C139.566 116.705 139.688 116.822 139.772 116.964C139.876 116.821 140.013 116.707 140.172 116.631C140.331 116.554 140.506 116.518 140.682 116.526C140.813 116.522 140.943 116.546 141.064 116.597C141.184 116.648 141.293 116.724 141.382 116.82C141.471 116.916 141.538 117.03 141.579 117.154C141.62 117.279 141.634 117.41 141.62 117.54Z" fill="#1A2E35"/>
<path d="M146.22 116.859C146.22 117.554 145.727 117.957 144.907 117.957H144.129V118.909H143.684V115.762H144.907C145.727 115.762 146.22 116.178 146.22 116.859ZM145.769 116.859C145.769 116.408 145.47 116.165 144.893 116.165H144.129V117.554H144.893C145.463 117.568 145.769 117.311 145.769 116.859Z" fill="#1A2E35"/>
<path d="M148.68 117.471V118.91H148.242V118.597C148.152 118.715 148.033 118.808 147.897 118.868C147.761 118.927 147.612 118.951 147.464 118.937C146.922 118.937 146.582 118.645 146.582 118.242C146.582 117.839 146.832 117.548 147.541 117.548H148.235V117.457C148.235 117.096 148.027 116.887 147.596 116.887C147.324 116.883 147.058 116.974 146.846 117.144L146.665 116.818C146.949 116.61 147.293 116.502 147.645 116.512C148.312 116.505 148.68 116.818 148.68 117.471ZM148.249 118.166V117.832H147.554C147.131 117.832 147.005 117.999 147.005 118.201C147.005 118.402 147.207 118.59 147.534 118.59C147.68 118.605 147.827 118.574 147.955 118.5C148.082 118.427 148.183 118.314 148.242 118.18L148.249 118.166Z" fill="#1A2E35"/>
<path d="M149.181 118.659L149.354 118.318C149.606 118.476 149.898 118.56 150.195 118.562C150.591 118.562 150.758 118.444 150.758 118.242C150.758 117.707 149.257 118.165 149.257 117.22C149.257 116.79 149.639 116.526 150.243 116.526C150.547 116.522 150.846 116.596 151.112 116.741L150.932 117.081C150.723 116.953 150.482 116.887 150.237 116.894C149.862 116.894 149.674 117.033 149.674 117.22C149.674 117.783 151.182 117.325 151.182 118.249C151.182 118.68 150.786 118.944 150.153 118.944C149.808 118.948 149.469 118.849 149.181 118.659Z" fill="#1A2E35"/>
<path d="M151.425 118.659L151.605 118.318C151.855 118.476 152.144 118.561 152.439 118.562C152.842 118.562 153.009 118.444 153.009 118.242C153.009 117.707 151.501 118.165 151.501 117.22C151.501 116.79 151.883 116.526 152.495 116.526C152.798 116.522 153.097 116.596 153.363 116.741L153.176 117.081C152.968 116.951 152.726 116.886 152.481 116.894C152.099 116.894 151.918 117.033 151.918 117.22C151.918 117.783 153.426 117.325 153.426 118.249C153.426 118.68 153.03 118.944 152.397 118.944C152.052 118.946 151.714 118.847 151.425 118.659Z" fill="#1A2E35"/>
<path d="M157.533 116.525L156.643 118.909H156.233L155.538 117.102L154.843 118.909H154.426L153.544 116.525H153.954L154.649 118.422L155.343 116.525H155.705L156.4 118.429L157.094 116.525H157.533Z" fill="#1A2E35"/>
<path d="M157.686 117.721C157.682 117.475 157.751 117.234 157.884 117.028C158.017 116.822 158.209 116.66 158.435 116.563C158.66 116.467 158.91 116.439 159.151 116.485C159.392 116.53 159.614 116.646 159.789 116.818C159.964 116.99 160.085 117.211 160.134 117.451C160.183 117.692 160.16 117.941 160.067 118.169C159.974 118.396 159.816 118.59 159.612 118.727C159.408 118.864 159.168 118.937 158.923 118.937C158.76 118.945 158.597 118.919 158.445 118.861C158.293 118.802 158.155 118.714 158.038 118.6C157.922 118.485 157.831 118.348 157.77 118.197C157.71 118.046 157.681 117.884 157.686 117.721ZM159.722 117.721C159.715 117.563 159.662 117.41 159.569 117.282C159.476 117.154 159.347 117.056 159.199 117.001C159.051 116.945 158.89 116.935 158.736 116.97C158.581 117.006 158.441 117.086 158.332 117.2C158.223 117.315 158.15 117.459 158.123 117.615C158.095 117.771 158.114 117.931 158.177 118.077C158.24 118.222 158.344 118.345 158.477 118.431C158.609 118.518 158.764 118.563 158.923 118.562C159.032 118.564 159.14 118.543 159.241 118.501C159.342 118.459 159.432 118.397 159.508 118.318C159.583 118.238 159.641 118.145 159.678 118.042C159.714 117.939 159.729 117.83 159.722 117.721Z" fill="#1A2E35"/>
<path d="M162.035 116.505V116.921H161.938C161.833 116.912 161.726 116.926 161.628 116.964C161.529 117.001 161.44 117.061 161.368 117.138C161.295 117.215 161.241 117.307 161.21 117.409C161.179 117.509 161.171 117.616 161.187 117.721V118.909H160.75V116.525H161.167V116.929C161.258 116.784 161.387 116.668 161.54 116.593C161.694 116.518 161.865 116.487 162.035 116.505Z" fill="#1A2E35"/>
<path d="M164.787 115.574V118.909H164.37V118.534C164.272 118.665 164.144 118.77 163.996 118.84C163.848 118.91 163.686 118.944 163.522 118.937C163.2 118.937 162.89 118.809 162.662 118.581C162.434 118.353 162.306 118.044 162.306 117.721C162.306 117.399 162.434 117.089 162.662 116.861C162.89 116.633 163.2 116.505 163.522 116.505C163.681 116.499 163.84 116.53 163.985 116.597C164.13 116.663 164.257 116.762 164.356 116.887V115.574H164.787ZM164.356 117.721C164.348 117.565 164.294 117.415 164.202 117.289C164.109 117.163 163.981 117.067 163.835 117.013C163.688 116.959 163.529 116.949 163.377 116.984C163.225 117.02 163.086 117.099 162.979 117.212C162.871 117.326 162.799 117.468 162.771 117.621C162.744 117.775 162.762 117.934 162.823 118.077C162.885 118.221 162.987 118.343 163.118 118.429C163.248 118.516 163.401 118.562 163.557 118.562C163.666 118.564 163.775 118.543 163.875 118.502C163.976 118.46 164.067 118.397 164.142 118.318C164.217 118.238 164.275 118.145 164.312 118.042C164.349 117.939 164.364 117.83 164.356 117.721Z" fill="#1A2E35"/>
</svg>
