<svg width="170" height="170" viewBox="0 0 170 170" fill="none" xmlns="http://www.w3.org/2000/svg">
<circle cx="85" cy="85" r="85" fill="#FDF8F1"/>
<path d="M60.7939 132V134.256" stroke="#691D1C" stroke-width="3" stroke-linecap="round"/>
<path d="M60.7939 139.332V141.587" stroke="#691D1C" stroke-width="3" stroke-linecap="round"/>
<path d="M56 136.794H58.2558" stroke="#691D1C" stroke-width="3" stroke-linecap="round"/>
<path d="M63.3315 136.794H65.5874" stroke="#691D1C" stroke-width="3" stroke-linecap="round"/>
<path d="M122.794 41.0001V43.2559" stroke="#691D1C" stroke-width="3" stroke-linecap="round"/>
<path d="M122.794 48.3315V50.5874" stroke="#691D1C" stroke-width="3" stroke-linecap="round"/>
<path d="M118 45.7937H120.256" stroke="#691D1C" stroke-width="3" stroke-linecap="round"/>
<path d="M125.332 45.7937H127.587" stroke="#691D1C" stroke-width="3" stroke-linecap="round"/>
<circle cx="107" cy="129" r="21" fill="#FFDD9D"/>
<rect x="48" y="67" width="80" height="53" rx="10" fill="#FFDD9D"/>
<path d="M65 47.9091V67H72.8333V47.9091C72.8333 39.4742 79.8475 32.6364 88.5 32.6364C97.1525 32.6364 104.167 39.4742 104.167 47.9091C104.167 50.0178 105.876 51.7273 107.985 51.7273H108.182C110.291 51.7273 112 50.0178 112 47.9091C112 35.2568 101.479 25 88.5 25C75.5213 25 65 35.2567 65 47.9091Z" fill="#FFDD9D"/>
<rect x="43" y="62" width="80" height="53" rx="10" stroke="#691D1C" stroke-width="3"/>
<path d="M60 42.9091V62H67.8333V42.9091C67.8333 34.4742 74.8475 27.6364 83.5 27.6364C92.1525 27.6364 99.1667 34.4742 99.1667 42.9091C99.1667 45.0178 100.876 46.7273 102.985 46.7273H103.182C105.291 46.7273 107 45.0178 107 42.9091C107 30.2568 96.4787 20 83.5 20C70.5213 20 60 30.2567 60 42.9091Z" stroke="#691D1C" stroke-width="3"/>
<path d="M66 90.3964L70.5333 85.8559L71.5407 84.8468L77.5852 90.9009L94.4593 74L100 79.5495L77.5852 102L66 90.3964Z" fill="#FDF8F1" stroke="#691D1C" stroke-width="3" stroke-linecap="round"/>
<ellipse cx="101.5" cy="114.5" rx="17.5" ry="9.5" fill="#FFDD9D"/>
<circle cx="102" cy="125" r="21" stroke="#691D1C" stroke-width="3"/>
<path d="M102 122C104.761 122 107 119.761 107 117C107 114.239 104.761 112 102 112C99.2386 112 97 114.239 97 117C97 119.761 99.2386 122 102 122Z" fill="#FDF8F1" stroke="#6A1C1A" stroke-width="3"/>
<path d="M104.633 122H98.3694C97.7956 122 97.2275 122.121 96.6974 122.357C96.1672 122.592 95.6855 122.937 95.2798 123.373C94.8741 123.808 94.5522 124.325 94.3326 124.893C94.113 125.462 94 126.072 94 126.687V137H101.5H109V126.687C109 125.444 108.54 124.253 107.721 123.374C106.902 122.495 105.791 122.001 104.633 122Z" fill="#FDF8F1" stroke="#6A1C1A" stroke-width="3"/>
</svg>
