<svg width="170" height="170" viewBox="0 0 170 170" fill="none" xmlns="http://www.w3.org/2000/svg">
<circle cx="85" cy="85" r="85" fill="#FDF8F1"/>
<path d="M53.125 46.125C53.125 40.6022 57.6022 36.125 63.125 36.125H120.688C126.21 36.125 130.688 40.6022 130.688 46.125V126.438H53.125V46.125Z" fill="#FFDD9D"/>
<path d="M53.125 126.438H130.688C123.986 128.046 123.986 137.579 130.688 139.188H63.125C57.6022 139.188 53.125 134.71 53.125 129.187V126.438Z" fill="#FFDD9D"/>
<path d="M46.75 120.062H124.312V120.062C117.611 121.671 117.611 131.204 124.312 132.812V132.812H56.75C51.2272 132.812 46.75 128.335 46.75 122.812V120.062Z" stroke="#691D1C" stroke-width="3"/>
<path d="M46.75 39.75C46.75 34.2272 51.2272 29.75 56.75 29.75H114.312C119.835 29.75 124.312 34.2272 124.312 39.75V120.062H46.75V39.75Z" stroke="#691D1C" stroke-width="3"/>
<path d="M75.4375 79.5439L84.2208 70.7568L86.1727 68.8041L97.8838 80.5203L130.577 47.8125L141.312 58.5524L97.8838 102L75.4375 79.5439Z" fill="#FDF8F1" stroke="#691D1C" stroke-width="3" stroke-linecap="round"/>
<path d="M60.5625 143.438V134.184V126.438H72.25V143.438L66.4062 139.349L60.5625 143.438Z" fill="#FFDD9D" stroke="#691D1C" stroke-width="3" stroke-linecap="round"/>
<path d="M32.4189 105.188V107.443" stroke="#691D1C" stroke-width="3" stroke-linecap="round"/>
<path d="M32.4189 112.519V114.775" stroke="#691D1C" stroke-width="3" stroke-linecap="round"/>
<path d="M27.625 109.981H29.8808" stroke="#691D1C" stroke-width="3" stroke-linecap="round"/>
<path d="M34.9565 109.981H37.2124" stroke="#691D1C" stroke-width="3" stroke-linecap="round"/>
<path d="M146.106 75.4375V77.6934" stroke="#691D1C" stroke-width="3" stroke-linecap="round"/>
<path d="M146.106 82.769V85.0249" stroke="#691D1C" stroke-width="3" stroke-linecap="round"/>
<path d="M141.312 80.2312H143.568" stroke="#691D1C" stroke-width="3" stroke-linecap="round"/>
<path d="M148.644 80.2312H150.9" stroke="#691D1C" stroke-width="3" stroke-linecap="round"/>
</svg>
