<svg width="170" height="170" viewBox="0 0 170 170" fill="none" xmlns="http://www.w3.org/2000/svg">
<circle cx="85" cy="85" r="85" fill="#FDF8F1"/>
<rect x="33.8782" y="85.1878" width="56.1431" height="35.9776" rx="10" fill="#FFDD9D"/>
<rect x="29.75" y="81.0045" width="56.1431" height="35.9776" rx="10" stroke="#691D1C" stroke-width="3"/>
<path d="M73.5087 132.879L55.3447 114.472H73.5087V132.879Z" fill="#FFDD9D"/>
<path d="M78.4623 137.063L60.2983 118.655H78.4623V137.063Z" fill="#FFDD9D"/>
<path d="M57.8218 116.982L73.5088 132.879V116.982" stroke="#691D1C" stroke-width="3" stroke-linecap="round"/>
<path d="M52.3313 94.3633C52.3313 93.6211 52.5695 92.8711 53.0461 92.1133C53.5227 91.3477 54.218 90.7148 55.132 90.2148C56.0461 89.7148 57.1125 89.4648 58.3313 89.4648C59.4641 89.4648 60.4641 89.6758 61.3313 90.0977C62.1985 90.5117 62.8664 91.0781 63.3352 91.7969C63.8117 92.5156 64.05 93.2969 64.05 94.1406C64.05 94.8047 63.9133 95.3867 63.6399 95.8867C63.3742 96.3867 63.0539 96.8203 62.6789 97.1875C62.3117 97.5469 61.6477 98.1562 60.6867 99.0156C60.4211 99.2578 60.2063 99.4727 60.0422 99.6602C59.886 99.8398 59.7688 100.008 59.6906 100.164C59.6125 100.312 59.55 100.465 59.5031 100.621C59.4641 100.77 59.4016 101.035 59.3156 101.418C59.1672 102.23 58.7024 102.637 57.9211 102.637C57.5149 102.637 57.1711 102.504 56.8899 102.238C56.6164 101.973 56.4797 101.578 56.4797 101.055C56.4797 100.398 56.5813 99.832 56.7844 99.3555C56.9875 98.8711 57.257 98.4492 57.593 98.0898C57.9289 97.7227 58.382 97.2891 58.9524 96.7891C59.4524 96.3516 59.8117 96.0234 60.0305 95.8047C60.257 95.5781 60.4445 95.3281 60.593 95.0547C60.7492 94.7812 60.8274 94.4844 60.8274 94.1641C60.8274 93.5391 60.593 93.0117 60.1242 92.582C59.6633 92.1523 59.0656 91.9375 58.3313 91.9375C57.4719 91.9375 56.8391 92.1562 56.4328 92.5938C56.0266 93.0234 55.6828 93.6602 55.4016 94.5039C55.136 95.3867 54.632 95.8281 53.8899 95.8281C53.4524 95.8281 53.0813 95.6758 52.7766 95.3711C52.4797 95.0586 52.3313 94.7227 52.3313 94.3633ZM58.05 107.207C57.5735 107.207 57.1555 107.055 56.7961 106.75C56.4445 106.438 56.2688 106.004 56.2688 105.449C56.2688 104.957 56.4406 104.543 56.7844 104.207C57.1281 103.871 57.55 103.703 58.05 103.703C58.5422 103.703 58.9563 103.871 59.2922 104.207C59.6281 104.543 59.7961 104.957 59.7961 105.449C59.7961 105.996 59.6203 106.426 59.2688 106.738C58.9172 107.051 58.511 107.207 58.05 107.207Z" fill="#691D1C"/>
<rect width="56.1431" height="35.9776" rx="10" transform="matrix(-1 0 0 1 140.203 36.0583)" fill="#FFDD9D"/>
<rect width="56.1431" height="35.9776" rx="10" transform="matrix(-1 0 0 1 135.831 31.875)" stroke="#691D1C" stroke-width="3"/>
<path d="M92.0719 83.7496L110.236 65.3425H92.0719V83.7496Z" fill="#FFDD9D"/>
<path d="M95.6183 87.933L113.782 69.5259H95.6183V87.933Z" fill="#FFDD9D"/>
<path d="M107.759 67.8527L92.072 83.7497V67.8527" stroke="#691D1C" stroke-width="3" stroke-linecap="round"/>
<path d="M102.598 45.4883C102.598 44.7461 102.836 43.9961 103.312 43.2383C103.789 42.4727 104.484 41.8398 105.398 41.3398C106.312 40.8398 107.379 40.5898 108.598 40.5898C109.73 40.5898 110.73 40.8008 111.598 41.2227C112.465 41.6367 113.133 42.2031 113.602 42.9219C114.078 43.6406 114.316 44.4219 114.316 45.2656C114.316 45.9297 114.18 46.5117 113.906 47.0117C113.641 47.5117 113.32 47.9453 112.945 48.3125C112.578 48.6719 111.914 49.2812 110.953 50.1406C110.687 50.3828 110.473 50.5977 110.309 50.7852C110.152 50.9648 110.035 51.1328 109.957 51.2891C109.879 51.4375 109.816 51.5898 109.769 51.7461C109.73 51.8945 109.668 52.1602 109.582 52.543C109.434 53.3555 108.969 53.7617 108.187 53.7617C107.781 53.7617 107.437 53.6289 107.156 53.3633C106.883 53.0977 106.746 52.7031 106.746 52.1797C106.746 51.5234 106.848 50.957 107.051 50.4805C107.254 49.9961 107.523 49.5742 107.859 49.2148C108.195 48.8477 108.648 48.4141 109.219 47.9141C109.719 47.4766 110.078 47.1484 110.297 46.9297C110.523 46.7031 110.711 46.4531 110.859 46.1797C111.016 45.9062 111.094 45.6094 111.094 45.2891C111.094 44.6641 110.859 44.1367 110.391 43.707C109.93 43.2773 109.332 43.0625 108.598 43.0625C107.738 43.0625 107.105 43.2812 106.699 43.7188C106.293 44.1484 105.949 44.7852 105.668 45.6289C105.402 46.5117 104.898 46.9531 104.156 46.9531C103.719 46.9531 103.348 46.8008 103.043 46.4961C102.746 46.1836 102.598 45.8477 102.598 45.4883ZM108.316 58.332C107.84 58.332 107.422 58.1797 107.062 57.875C106.711 57.5625 106.535 57.1289 106.535 56.5742C106.535 56.082 106.707 55.668 107.051 55.332C107.394 54.9961 107.816 54.8281 108.316 54.8281C108.809 54.8281 109.223 54.9961 109.559 55.332C109.894 55.668 110.062 56.082 110.062 56.5742C110.062 57.1211 109.887 57.5508 109.535 57.8633C109.184 58.1758 108.777 58.332 108.316 58.332Z" fill="#691D1C"/>
<path d="M74.375 110.356L83.1583 101.569L85.1102 99.6166L96.8213 111.333L129.515 78.625L140.25 89.3649L96.8213 132.812L74.375 110.356Z" fill="#FDF8F1" stroke="#691D1C" stroke-width="3" stroke-linecap="round"/>
<path d="M57.9189 58.4375V60.6934" stroke="#691D1C" stroke-width="3" stroke-linecap="round"/>
<path d="M57.9189 65.769V68.0249" stroke="#691D1C" stroke-width="3" stroke-linecap="round"/>
<path d="M53.125 63.2312H55.3808" stroke="#691D1C" stroke-width="3" stroke-linecap="round"/>
<path d="M60.4565 63.2312H62.7124" stroke="#691D1C" stroke-width="3" stroke-linecap="round"/>
<path d="M128.044 115.813V118.068" stroke="#691D1C" stroke-width="3" stroke-linecap="round"/>
<path d="M128.044 123.144V125.4" stroke="#691D1C" stroke-width="3" stroke-linecap="round"/>
<path d="M123.25 120.606H125.506" stroke="#691D1C" stroke-width="3" stroke-linecap="round"/>
<path d="M130.582 120.606H132.837" stroke="#691D1C" stroke-width="3" stroke-linecap="round"/>
</svg>
