<svg width="160" height="160" viewBox="0 0 160 160" fill="none" xmlns="http://www.w3.org/2000/svg">
<circle cx="80" cy="80" r="80" fill="#FDF8F1"/>
<path d="M115.484 53.275L107.743 71.7656L103.405 53.2092H114.279C114.681 53.2088 115.083 53.2307 115.484 53.275Z" stroke="#691D1C" stroke-width="3" stroke-linecap="round"/>
<path d="M117.959 74.1523H113.364C113.007 74.1523 112.718 74.5986 112.718 75.149V75.1504C112.718 75.7009 113.007 76.1471 113.364 76.1471H117.959C118.316 76.1471 118.605 75.7009 118.605 75.1504V75.149C118.605 74.5986 118.316 74.1523 117.959 74.1523Z" stroke="#691D1C" stroke-width="3" stroke-linecap="round"/>
<path d="M74.1667 37.635C74.166 39.0315 73.8945 40.4141 73.3677 41.7036C72.8409 42.993 72.0691 44.1638 71.0967 45.1489C70.1291 46.1388 68.979 46.9245 67.7124 47.4609C66.4459 47.9972 65.0877 48.2736 63.7159 48.2743H50.0876L41.9979 55.6655L45.1287 48.2743H44.4465C38.6988 48.2743 34 43.4864 34 37.6393C34.0006 36.2428 34.2722 34.8601 34.799 33.5707C35.3258 32.2812 36.0976 31.1104 37.07 30.1254C38.0375 29.1354 39.1876 28.3497 40.4542 27.8134C41.7208 27.2771 43.0789 27.0007 44.4507 27H63.7202C69.4636 26.9913 74.1667 31.7836 74.1667 37.635Z" stroke="#6A1C1A" stroke-width="3"/>
<path d="M46.8193 37.1925L50.8353 42.6357L61.3477 33.0806" stroke="#6A1C1A" stroke-width="3" stroke-linecap="round"/>
<path d="M103.402 53.2074C109.515 53.2074 114.472 48.1696 114.472 41.9553C114.472 35.7409 109.515 30.7031 103.402 30.7031C97.2876 30.7031 92.3313 35.7409 92.3313 41.9553C92.3313 48.1696 97.2876 53.2074 103.402 53.2074Z" stroke="#691D1C" stroke-width="3" stroke-linecap="round"/>
<path d="M114.373 33.9316H92.4297V38.4894H114.373V33.9316Z" fill="#BE4E1E" stroke="#691D1C" stroke-width="3" stroke-linecap="round"/>
<path d="M119.222 27H87.5815V33.9315H119.222V27Z" fill="#BE4E1E" stroke="#691D1C" stroke-width="3" stroke-linecap="round"/>
<path d="M87.5817 45.8009C88.53 45.8009 89.2987 45.0196 89.2987 44.0557C89.2987 43.0919 88.53 42.3105 87.5817 42.3105C86.6335 42.3105 85.8647 43.0919 85.8647 44.0557C85.8647 45.0196 86.6335 45.8009 87.5817 45.8009Z" fill="#BE4E1E" stroke="#691D1C" stroke-width="3" stroke-linecap="round"/>
<path d="M87.5815 33.9316V42.3117" stroke="#691D1C" stroke-width="3" stroke-linecap="round"/>
<path d="M125.474 64.9287V132H81.3176V64.9287C81.3176 58.8526 85.6959 53.846 91.317 53.2123L99.0577 71.6646L103.395 81.9998L107.734 71.6597L115.475 53.2075C121.093 53.8373 125.474 58.8439 125.474 64.9287Z" fill="#FFDD9D" stroke="#691D1C" stroke-width="3" stroke-linecap="round"/>
<path d="M103.402 53.2075L99.0636 71.7639L91.3203 53.2752C91.7214 53.2302 92.1244 53.2076 92.5278 53.2075H103.402Z" stroke="#691D1C" stroke-width="3" stroke-linecap="round"/>
<path d="M107.74 71.7656L103.402 82.1242L99.0637 71.7656L103.402 53.2073L107.74 71.7656Z" fill="#BE4E1E" stroke="#691D1C" stroke-width="3" stroke-linecap="round"/>
<path d="M53.6763 94.3995C60.4788 94.3995 65.9932 88.7944 65.9932 81.8802C65.9932 74.9659 60.4788 69.3608 53.6763 69.3608C46.8739 69.3608 41.3594 74.9659 41.3594 81.8802C41.3594 88.7944 46.8739 94.3995 53.6763 94.3995Z" stroke="#6A1C1A" stroke-width="3"/>
<path d="M61.6481 94.3994H45.3616C43.8696 94.3993 42.3922 94.7021 41.0138 95.2905C39.6353 95.8789 38.3828 96.7415 37.3278 97.8289C36.2728 98.9163 35.4359 100.207 34.8649 101.628C34.2939 103.049 34 104.572 34 106.11V131.875H53.5018H73.0036V106.11C73.0036 103.005 71.8074 100.027 69.678 97.8311C67.5485 95.6352 64.6602 94.4008 61.6481 94.3994Z" fill="#FFDD9D" stroke="#6A1C1A" stroke-width="3"/>
</svg>
