<svg width="319" height="345" viewBox="0 0 319 345" fill="none" xmlns="http://www.w3.org/2000/svg">
<path d="M299.521 273.885H19.4419V339.956H299.521V273.885Z" fill="#F6AB74"/>
<path d="M318.972 270.152H0V277.746H318.972V270.152Z" fill="#F6AB74"/>
<path d="M319 277.719C319 277.847 247.884 277.957 160.184 277.957C72.4845 277.957 1.35059 277.847 1.35059 277.719C1.35059 277.59 72.4477 277.48 160.184 277.48C247.921 277.48 319 277.59 319 277.719Z" fill="black"/>
<path d="M299.76 318.605C299.76 318.733 237.162 318.843 159.964 318.843C82.7661 318.843 20.1587 318.733 20.1587 318.605C20.1587 318.476 82.7385 318.366 159.964 318.366C237.19 318.366 299.76 318.476 299.76 318.605Z" fill="black"/>
<path d="M299.227 297.043C299.227 297.171 236.629 297.281 159.431 297.281C82.2331 297.281 19.6257 297.171 19.6257 297.043C19.6257 296.914 82.2056 296.804 159.431 296.804C236.657 296.804 299.227 296.914 299.227 297.043Z" fill="black"/>
<path d="M168.233 38.1713L171.973 31.7055C170.576 27.6976 170.236 23.2678 171.21 18.8197C174.031 6.02558 186.71 -2.06358 199.528 0.761209C212.345 3.57682 220.449 16.2333 217.619 29.0274C214.798 41.8215 202.119 49.9107 189.302 47.0859C183.954 45.9119 179.424 43.0138 176.172 39.1159L168.224 38.1713H168.233Z" fill="#DEE29F"/>
<path d="M168.233 38.1713C168.233 38.1713 168.417 38.1805 168.766 38.2172C169.134 38.2538 169.639 38.3089 170.3 38.3823C171.651 38.529 173.627 38.7491 176.19 39.0334L176.089 39.171C176.089 39.171 176.089 39.171 176.089 39.1618C176.071 39.116 176.089 39.0609 176.135 39.0334C176.172 39.0151 176.218 39.0334 176.245 39.0609C178.23 41.3996 181.308 44.1235 185.709 45.8478C187.896 46.7282 190.404 47.2785 193.096 47.4252C195.788 47.572 198.673 47.2693 201.531 46.3522C204.388 45.4442 207.209 43.9309 209.699 41.8124C212.18 39.6938 214.32 36.9699 215.791 33.8057C218.767 27.5142 218.804 19.3149 215.028 12.6015C213.144 9.21725 210.498 6.31909 207.356 4.31056C204.241 2.26534 200.722 1.0272 197.212 0.586975C193.702 0.15592 190.211 0.577803 187.078 1.605C183.936 2.63219 181.152 4.27387 178.882 6.26406C174.306 10.2628 171.853 15.5088 171.118 20.1312C170.337 24.7994 171.081 28.8257 172.065 31.6871C172.074 31.7147 172.065 31.7422 172.065 31.7605C170.843 33.8241 169.896 35.4199 169.253 36.5113C168.931 37.0432 168.693 37.4559 168.518 37.7494C168.353 38.0337 168.252 38.1805 168.252 38.1805C168.252 38.1805 168.316 38.0429 168.472 37.7678C168.637 37.4743 168.867 37.0616 169.161 36.5296C169.795 35.4107 170.714 33.7782 171.908 31.6596V31.733C170.879 28.8624 170.089 24.7994 170.843 20.0762C171.559 15.3896 174.022 10.061 178.652 5.97975C180.959 3.95287 183.779 2.27451 186.968 1.2198C190.147 0.165091 193.693 -0.265964 197.277 0.165091C200.851 0.605318 204.434 1.8618 207.604 3.9437C210.801 5.98892 213.503 8.94211 215.423 12.3905C219.264 19.2232 219.227 27.5784 216.186 33.9708C214.679 37.19 212.501 39.9597 209.974 42.0967C207.448 44.2428 204.572 45.7744 201.668 46.6915C198.756 47.6087 195.825 47.9021 193.105 47.7462C190.376 47.5812 187.84 47.0125 185.635 46.1046C181.188 44.3345 178.101 41.5555 176.135 39.171L176.291 39.0701V39.0793C176.309 39.1251 176.291 39.1802 176.245 39.2077C176.227 39.2077 176.208 39.2168 176.19 39.2077C173.608 38.8683 171.614 38.6115 170.245 38.4373C169.602 38.3547 169.097 38.2814 168.748 38.2355C168.417 38.1897 168.261 38.1621 168.261 38.1621L168.233 38.1713Z" fill="#691D1B"/>
<path d="M188.098 23.974C188.107 25.2213 187.106 26.2393 185.856 26.2485C184.607 26.2576 183.587 25.258 183.577 24.0106C183.568 22.7633 184.57 21.7453 185.819 21.7361C187.069 21.727 188.089 22.7267 188.098 23.974Z" fill="#691D1B"/>
<path d="M197.13 23.9006C197.139 25.1479 196.137 26.1659 194.888 26.1751C193.638 26.1843 192.618 25.1846 192.609 23.9373C192.6 22.69 193.602 21.672 194.851 21.6628C196.101 21.6536 197.121 22.6533 197.13 23.9006Z" fill="#691D1B"/>
<path d="M206.134 22.6991C206.768 23.7722 206.41 25.1571 205.335 25.7807C204.26 26.4136 202.872 26.0559 202.248 24.9828C201.614 23.9098 201.972 22.5249 203.047 21.9012C204.122 21.2684 205.509 21.6261 206.134 22.6991Z" fill="#691D1B"/>
<path d="M235.214 331.289V317.302L246.809 316.569L246.084 331.628L240.571 333.783L235.214 331.289Z" fill="#EDC4A9"/>
<path d="M239.827 331.536L235.214 331.289C235.214 331.289 228.112 337.03 227.432 340.176C227.184 341.295 227.432 342.588 227.432 342.588L238.21 342.9C240.378 342.9 246.075 342.9 246.075 342.9V331.628L239.827 331.536Z" fill="#EAA370"/>
<path d="M227.891 282.58C227.919 283.231 233.441 323.456 233.441 323.456L247.425 323.493L247.067 281.745L227.882 282.58H227.891Z" fill="#8E8A42"/>
<path d="M246.056 341.377H227.312V343.331H246.056V341.377Z" fill="#691D1B"/>
<path d="M236.124 332.16C236.243 332.197 235.747 334.114 235.361 336.526C234.966 338.929 234.819 340.91 234.7 340.91C234.59 340.91 234.544 338.901 234.948 336.461C235.343 334.022 236.023 332.133 236.133 332.169L236.124 332.16Z" fill="#2F2421"/>
<path d="M245.284 340.332C245.211 340.359 245.073 339.552 244.31 338.562C243.925 338.076 243.382 337.562 242.666 337.177C241.958 336.792 241.058 336.581 240.13 336.617C239.193 336.663 238.329 336.957 237.649 337.406C236.969 337.856 236.482 338.415 236.142 338.938C235.481 339.992 235.416 340.809 235.334 340.79C235.306 340.79 235.297 340.589 235.361 340.231C235.426 339.873 235.573 339.36 235.885 338.782C236.207 338.213 236.703 337.58 237.429 337.085C238.145 336.581 239.092 336.241 240.102 336.195C241.113 336.15 242.087 336.397 242.85 336.828C243.612 337.259 244.173 337.837 244.549 338.378C244.917 338.919 245.119 339.415 245.211 339.772C245.303 340.121 245.312 340.323 245.284 340.332Z" fill="#2F2421"/>
<path d="M265.636 332.261L266.463 318.302L254.932 316.89L254.766 331.967L260.141 334.444L265.636 332.261Z" fill="#EDC4A9"/>
<path d="M261.014 332.243L265.636 332.261C265.636 332.261 272.389 338.406 272.885 341.588C273.06 342.726 272.747 343.991 272.747 343.991L261.97 343.67C259.801 343.542 254.114 343.221 254.114 343.221L254.776 331.967L261.023 332.243H261.014Z" fill="#EAA370"/>
<path d="M272.628 285.79C272.591 286.441 266.454 326.584 266.454 326.584L252.469 326.4L253.462 284.661L272.628 285.79Z" fill="#8E8A42"/>
<path d="M254.121 343.632L272.833 344.735L272.948 342.785L254.237 341.682L254.121 343.632Z" fill="#691D1B"/>
<path d="M264.68 333.086C264.791 333.059 265.36 334.985 265.608 337.443C265.866 339.901 265.7 341.9 265.59 341.9C265.47 341.9 265.443 339.91 265.186 337.489C264.938 335.067 264.561 333.114 264.68 333.086Z" fill="#2F2421"/>
<path d="M255.051 340.708C255.051 340.708 255.051 340.497 255.161 340.158C255.272 339.818 255.501 339.332 255.906 338.809C256.31 338.296 256.898 337.745 257.688 337.36C258.478 336.966 259.461 336.782 260.463 336.883C261.474 336.993 262.392 337.379 263.082 337.929C263.771 338.47 264.239 339.13 264.524 339.717C264.809 340.313 264.928 340.827 264.965 341.194C265.002 341.552 264.983 341.753 264.956 341.753C264.873 341.772 264.864 340.946 264.258 339.855C263.954 339.314 263.495 338.727 262.843 338.241C262.2 337.755 261.345 337.406 260.417 337.305C259.489 337.214 258.579 337.369 257.844 337.709C257.109 338.048 256.53 338.534 256.126 338.993C255.308 339.937 255.115 340.735 255.042 340.708H255.051Z" fill="#2F2421"/>
<path d="M220.936 171.459C220.936 171.459 223.499 168.992 224.29 166.607C225.08 164.223 226.623 160.756 226.77 160.013C226.917 159.27 226.146 158.922 225.236 159.637C224.326 160.353 223.904 161.701 223.435 162.921C222.976 164.14 222.287 163.994 222.287 163.994C222.287 163.994 223.509 158.298 223.793 156.482C224.097 154.547 224.501 153.034 223.619 152.722C222.627 152.373 222.342 153.3 221.983 154.685C221.634 156.024 220.743 159.298 220.743 159.298L221.359 154.098C221.359 154.098 221.937 151.31 220.734 151.291C219.53 151.273 219.512 154.134 219.512 154.134L218.52 159.353C218.52 159.353 219.356 152.786 218.878 152.539C218.4 152.291 217.656 152.144 217.343 154.199C217.04 156.262 216.094 160.463 216.094 160.463L215.919 160.444L216.342 156.005C216.36 155.767 216.415 155.363 216.296 155.152C216.057 154.749 215.524 154.474 215.184 155.776C214.789 157.271 214.027 162.37 213.815 164.186C213.604 166.002 213.907 170.615 213.907 170.615L211.059 174.862L218.134 178.714L220.936 171.441V171.459Z" fill="#F6AB74"/>
<path d="M255.419 192.691H239.67V206.338H255.419V192.691Z" fill="#F6AB74"/>
<path d="M230.583 203.32L223.656 202.33L212.731 197.075L220.853 176.457L210.719 171.441C210.719 171.441 202.119 190.306 200.621 195.717C199.124 201.129 198.756 203.825 202.257 206.668C205.757 209.511 231.263 221.737 231.263 221.737L230.583 203.311V203.32Z" fill="#2F2421"/>
<path d="M263.734 202.834L258.469 201.303L243.649 200.716C243.649 200.716 241.6 200.532 236.574 201.688C232.779 202.568 227.799 203.421 227.799 203.421C227.799 203.421 226.734 215.913 226.734 218.453L231.171 239.795H267.63L269.853 224.405C269.853 224.405 272.058 207.365 272.04 207.319C272.04 207.319 267.804 203.972 263.743 202.825L263.734 202.834Z" fill="#2F2421"/>
<path d="M212.869 197.157C212.896 197.249 211.325 197.506 209.837 198.68C208.33 199.835 207.696 201.294 207.622 201.239C207.595 201.229 207.705 200.853 208.027 200.303C208.348 199.753 208.9 199.056 209.671 198.46C210.443 197.863 211.252 197.497 211.867 197.322C212.474 197.148 212.869 197.13 212.878 197.157H212.869Z" fill="#2F2421"/>
<path d="M272.031 207.328C272.031 207.328 276.046 210.171 276.864 216.243C277.691 222.314 279.436 239.804 279.436 239.804H269.752L267.896 232.522L272.022 207.328H272.031Z" fill="#2F2421"/>
<path d="M271.535 214.381C271.535 214.381 271.535 214.473 271.535 214.638C271.516 214.84 271.489 215.078 271.461 215.372C271.397 216.014 271.277 216.94 271.121 218.077C270.809 220.361 270.322 223.498 269.743 226.955C269.173 230.394 268.668 233.513 268.282 235.824C268.107 236.924 267.96 237.832 267.85 238.511C267.804 238.805 267.758 239.043 267.721 239.245C267.694 239.41 267.666 239.502 267.657 239.492C267.648 239.492 267.657 239.401 267.657 239.236C267.676 239.034 267.703 238.795 267.731 238.502C267.795 237.86 267.914 236.943 268.071 235.796C268.383 233.513 268.87 230.376 269.449 226.909C270.019 223.47 270.524 220.352 270.91 218.041C271.084 216.94 271.231 216.032 271.342 215.353C271.388 215.06 271.433 214.821 271.47 214.62C271.498 214.455 271.525 214.363 271.535 214.363V214.381Z" fill="#691D1B"/>
<path d="M225.08 207.879C225.144 207.879 225.337 208.988 225.668 210.795C225.999 212.602 226.504 215.087 227.055 217.839C227.606 220.59 228.066 223.094 228.323 224.919C228.452 225.827 228.544 226.57 228.59 227.084C228.635 227.597 228.645 227.881 228.617 227.881C228.553 227.881 228.36 226.772 228.029 224.965C227.698 223.158 227.193 220.673 226.642 217.921C226.09 215.17 225.631 212.666 225.374 210.841C225.245 209.933 225.153 209.19 225.107 208.677C225.061 208.163 225.052 207.879 225.08 207.879Z" fill="#691D1B"/>
<path d="M229.104 283.974C223.261 283.974 218.428 279.351 218.271 273.518C217.968 262.568 217.968 245.619 217.977 238.263C217.977 236.273 219.604 234.659 221.597 234.659H277.948C279.978 234.659 281.614 236.328 281.568 238.355C281.384 245.986 280.952 263.687 280.686 274.665C280.557 279.847 276.312 283.974 271.121 283.974H229.104Z" fill="#691D1B"/>
<path d="M216.287 343.936L213.071 343.542L219.705 289.357C220.091 286.175 222.755 283.781 225.907 283.781H273.427C276.57 283.781 279.234 286.166 279.629 289.339C281.219 302.151 285.647 343.147 285.693 343.56L282.468 343.909C282.422 343.496 278.003 302.518 276.413 289.733C276.221 288.183 274.943 287.019 273.427 287.019H225.907C224.391 287.019 223.114 288.192 222.921 289.752L216.287 343.936Z" fill="#4F1010"/>
<path d="M216.287 343.936C216.287 343.936 216.314 343.643 216.379 343.083C216.443 342.515 216.544 341.689 216.664 340.607C216.921 338.424 217.307 335.223 217.794 331.096C218.786 322.851 220.219 310.919 221.993 296.135C222.213 294.291 222.443 292.393 222.682 290.458C222.746 289.981 222.764 289.476 222.948 288.981C223.123 288.495 223.426 288.055 223.803 287.688C224.189 287.34 224.666 287.074 225.19 286.945C225.723 286.808 226.237 286.872 226.743 286.853C230.822 286.853 235.076 286.853 239.477 286.844C248.28 286.844 257.707 286.835 267.63 286.826C268.87 286.826 270.12 286.826 271.378 286.826C272.003 286.826 272.637 286.826 273.271 286.826C273.923 286.798 274.622 286.982 275.182 287.367C275.743 287.743 276.184 288.303 276.413 288.935C276.662 289.587 276.643 290.238 276.735 290.871C276.882 292.145 277.02 293.429 277.167 294.723C277.746 299.886 278.334 305.16 278.94 310.534C280.144 321.283 281.393 332.435 282.67 343.881L282.441 343.698C283.461 343.588 284.563 343.468 285.666 343.349L285.482 343.578C285.317 342.102 285.142 340.506 284.958 338.901C283.782 328.372 282.634 318.073 281.513 308.067C280.952 303.068 280.41 298.143 279.868 293.301C279.73 292.09 279.602 290.889 279.464 289.687C279.363 288.504 278.959 287.376 278.26 286.45C277.58 285.514 276.625 284.79 275.55 284.377C275.017 284.175 274.447 284.056 273.878 284.001C273.317 283.964 272.711 283.983 272.132 283.983C262.732 283.983 253.728 283.974 245.183 283.964C240.911 283.964 236.758 283.964 232.724 283.955C230.712 283.955 228.727 283.955 226.78 283.955C226.293 283.955 225.806 283.955 225.337 283.983C224.868 284.047 224.409 284.12 223.968 284.285C223.086 284.579 222.287 285.093 221.634 285.744C220.982 286.386 220.486 287.174 220.183 288.027C219.861 288.871 219.815 289.779 219.696 290.678C219.475 292.476 219.255 294.236 219.043 295.961C218.621 299.409 218.207 302.711 217.821 305.866C217.04 312.157 216.333 317.834 215.717 322.805C214.468 332.729 213.576 339.855 213.108 343.56L213.071 343.514C214.155 343.661 214.955 343.762 215.487 343.835C216.02 343.909 216.278 343.945 216.278 343.945C216.278 343.945 216.03 343.927 215.506 343.872C214.964 343.808 214.155 343.716 213.053 343.597H213.016V343.551C213.457 339.846 214.311 332.71 215.487 322.778C216.085 317.798 216.774 312.13 217.536 305.829C217.922 302.683 218.317 299.372 218.74 295.924C218.951 294.2 219.163 292.439 219.383 290.641C219.503 289.752 219.549 288.816 219.889 287.917C220.21 287.028 220.715 286.193 221.405 285.514C222.084 284.827 222.921 284.285 223.858 283.974C224.317 283.799 224.813 283.717 225.3 283.653C225.806 283.616 226.283 283.625 226.77 283.625C228.718 283.625 230.703 283.625 232.715 283.625C236.749 283.625 240.902 283.625 245.174 283.616C253.719 283.616 262.732 283.607 272.123 283.598C272.711 283.598 273.289 283.579 273.905 283.616C274.511 283.671 275.118 283.799 275.688 284.019C276.827 284.46 277.847 285.23 278.573 286.23C279.308 287.211 279.749 288.44 279.85 289.66C279.988 290.861 280.116 292.063 280.254 293.273C280.796 298.116 281.347 303.041 281.908 308.039C283.029 318.045 284.177 328.345 285.353 338.874C285.528 340.479 285.712 342.074 285.877 343.551L285.905 343.762L285.693 343.78C284.591 343.899 283.488 344.019 282.468 344.129L282.257 344.147L282.229 343.936C280.952 332.49 279.712 321.347 278.508 310.589C277.911 305.215 277.323 299.941 276.744 294.778C276.597 293.484 276.459 292.2 276.312 290.926C276.221 290.293 276.23 289.632 276.009 289.082C275.798 288.523 275.421 288.027 274.925 287.697C274.429 287.358 273.85 287.193 273.234 287.22C272.6 287.22 271.976 287.22 271.342 287.22C270.083 287.22 268.833 287.22 267.593 287.22C257.67 287.22 248.243 287.211 239.441 287.202C235.04 287.202 230.786 287.202 226.706 287.193C226.192 287.202 225.686 287.147 225.227 287.266C224.758 287.376 224.336 287.615 223.977 287.927C223.637 288.248 223.352 288.651 223.196 289.091C223.022 289.522 223.003 290.008 222.939 290.504C222.7 292.448 222.461 294.346 222.231 296.199C220.385 311.002 218.896 322.952 217.867 331.215C217.353 335.324 216.948 338.507 216.673 340.68C216.535 341.753 216.434 342.57 216.36 343.129C216.287 343.679 216.241 343.954 216.241 343.954L216.287 343.936Z" fill="#2F2421"/>
<path d="M275.026 274.16C275.026 274.16 275.045 274.243 275.045 274.399C275.035 274.555 275.109 274.811 275.008 275.114C274.925 275.747 274.42 276.627 273.427 277.315C271.443 278.728 267.997 279.599 263.78 280.14C255.299 281.186 243.456 281.057 230.501 279.837C228.884 279.663 227.23 279.388 225.806 278.563C224.354 277.755 223.408 276.288 222.976 274.802C222.507 273.307 222.369 271.785 222.222 270.327C222.085 268.859 221.956 267.428 221.827 266.025C221.35 260.422 221.065 255.359 220.909 251.103C220.752 246.848 220.716 243.409 220.716 241.033C220.716 239.841 220.716 238.924 220.743 238.291C220.743 237.998 220.762 237.759 220.762 237.576C220.762 237.42 220.771 237.337 220.78 237.337C220.789 237.337 220.798 237.42 220.798 237.576C220.798 237.759 220.807 237.998 220.817 238.291C220.826 238.942 220.853 239.859 220.872 241.033C220.927 243.409 221 246.848 221.203 251.094C221.395 255.341 221.708 260.394 222.213 265.989C222.351 267.392 222.489 268.823 222.627 270.281C222.774 271.739 222.912 273.243 223.371 274.674C223.803 276.105 224.676 277.444 226.017 278.196C227.349 278.966 228.948 279.241 230.547 279.406C243.465 280.626 255.29 280.8 263.743 279.837C267.951 279.333 271.369 278.507 273.336 277.168C274.319 276.517 274.824 275.683 274.934 275.077C275.045 274.784 274.989 274.536 275.017 274.38C275.017 274.224 275.026 274.142 275.035 274.133L275.026 274.16Z" fill="#2F2421"/>
<path d="M254.169 164.681C256.089 163.04 260.215 163.838 261.051 165.177C262.595 164.608 264.515 165.525 265.039 167.075C266.472 167.58 267.914 168.093 269.348 168.598C270.083 168.854 270.855 169.139 271.369 169.716C271.884 170.294 272.04 171.285 271.479 171.826C272.986 172.422 273.308 174.825 272.012 175.797C272.564 176.549 272.288 177.76 271.461 178.191C272.499 179.805 273.262 181.603 273.694 183.474C273.877 184.253 273.997 185.115 273.62 185.831C273.253 186.546 272.196 186.931 271.608 186.39C271.976 187.05 271.902 187.931 271.433 188.518C272.178 188.628 272.26 189.811 271.672 190.297C271.094 190.774 270.248 190.728 269.495 190.618C268.741 190.508 267.942 190.37 267.271 190.719C267.271 190.948 267.345 191.104 267.455 191.223C268.613 192.425 268.751 194.277 267.62 195.497C267.519 195.607 267.418 195.717 267.336 195.809C266.821 196.369 265.682 196.8 264.965 197.066C263.164 197.735 262.172 197.442 260.242 197.478C260.61 198.762 257.192 201.073 254.013 197.983C241.186 203.651 238.862 197.203 238.862 197.203C235.334 199.514 232.081 197.763 231.732 196.772C230.868 196.891 230.005 196.387 229.462 195.699C228.92 195.011 228.626 194.167 228.351 193.342C226.614 192.636 225.447 190.737 225.613 188.876C224.519 187.775 223.913 186.197 224.005 184.648C222.323 183.895 221.643 181.52 222.682 179.998C223.325 177.907 224.317 175.926 225.603 174.165C224.446 173.761 224.198 172.101 224.832 171.056C225.456 170.001 226.633 169.423 227.735 168.9C226.816 169.029 226.182 167.818 226.504 166.947C226.825 166.085 227.708 165.562 228.553 165.195C229.793 164.645 231.107 164.25 232.439 164.012C233.055 162.508 235.278 160.976 236.831 160.463C243.088 158.408 247.315 158.225 254.16 164.663" fill="#2F2421"/>
<path d="M272.012 186.509C272.012 186.509 272.123 186.528 272.343 186.518C272.564 186.509 272.885 186.454 273.262 186.262C273.629 186.069 274.052 185.721 274.291 185.161C274.53 184.611 274.576 183.859 274.217 183.171C274.034 182.832 273.767 182.529 273.51 182.217C273.253 181.905 272.977 181.557 272.867 181.135C272.757 180.713 272.885 180.245 273.106 179.833C273.326 179.411 273.62 179.016 273.841 178.549C274.263 177.613 274.355 176.448 273.942 175.384C273.538 174.33 272.637 173.403 271.479 173L271.507 173.101C271.727 172.862 271.893 172.569 271.985 172.248C272.067 171.927 272.095 171.587 272.058 171.257C272.012 170.927 271.92 170.597 271.764 170.294C271.608 169.992 271.406 169.717 271.158 169.478C270.432 168.754 269.504 168.332 268.594 168.02C267.676 167.717 266.738 167.561 265.838 167.534L265.893 167.598C266.003 166.488 265.452 165.388 264.579 164.847C264.147 164.562 263.651 164.415 263.164 164.379C262.668 164.333 262.199 164.47 261.768 164.553C261.547 164.599 261.327 164.626 261.115 164.617C260.904 164.617 260.693 164.553 260.5 164.47C260.114 164.305 259.792 164.039 259.48 163.792C259.167 163.544 258.846 163.324 258.497 163.177C258.157 163.031 257.808 162.939 257.477 162.902C256.806 162.82 256.19 162.939 255.704 163.141C255.217 163.342 254.849 163.618 254.583 163.874C254.316 164.131 254.16 164.36 254.05 164.526C253.949 164.691 253.912 164.782 253.912 164.782C253.912 164.782 253.958 164.7 254.068 164.544C254.178 164.388 254.344 164.159 254.61 163.911C254.877 163.663 255.244 163.397 255.722 163.205C256.2 163.012 256.806 162.902 257.468 162.985C257.798 163.021 258.138 163.113 258.469 163.26C258.8 163.407 259.112 163.627 259.425 163.874C259.737 164.113 260.059 164.388 260.463 164.571C260.665 164.663 260.886 164.718 261.106 164.727C261.336 164.736 261.566 164.709 261.786 164.663C262.236 164.571 262.686 164.452 263.155 164.498C263.624 164.535 264.101 164.681 264.515 164.957C265.351 165.479 265.884 166.534 265.774 167.598V167.662H265.829C266.72 167.69 267.648 167.846 268.548 168.148C269.449 168.451 270.368 168.873 271.066 169.579C271.296 169.808 271.498 170.074 271.645 170.368C271.792 170.652 271.884 170.973 271.92 171.285C271.957 171.606 271.939 171.927 271.856 172.22C271.773 172.523 271.617 172.798 271.406 173.018L271.342 173.092L271.433 173.119C272.554 173.513 273.427 174.403 273.822 175.43C274.217 176.457 274.144 177.595 273.731 178.503C273.519 178.961 273.225 179.356 273.005 179.787C272.784 180.209 272.637 180.704 272.766 181.153C272.876 181.603 273.17 181.951 273.436 182.272C273.703 182.584 273.969 182.887 274.144 183.208C274.493 183.868 274.456 184.602 274.236 185.134C274.015 185.684 273.602 186.023 273.244 186.216C272.876 186.408 272.554 186.473 272.343 186.491C272.132 186.509 272.012 186.491 272.012 186.5V186.509Z" fill="#2F2421"/>
<path d="M229.233 168.377C229.233 168.377 229.242 168.35 229.251 168.304C229.26 168.249 229.279 168.167 229.306 168.075C229.352 167.864 229.426 167.57 229.508 167.194C229.6 166.818 229.72 166.351 229.894 165.828C230.069 165.305 230.308 164.718 230.675 164.122C231.043 163.535 231.548 162.948 232.228 162.489C232.568 162.269 232.954 162.086 233.376 161.976C233.799 161.866 234.249 161.838 234.709 161.774C235.168 161.719 235.655 161.609 236.087 161.371C236.519 161.132 236.905 160.811 237.281 160.463C237.649 160.123 238.007 159.756 238.412 159.435C238.816 159.114 239.266 158.848 239.771 158.683C240.782 158.353 241.839 158.353 242.84 158.445C243.842 158.546 244.797 158.711 245.688 158.94C247.48 159.39 249.015 160.096 250.181 160.857C251.348 161.618 252.138 162.453 252.625 163.058C252.745 163.214 252.855 163.342 252.947 163.471C253.03 163.59 253.103 163.7 253.158 163.783C253.213 163.865 253.259 163.929 253.287 163.975C253.315 164.021 253.333 164.039 253.333 164.039C253.333 164.039 253.324 164.012 253.296 163.966C253.269 163.911 253.223 163.847 253.177 163.764C253.122 163.673 253.057 163.563 252.975 163.443C252.892 163.315 252.782 163.177 252.662 163.021C252.184 162.407 251.403 161.554 250.227 160.774C249.06 159.995 247.517 159.27 245.716 158.812C244.816 158.582 243.851 158.408 242.849 158.307C241.848 158.216 240.764 158.206 239.735 158.546C239.22 158.711 238.742 158.986 238.338 159.316C237.925 159.646 237.566 160.013 237.199 160.353C236.831 160.692 236.454 161.013 236.032 161.242C235.609 161.471 235.15 161.582 234.7 161.637C234.24 161.701 233.79 161.728 233.358 161.838C232.926 161.958 232.531 162.141 232.182 162.37C231.484 162.838 230.978 163.443 230.611 164.039C230.243 164.645 230.014 165.241 229.839 165.764C229.664 166.296 229.554 166.763 229.472 167.149C229.389 167.534 229.334 167.827 229.297 168.029C229.279 168.121 229.269 168.203 229.26 168.258C229.26 168.313 229.251 168.341 229.251 168.341L229.233 168.377Z" fill="#2F2421"/>
<path d="M233.083 191.315C233.083 191.315 232.936 191.278 232.688 191.141C232.449 190.994 232.099 190.747 231.787 190.306C231.475 189.866 231.181 189.242 231.107 188.472C231.034 187.711 231.19 186.757 231.842 185.987L231.888 186.216C230.859 185.748 229.949 184.648 229.83 183.263C229.711 181.887 230.556 180.346 232.044 179.732L231.962 180.025C231.19 178.98 230.868 177.531 231.171 176.155C231.456 174.761 232.495 173.513 233.854 172.908C234.507 172.606 235.233 172.459 235.94 172.477L235.729 172.734C235.297 170.643 236.298 168.497 237.925 167.497C239.551 166.479 241.545 166.552 242.951 167.295L242.712 167.387C243.263 166.048 244.338 165.14 245.395 164.709C246.47 164.269 247.517 164.305 248.298 164.498C249.088 164.691 249.639 165.021 249.979 165.278C250.154 165.406 250.273 165.516 250.347 165.589C250.42 165.672 250.457 165.709 250.457 165.718C250.42 165.782 249.796 165.03 248.252 164.681C247.499 164.526 246.497 164.516 245.505 164.957C244.513 165.378 243.52 166.259 243.033 167.506L242.96 167.68L242.794 167.589C241.49 166.91 239.624 166.864 238.136 167.818C236.657 168.744 235.738 170.735 236.142 172.633L236.197 172.89H235.931C235.288 172.871 234.635 173 234.038 173.284C232.779 173.844 231.842 174.972 231.585 176.237C231.3 177.494 231.585 178.833 232.283 179.787L232.43 179.988L232.191 180.08C230.877 180.603 230.087 181.997 230.179 183.226C230.262 184.473 231.08 185.51 232.008 185.941L232.182 186.023L232.054 186.17C231.447 186.849 231.273 187.729 231.328 188.445C231.374 189.178 231.631 189.774 231.907 190.205C232.495 191.077 233.101 191.26 233.073 191.306L233.083 191.315Z" fill="#691D1B"/>
<path d="M245.578 192.122C245.578 192.122 245.358 191.985 245.055 191.618C244.751 191.26 244.347 190.682 244.072 189.848C243.796 189.022 243.64 187.922 243.934 186.739C244.219 185.565 244.944 184.317 246.139 183.437L246.093 183.703C245.101 182.254 244.669 180.199 245.192 178.237C245.882 175.678 248.096 173.963 250.154 173.532L250.025 173.789C249.538 172.596 249.511 171.367 249.759 170.368C250.007 169.35 250.512 168.561 251.008 168.02C251.514 167.47 252.001 167.139 252.35 166.947C252.699 166.754 252.901 166.699 252.91 166.708C252.947 166.763 252.111 167.057 251.174 168.157C250.724 168.708 250.264 169.469 250.062 170.432C249.851 171.386 249.897 172.541 250.375 173.642L250.466 173.853L250.246 173.899C248.316 174.33 246.249 175.962 245.615 178.347C245.119 180.181 245.523 182.116 246.433 183.483L246.534 183.639L246.378 183.749C245.257 184.556 244.558 185.711 244.264 186.812C243.961 187.922 244.072 188.967 244.31 189.765C244.816 191.388 245.661 192.067 245.588 192.113L245.578 192.122Z" fill="#691D1B"/>
<path d="M262.99 191.187C262.944 191.141 263.596 190.838 264.028 189.802C264.23 189.297 264.331 188.591 264.074 187.876C263.826 187.17 263.219 186.445 262.337 186.142L262.107 186.06L262.264 185.867C262.99 184.959 263.55 183.74 263.679 182.364C263.835 180.997 263.522 179.493 262.686 178.218C261.777 176.815 260.371 175.843 258.965 175.449L258.754 175.394L258.827 175.192C259.314 173.853 259.259 172.459 258.892 171.34C258.533 170.203 257.863 169.35 257.219 168.763C255.887 167.598 254.775 167.433 254.812 167.359C254.812 167.341 255.079 167.369 255.547 167.534C256.007 167.699 256.677 167.992 257.376 168.579C258.065 169.157 258.8 170.038 259.213 171.23C259.627 172.413 259.709 173.89 259.204 175.329L259.066 175.073C260.573 175.485 262.062 176.513 263.035 177.998C263.927 179.346 264.248 180.97 264.074 182.419C263.918 183.868 263.311 185.152 262.521 186.097L262.447 185.821C263.44 186.188 264.083 187.005 264.331 187.793C264.588 188.6 264.441 189.362 264.202 189.884C263.963 190.426 263.633 190.756 263.385 190.948C263.137 191.141 262.99 191.205 262.98 191.187H262.99Z" fill="#691D1B"/>
<path d="M136.874 249.15L137.113 262.705C137.113 262.705 123.386 267.502 123.193 270.015L149.545 270.492L150.041 249.352L136.884 249.15H136.874Z" fill="#2F2421"/>
<path d="M145.281 261.715C145.787 261.861 146.127 262.439 146.007 262.953C145.879 263.466 145.291 263.815 144.785 263.677C144.28 263.54 143.848 262.852 144.032 262.357C144.216 261.861 144.932 261.485 145.392 261.742" fill="#ECDDDB"/>
<path d="M149.545 270.492L149.508 268.355L124.259 268.694C124.259 268.694 123.074 269.18 123.194 270.006L149.545 270.483V270.492Z" fill="#EAA370"/>
<path d="M136.691 262.558C136.691 262.687 137.334 262.76 137.959 263.182C138.593 263.595 138.914 264.154 139.034 264.099C139.153 264.081 138.978 263.301 138.207 262.806C137.444 262.302 136.663 262.439 136.691 262.558Z" fill="white"/>
<path d="M133.907 263.65C133.879 263.769 134.43 263.998 134.853 264.558C135.294 265.099 135.395 265.686 135.524 265.686C135.643 265.704 135.744 264.961 135.202 264.283C134.66 263.604 133.907 263.54 133.907 263.659V263.65Z" fill="white"/>
<path d="M132.271 266.924C132.391 266.952 132.575 266.319 132.262 265.603C131.95 264.888 131.353 264.604 131.288 264.705C131.215 264.805 131.601 265.191 131.849 265.778C132.115 266.355 132.143 266.896 132.271 266.915V266.924Z" fill="white"/>
<path d="M136.976 259.468C137.031 259.587 137.619 259.422 138.345 259.486C139.07 259.532 139.631 259.789 139.704 259.679C139.778 259.587 139.236 259.101 138.381 259.037C137.527 258.972 136.911 259.367 136.976 259.468Z" fill="white"/>
<path d="M169.024 248.315L170.448 264.659L167.838 277.911C167.655 278.865 168.316 279.782 169.281 279.901C169.823 279.966 170.356 279.773 170.733 279.379C173.085 276.82 181.676 267.373 181.501 266.19C181.299 264.815 181.143 248.856 181.143 248.856L169.024 248.334V248.315Z" fill="#2F2421"/>
<path d="M169.29 279.901L181.437 265.081L181.483 265.778C181.519 266.374 181.345 266.97 180.986 267.456C180.022 268.74 177.284 272.243 170.788 279.379C170.411 279.791 169.841 279.993 169.29 279.911V279.901Z" fill="#EAA370"/>
<g opacity="0.6">
<path d="M177.725 260.009C177.33 260.321 177.238 260.944 177.532 261.348C177.826 261.751 178.469 261.852 178.864 261.55C179.259 261.247 179.397 260.495 179.057 260.128C178.717 259.761 177.964 259.679 177.651 260.073" fill="white"/>
</g>
<path d="M172.579 272.509C172.488 272.564 172.065 271.73 171.063 271.326C170.071 270.895 169.18 271.189 169.152 271.088C169.134 271.051 169.336 270.904 169.713 270.831C170.089 270.748 170.65 270.767 171.201 270.996C171.752 271.225 172.157 271.611 172.368 271.932C172.579 272.253 172.625 272.5 172.579 272.509Z" fill="white"/>
<path d="M171.55 274.775C171.477 274.848 170.916 274.353 170.053 274.16C169.189 273.949 168.472 274.16 168.436 274.059C168.381 273.977 169.152 273.582 170.135 273.812C171.119 274.032 171.633 274.72 171.55 274.775Z" fill="white"/>
<path d="M174.573 269.556C174.5 269.639 173.645 268.868 172.322 268.456C171.008 268.025 169.86 268.153 169.85 268.043C169.814 267.96 171.026 267.649 172.432 268.107C173.847 268.547 174.647 269.501 174.573 269.547V269.556Z" fill="white"/>
<path d="M174.555 264.558C174.518 264.659 173.59 264.338 172.405 264.374C171.219 264.393 170.31 264.75 170.264 264.65C170.218 264.576 171.128 264.035 172.396 264.017C173.663 263.98 174.601 264.484 174.555 264.567V264.558Z" fill="white"/>
<path d="M174.251 259.743C174.206 259.844 173.259 259.358 172.019 259.486C170.778 259.596 169.942 260.256 169.878 260.174C169.85 260.137 170.016 259.926 170.383 259.679C170.742 259.44 171.32 259.193 171.982 259.128C172.653 259.064 173.259 259.193 173.663 259.358C174.068 259.523 174.27 259.706 174.251 259.743Z" fill="white"/>
<path d="M171.991 258.578C171.991 258.578 171.918 258.358 171.927 257.964C171.936 257.569 172.019 256.973 172.313 256.313C172.469 256.001 172.634 255.597 173.076 255.35C173.296 255.23 173.636 255.249 173.847 255.451C174.049 255.652 174.132 255.918 174.151 256.175C174.196 257.211 173.37 258.275 172.212 258.505C171.045 258.706 169.933 258.11 169.409 257.239C169.29 257.01 169.207 256.735 169.318 256.45C169.428 256.166 169.749 256.028 169.988 256.056C170.484 256.102 170.806 256.359 171.109 256.551C171.706 256.973 172.083 257.422 172.313 257.753C172.543 258.083 172.616 258.294 172.598 258.303C172.543 258.349 172.129 257.523 170.962 256.762C170.668 256.588 170.328 256.368 169.979 256.359C169.805 256.359 169.667 256.432 169.612 256.569C169.556 256.707 169.612 256.909 169.703 257.083C170.145 257.789 171.155 258.34 172.138 258.156C173.121 257.973 173.847 257.046 173.811 256.203C173.801 256.001 173.737 255.799 173.618 255.689C173.507 255.579 173.342 255.561 173.195 255.625C172.883 255.772 172.69 256.129 172.533 256.432C171.918 257.679 172.046 258.606 171.973 258.596L171.991 258.578Z" fill="white"/>
<path d="M124.066 135.947C124.066 135.947 122.073 143.67 122.789 153.08C123.074 156.721 135.377 257.432 135.377 257.432H151.998L147.331 162.774L148.69 163.067C148.69 163.067 157.759 203.44 158.503 209.979C159.165 215.858 166.818 258.532 166.818 258.532L182.015 258.706L177.164 202.247L171.513 148.072L169.391 132.306L124.076 135.938L124.066 135.947Z" fill="#EAA370"/>
<path d="M149.949 153.116C149.949 153.116 149.719 153.281 149.26 153.511C148.801 153.731 148.121 154.061 147.202 154.226C146.742 154.309 146.219 154.336 145.667 154.235C145.125 154.134 144.537 153.905 144.069 153.465C143.6 153.025 143.288 152.41 143.095 151.768C142.902 151.126 142.782 150.457 142.654 149.769C142.121 147.036 141.762 144.541 141.551 142.734C141.45 141.826 141.377 141.093 141.34 140.588C141.303 140.084 141.294 139.799 141.321 139.799C141.349 139.799 141.395 140.075 141.478 140.579C141.57 141.157 141.671 141.863 141.799 142.707C142.075 144.504 142.47 146.99 142.994 149.714C143.26 151.062 143.444 152.428 144.289 153.236C145.134 154.024 146.301 154.107 147.156 153.978C148.038 153.85 148.727 153.557 149.196 153.382C149.673 153.199 149.931 153.098 149.94 153.116H149.949Z" fill="#2F2421"/>
<path d="M144.951 140.276C144.951 140.276 145.061 140.194 145.291 140.175C145.521 140.157 145.87 140.23 146.219 140.478C146.55 140.726 146.908 141.157 146.917 141.762C146.945 142.367 146.467 142.964 145.851 143.184C145.236 143.422 144.491 143.285 144.115 142.808C143.729 142.349 143.71 141.78 143.802 141.386C143.903 140.973 144.124 140.689 144.308 140.551C144.491 140.405 144.629 140.386 144.629 140.405C144.675 140.451 144.161 140.68 144.05 141.432C143.995 141.79 144.05 142.257 144.363 142.597C144.657 142.945 145.226 143.046 145.741 142.854C146.246 142.661 146.614 142.212 146.605 141.753C146.605 141.294 146.347 140.9 146.072 140.671C145.493 140.185 144.951 140.341 144.951 140.276Z" fill="#2F2421"/>
<path d="M171.284 147.109C171.284 147.109 171.082 147.164 170.714 147.201C170.347 147.237 169.814 147.247 169.152 147.219C167.838 147.164 166.01 146.843 164.145 146.063C162.279 145.275 160.782 144.193 159.817 143.294C159.33 142.844 158.972 142.459 158.742 142.166C158.512 141.881 158.393 141.716 158.411 141.698C158.457 141.652 158.99 142.267 159.982 143.101C160.975 143.936 162.463 144.963 164.282 145.733C166.111 146.495 167.875 146.843 169.17 146.962C170.466 147.091 171.275 147.045 171.275 147.1L171.284 147.109Z" fill="#2F2421"/>
<path d="M132.042 140.038C132.042 140.038 131.794 140.726 131.178 141.725C130.562 142.725 129.588 144.037 128.293 145.293C126.997 146.55 125.656 147.485 124.636 148.072C123.616 148.659 122.936 148.925 122.918 148.888C122.89 148.833 123.533 148.494 124.507 147.861C125.481 147.228 126.777 146.274 128.045 145.045C129.313 143.807 130.305 142.551 130.967 141.597C131.628 140.643 131.986 140.02 132.032 140.038H132.042Z" fill="#2F2421"/>
<path d="M143.214 24.6986L143.876 24.6619C150.555 24.2767 156.408 29.0825 157.327 35.695C158.181 41.849 159.045 48.645 159.201 51.9651C159.514 58.8345 152.696 60.2927 152.696 60.2927L152.944 63.0808C153.349 67.694 149.921 71.7569 145.3 72.133C140.733 72.509 136.718 69.1523 136.286 64.6033L133.842 39.116C132.813 32.0265 136.093 25.5148 143.223 24.6894L143.214 24.6986Z" fill="#F6AB74"/>
<path d="M152.752 60.2835C152.752 60.2835 148.378 60.7971 143.591 58.1649C143.591 58.1649 145.998 62.9799 152.825 61.971L152.761 60.2835H152.752Z" fill="#F6AB74"/>
<path d="M155.407 42.0691C155.453 42.5827 155.058 43.0505 154.515 43.1147C153.973 43.1789 153.505 42.8029 153.45 42.2893C153.404 41.7757 153.799 41.3079 154.341 41.2437C154.883 41.1795 155.361 41.5555 155.407 42.0691Z" fill="#2F2421"/>
<path d="M156.041 39.1343C155.93 39.2719 155.149 38.7583 154.093 38.8225C153.036 38.8684 152.292 39.4553 152.173 39.3361C152.108 39.2811 152.228 39.0426 152.549 38.7767C152.871 38.5107 153.422 38.2447 154.084 38.208C154.745 38.1713 155.306 38.3823 155.646 38.6116C155.986 38.8409 156.105 39.0701 156.05 39.1252L156.041 39.1343Z" fill="#2F2421"/>
<path d="M146.265 42.7203C146.311 43.2339 145.915 43.7016 145.373 43.7658C144.831 43.83 144.363 43.454 144.308 42.9404C144.262 42.4268 144.657 41.959 145.199 41.8948C145.741 41.8306 146.219 42.2067 146.265 42.7203Z" fill="#2F2421"/>
<path d="M145.668 39.923C145.557 40.0606 144.776 39.547 143.72 39.6112C142.663 39.6571 141.919 40.244 141.799 40.1248C141.744 40.0698 141.845 39.8313 142.176 39.5654C142.498 39.2994 143.049 39.0334 143.701 38.9967C144.363 38.96 144.923 39.171 145.263 39.4003C145.603 39.6296 145.723 39.8588 145.668 39.9139V39.923Z" fill="#2F2421"/>
<path d="M149.949 47.5261C149.949 47.4619 150.592 47.3151 151.649 47.1225C151.915 47.0767 152.173 47.0125 152.2 46.8291C152.255 46.6273 152.127 46.343 151.97 46.0403C151.676 45.4075 151.373 44.738 151.052 44.0318C149.774 41.1795 148.837 38.8224 148.948 38.7674C149.067 38.7215 150.188 40.9961 151.465 43.8484C151.777 44.5545 152.071 45.2241 152.347 45.8661C152.467 46.1687 152.66 46.5081 152.549 46.9116C152.485 47.1134 152.301 47.2785 152.127 47.3335C151.952 47.3977 151.805 47.4068 151.676 47.4252C150.611 47.5444 149.949 47.5903 149.94 47.5261H149.949Z" fill="#2F2421"/>
<path d="M145.704 35.7776C145.612 36.071 144.556 35.9977 143.324 36.2178C142.084 36.4104 141.11 36.8323 140.926 36.5846C140.844 36.4654 141.009 36.1903 141.395 35.8876C141.781 35.585 142.406 35.2915 143.141 35.1631C143.876 35.0347 144.565 35.1172 145.033 35.2731C145.502 35.429 145.741 35.64 145.704 35.7776Z" fill="#2F2421"/>
<path d="M155.48 36.0985C155.306 36.3462 154.562 36.1444 153.689 36.1811C152.816 36.1811 152.081 36.4379 151.897 36.1902C151.814 36.071 151.915 35.8234 152.228 35.5849C152.531 35.3373 153.055 35.1264 153.661 35.108C154.268 35.0897 154.8 35.2823 155.113 35.5116C155.434 35.7409 155.554 35.9793 155.48 36.0985Z" fill="#2F2421"/>
<path d="M156.482 32.5768C156.482 32.5768 154.424 28.3854 152.283 27.4958C149.701 26.4228 148.773 29.2384 146.338 28.7156C143.903 28.1837 141.441 27.1565 139.098 29.1467C136.534 31.3203 137.876 32.6685 137.885 35.7226C137.922 48.1131 135.864 51.7266 134.89 45.9486C134.78 45.3158 132.979 44.9123 132.565 42.2342C132.023 38.7583 131.646 34.5303 132.28 32.0081C132.823 29.8804 133.925 28.3671 135.974 26.6612C139.208 23.9557 143.839 23.6347 147.009 23.7722C150.179 23.9098 156.454 27.1748 156.482 32.5768Z" fill="#2F2421"/>
<path d="M135.322 45.7377C135.221 44.683 134.256 43.8943 133.199 44.0594C131.922 44.252 130.535 45.0682 130.774 47.7004C131.196 52.387 135.818 50.9929 135.818 50.8645C135.818 50.7728 135.515 47.7004 135.322 45.7377Z" fill="#F6AB74"/>
<path d="M134.642 49.1954C134.642 49.1954 134.568 49.2596 134.43 49.3329C134.302 49.4063 134.072 49.4705 133.824 49.3971C133.309 49.2596 132.822 48.5075 132.721 47.6729C132.675 47.251 132.721 46.8383 132.841 46.4806C132.951 46.123 133.153 45.8662 133.401 45.802C133.64 45.7194 133.833 45.857 133.907 45.9854C133.98 46.1138 133.962 46.2055 133.989 46.2147C134.008 46.2238 134.081 46.123 134.026 45.9395C133.999 45.8478 133.934 45.7469 133.815 45.6644C133.695 45.5819 133.521 45.5543 133.355 45.5819C132.997 45.6369 132.703 46.0037 132.565 46.3798C132.409 46.765 132.345 47.2327 132.4 47.7096C132.51 48.6543 133.08 49.4889 133.778 49.6264C134.118 49.6815 134.384 49.5622 134.513 49.4338C134.651 49.3054 134.66 49.1954 134.642 49.1954Z" fill="#F6AB74"/>
<path d="M157.483 27.4958C156.757 26.9547 155.765 26.8722 155.048 26.3311C153.744 25.3314 153.689 23.0569 152.154 22.4699C151.245 22.1214 150.225 22.5525 149.251 22.4516C147.68 22.2865 147.073 21.1034 144.694 21.1034C141.597 21.1034 140.605 23.3962 140.605 23.3962C140.605 23.3962 138.905 22.4791 137.04 23.7356C135.634 24.6802 135.542 26.5787 135.542 26.5787C135.542 26.5787 135.055 26.3311 133.567 27.505C132.62 28.2479 131.849 29.8621 131.509 31.0085C130.994 32.7235 131.748 34.5395 132.473 36.172C132.868 37.0616 133.365 38.0338 134.283 38.3456C135.404 38.7216 136.645 37.8503 137.077 36.7498C137.518 35.6492 138.207 34.5486 138.74 33.4939C139.668 31.6597 140.614 29.9538 139.833 28.7798C140.899 28.4405 142.075 28.4038 143.141 28.7615C144.216 29.1192 145.162 29.807 146.228 30.1831C147.303 30.5591 148.654 30.5407 149.379 29.6695C149.922 30.9718 151.879 31.3937 152.908 30.4307C153.744 31.8156 155.728 32.4484 157.116 31.6138C158.503 30.7792 158.76 28.4864 157.465 27.5142L157.483 27.4958Z" fill="#2F2421"/>
<path d="M132.005 35.0622C132.005 35.0622 132.235 35.4749 132.547 36.1352C132.712 36.4562 132.933 36.8414 133.319 37.0799C133.705 37.3275 134.238 37.3459 134.771 37.245C135.313 37.1441 135.8 36.924 136.176 36.6488C136.553 36.3737 136.856 36.0435 137.095 35.7684C137.573 35.1998 137.849 34.8329 137.876 34.8512C137.904 34.8696 137.692 35.2823 137.242 35.8876C137.012 36.1903 136.728 36.5388 136.323 36.8506C135.919 37.1624 135.395 37.4009 134.816 37.5109C134.247 37.621 133.622 37.5935 133.172 37.2817C132.722 36.979 132.51 36.5388 132.354 36.1994C132.078 35.4932 131.959 35.053 131.987 35.0438L132.005 35.0622Z" fill="#691D1B"/>
<path d="M132.179 38.6849C132.179 38.6849 132.483 38.9967 133.107 39.1985C133.42 39.2994 133.806 39.3452 134.228 39.2994C134.651 39.2443 135.101 39.0701 135.524 38.8041C136.369 38.263 136.911 37.4926 137.288 36.9423C137.665 36.3829 137.894 36.0343 137.931 36.0527C137.959 36.071 137.793 36.4562 137.463 37.0432C137.123 37.621 136.59 38.4464 135.68 39.0334C135.23 39.3177 134.734 39.5011 134.265 39.547C133.797 39.5928 133.374 39.5103 133.043 39.3819C132.382 39.1068 132.152 38.6849 132.179 38.6849Z" fill="#691D1B"/>
<path d="M146.954 49.2504C146.742 49.764 146.752 50.2776 146.687 50.8278C146.623 51.3781 146.853 51.7725 147.202 52.2127C147.56 52.6713 148.148 52.9006 148.727 52.9189C148.727 52.9189 148.736 52.9189 148.745 52.9189C149.83 52.9281 150.739 52.121 150.914 51.0571L151.098 49.8924C149.995 49.5897 147.046 49.3329 146.963 49.2595L146.954 49.2504Z" fill="#F6AB74"/>
<path d="M149.848 52.5796C149.848 52.5796 149.71 52.5796 149.471 52.6163C149.232 52.6438 148.893 52.6897 148.479 52.6163C148.075 52.5521 147.606 52.3412 147.266 51.9101C146.926 51.4974 146.752 50.8829 146.788 50.2593C146.807 49.9108 146.899 49.5898 147.037 49.3054L146.89 49.3788C147.946 49.5347 148.874 49.6631 149.536 49.7457C150.197 49.8282 150.592 49.8557 150.602 49.819C150.602 49.7824 150.216 49.6906 149.563 49.5622C148.911 49.4338 147.992 49.2688 146.935 49.1037L146.834 49.0853L146.788 49.177C146.623 49.498 146.522 49.8649 146.494 50.2409C146.449 50.9288 146.651 51.6075 147.055 52.0752C147.45 52.5429 147.992 52.7722 148.442 52.8089C148.893 52.8548 149.251 52.7722 149.49 52.708C149.729 52.6438 149.848 52.5796 149.839 52.5613L149.848 52.5796Z" fill="#2F2421"/>
<path d="M134.789 46.288C134.55 45.8111 133.888 45.536 133.457 45.8386C132.924 46.1413 132.823 46.5632 132.676 47.1593C132.575 47.5812 132.602 48.0489 132.832 48.4158C133.071 48.7826 133.539 49.0027 133.953 48.8743C134.394 48.7368 134.642 48.2782 134.789 47.838C134.954 47.3336 135.028 46.7649 134.789 46.288Z" fill="#691D1B"/>
<path d="M143.15 54.4322C141.698 54.4322 140.247 54.1295 138.924 53.5242C136.277 52.3136 134.21 49.929 133.392 47.1409L134.173 46.9116C134.927 49.4796 136.819 51.6716 139.254 52.7813C141.689 53.891 144.593 53.891 147.027 52.7813L147.367 53.515C146.044 54.1203 144.593 54.423 143.141 54.423L143.15 54.4322Z" fill="#691D1B"/>
<path d="M146.13 52.2059L147.77 51.8837C148.482 51.7439 149.173 52.2065 149.313 52.9174C149.453 53.6283 148.99 54.3175 148.278 54.4574L146.637 54.7796C145.925 54.9195 145.234 54.4569 145.094 53.7459C144.954 53.035 145.417 52.3458 146.13 52.2059Z" fill="#691D1B"/>
<path d="M134.706 47.0676C135.092 46.6641 135.45 46.2147 135.643 45.6827C135.836 45.1508 135.836 44.5363 135.533 44.0594C135.276 43.6467 134.835 43.3899 134.375 43.2065C133.98 43.0506 133.558 42.9405 133.135 42.9772C132.712 43.0139 132.29 43.1973 132.032 43.5366C131.895 43.7201 131.821 44.0044 131.968 44.1786C132.133 44.3804 132.455 44.3254 132.712 44.2612C133.061 44.1695 133.42 44.0961 133.778 44.1328C134.136 44.1695 134.504 44.3345 134.688 44.6464C134.908 44.9949 134.862 45.4626 134.669 45.8387C134.476 46.2147 134.173 46.499 133.879 46.7833" fill="#691D1B"/>
<path d="M118.939 71.9863C118.535 71.9863 112.71 74.3067 111.176 80.0205C109.641 85.7342 105.461 106.636 105.461 106.636L101.023 112.771C101.023 112.771 102.456 123.979 110.624 121.851C110.624 121.851 116.073 122.805 117.809 117.284C119.546 111.772 122.918 95.3183 122.918 95.3183L118.939 71.9955V71.9863Z" fill="#ECDDDB"/>
<path d="M135.937 62.4205L132.85 67.0796L118.939 71.9955L122.918 112.258L121.429 133.361C121.227 136.168 123.506 138.534 126.317 138.451L170.034 137.158C171.128 137.131 171.642 135.746 171.826 134.251C171.991 132.912 171.844 131.554 171.477 130.261L169.171 122.19C169.51 127.216 168.004 92.2367 167.949 90.9619L171.321 72.9585L155.499 66.5752L153.046 62.7966L145.925 68.2077L135.937 62.4205Z" fill="#ECDDDB"/>
<path d="M171.32 72.9585C171.32 72.9585 174.509 75.7466 175.041 77.8744C175.574 80.0021 187.014 104.756 187.014 104.756L192.701 106.287L194.217 109.433C196.018 113.157 195.044 117.697 191.736 120.2C191.525 120.356 191.323 120.494 191.13 120.613C188.061 122.438 182.539 122.365 179.314 118.577C176.263 114.991 167.351 102.078 167.351 102.078V86.2845L171.32 72.9677V72.9585Z" fill="#ECDDDB"/>
<path d="M189.963 107.259L198.14 102.444L202.082 107.259L201.264 109.589L190.726 117.403C190.726 117.403 188.75 115.954 188.282 113.175C187.785 110.249 189.963 107.259 189.963 107.259Z" fill="#F6AB74"/>
<path d="M187.363 104.765C187.363 104.838 186.674 104.783 185.644 105.113C184.625 105.425 183.302 106.214 182.245 107.461C181.188 108.718 180.536 110.093 180.086 111.084C179.636 112.084 179.369 112.707 179.314 112.689C179.259 112.671 179.433 112.01 179.81 110.974C180.196 109.947 180.821 108.516 181.923 107.195C183.035 105.875 184.459 105.086 185.562 104.829C186.664 104.563 187.372 104.728 187.363 104.774V104.765Z" fill="#2F2421"/>
<path d="M198.003 105.113C197.929 104.967 197.323 101.491 199.969 99.2345C202.615 96.9692 204.995 96.1804 206.428 95.5384C207.861 94.8964 210.848 92.411 211.371 93.0163C211.904 93.6216 212.125 94.5204 211.371 95.621C210.618 96.7124 206.29 98.3541 206.897 99.7389C207.145 100.308 208.505 100.408 208.505 100.408C208.505 100.408 213.714 100.748 215.91 100.555C218.097 100.363 220.063 100.784 219.953 101.537C219.843 102.289 219.42 102.701 217.61 102.857C215.8 103.004 212.851 102.894 212.703 103.307C212.556 103.719 213.154 103.985 214.21 103.912C215.267 103.839 220.256 103.839 220.596 104.398C220.936 104.967 220.67 105.829 219.99 106.021L218.823 106.434C218.823 106.434 219.503 107.379 218.933 107.901C218.363 108.433 217.086 108.241 217.086 108.241L210.48 108.048C210.48 108.048 210.103 108.443 210.287 108.718C210.48 108.993 215.653 108.617 215.69 109.176C215.726 109.745 216.177 110.002 214.633 110.387C213.08 110.763 209.194 110.763 207.797 110.387C206.4 110.011 200.548 109.745 200.548 109.745L198.021 105.104L198.003 105.113Z" fill="#F6AB74"/>
<path d="M108.208 108.122L100.563 101.784L96.1714 106.709L96.7043 109.121L106.26 118.109C106.26 118.109 108.327 117.11 109.264 114.45C110.211 111.744 108.199 108.122 108.199 108.122H108.208Z" fill="#F6AB74"/>
<path d="M100.471 105.049C100.563 104.912 101.565 101.537 99.2034 98.9777C96.8421 96.4281 94.5726 95.3642 93.222 94.5571C91.8713 93.75 89.1976 90.9344 88.6004 91.4755C88.0032 92.0166 87.6724 92.8879 88.2972 94.0619C88.922 95.2358 91.8897 96.6115 91.7886 98.1156C91.7151 99.207 90.5942 99.152 90.5942 99.152C90.5942 99.152 85.3754 98.886 83.2254 98.4366C81.0754 97.9872 79.0724 98.1798 79.0999 98.941C79.1275 99.7023 79.4858 100.161 81.2683 100.528C83.0508 100.885 85.991 101.115 86.092 101.546C86.1931 101.977 85.5591 102.169 84.5209 101.968C83.4826 101.766 78.5303 101.188 78.126 101.711C77.7217 102.234 77.8871 103.123 78.5395 103.389L79.6512 103.939C79.6512 103.939 78.8702 104.792 79.3664 105.389C79.8717 105.975 81.1672 105.939 81.1672 105.939L87.7551 106.517C87.7551 106.517 88.0859 106.957 87.8653 107.204C87.6448 107.452 82.5546 106.48 82.4444 107.03C82.3341 107.58 81.8564 107.801 83.354 108.351C84.8517 108.901 88.7106 109.36 90.144 109.149C91.5773 108.938 97.4209 109.36 97.4209 109.36L100.471 105.049Z" fill="#F6AB74"/>
<path d="M155.094 67.7216C155.094 67.7216 154.589 68.2994 153.725 69.1523C152.852 70.0052 151.658 71.1884 150.399 72.5549C150.133 72.8484 149.875 73.1327 149.618 73.3987L149.453 73.5821L149.306 73.3895C148.323 72.133 147.477 71.0233 146.889 70.2162C146.301 69.4091 145.961 68.9047 145.998 68.868C146.035 68.8313 146.448 69.2807 147.101 70.0419C147.753 70.8032 148.635 71.8854 149.627 73.1327H149.306C149.554 72.8484 149.82 72.5549 150.087 72.2614C151.355 70.8949 152.595 69.7301 153.523 68.9322C154.451 68.1343 155.067 67.6849 155.103 67.7216H155.094Z" fill="#2F2421"/>
<path d="M119.84 82.6617C119.84 82.6617 119.95 82.9644 120.07 83.5147C120.189 84.065 120.336 84.872 120.501 85.8717C120.823 87.8711 121.163 90.65 121.448 93.7224C121.733 96.7949 121.944 99.583 122.1 101.601C122.164 102.536 122.229 103.334 122.275 103.985C122.311 104.554 122.311 104.866 122.284 104.866C122.256 104.866 122.192 104.563 122.109 104.004C122.027 103.444 121.916 102.628 121.806 101.628C121.576 99.6196 121.319 96.8315 121.034 93.7683C120.749 90.6959 120.455 87.9261 120.207 85.9176C120.088 84.9913 119.996 84.1934 119.913 83.5422C119.849 82.9827 119.821 82.6709 119.849 82.6617H119.84Z" fill="#2F2421"/>
<path d="M168.206 81.2585C168.206 81.2585 168.288 81.6346 168.353 82.3316C168.426 83.0286 168.5 84.0283 168.564 85.2664C168.702 87.7519 168.775 91.1912 168.784 94.9789C168.784 98.73 168.784 102.123 168.784 104.691C168.784 105.865 168.784 106.856 168.784 107.635C168.784 108.332 168.766 108.718 168.738 108.718C168.711 108.718 168.665 108.332 168.619 107.645C168.573 106.948 168.527 105.948 168.481 104.701C168.399 102.215 168.362 98.7759 168.362 94.9881C168.362 91.2003 168.325 87.7702 168.27 85.2848C168.242 84.1108 168.215 83.1203 168.196 82.3408C168.178 81.6437 168.178 81.2585 168.215 81.2585H168.206Z" fill="#2F2421"/>
<path d="M113.564 116.862C113.5 116.862 113.39 116.036 113.142 114.725C112.884 113.413 112.471 111.597 111.488 109.818C110.505 108.048 109.081 106.801 107.914 106.196C106.738 105.572 105.892 105.499 105.901 105.416C105.901 105.388 106.113 105.388 106.499 105.443C106.875 105.499 107.417 105.645 108.042 105.93C109.301 106.489 110.826 107.764 111.855 109.607C112.866 111.451 113.243 113.331 113.436 114.67C113.61 116.018 113.619 116.853 113.564 116.853V116.862Z" fill="#2F2421"/>
<path d="M115.558 108.525C115.475 108.626 114.235 107.36 112.241 106.691C110.257 105.994 108.502 106.241 108.493 106.113C108.447 106.021 110.266 105.563 112.379 106.296C114.492 107.003 115.659 108.479 115.558 108.525Z" fill="#2F2421"/>
<path d="M146.917 137.195C146.917 137.195 146.889 136.956 146.871 136.507C146.862 136.021 146.843 135.361 146.825 134.526C146.788 132.765 146.742 130.289 146.678 127.253C146.531 121.081 146.338 112.606 146.118 103.261C145.906 93.8875 145.778 85.3948 145.787 79.25C145.787 76.1776 145.814 73.6922 145.86 71.9771C145.888 71.1517 145.906 70.4913 145.915 69.9961C145.934 69.5467 145.952 69.3082 145.961 69.3082C145.98 69.3082 145.989 69.5467 145.998 69.9961C145.998 70.4822 146.007 71.1425 146.017 71.9771C146.035 73.738 146.053 76.2143 146.081 79.25C146.145 85.3948 146.32 93.8784 146.54 103.252C146.752 112.625 146.935 121.108 146.981 127.253C147.009 130.325 147.009 132.811 146.99 134.526C146.981 135.351 146.963 136.012 146.954 136.507C146.945 136.956 146.926 137.195 146.917 137.195Z" fill="#2F2421"/>
<path d="M107.831 107.856C107.831 107.856 108.437 108.268 108.943 109.295C109.2 109.8 109.448 110.433 109.595 111.176C109.733 111.928 109.742 112.762 109.632 113.615C109.512 114.468 109.292 115.284 108.915 115.963C108.538 116.633 108.042 117.137 107.574 117.467C106.618 118.137 105.846 118.128 105.856 118.082C105.837 118.008 106.545 117.907 107.39 117.229C107.803 116.889 108.235 116.403 108.566 115.78C108.897 115.156 109.09 114.386 109.209 113.56C109.319 112.735 109.319 111.937 109.209 111.24C109.09 110.534 108.878 109.919 108.667 109.415C108.244 108.406 107.776 107.892 107.822 107.856H107.831Z" fill="#2F2421"/>
<path d="M192.26 118.274C192.26 118.274 192.067 118.256 191.745 118.118C191.433 117.99 190.992 117.751 190.505 117.375C189.531 116.642 188.383 115.229 188.015 113.34C187.657 111.451 188.199 109.717 188.824 108.672C189.136 108.14 189.458 107.755 189.697 107.516C189.945 107.278 190.092 107.168 190.11 107.186C190.165 107.241 189.614 107.755 189.081 108.819C188.548 109.855 188.089 111.506 188.429 113.267C188.769 115.028 189.807 116.385 190.698 117.146C191.589 117.926 192.297 118.21 192.26 118.274Z" fill="#2F2421"/>
<path d="M161.021 99.7848C161.021 99.7848 160.653 100.032 159.964 100.399C159.275 100.775 158.255 101.298 156.996 101.922C154.479 103.178 150.95 104.82 146.99 106.498C143.03 108.167 139.392 109.552 136.737 110.488C135.404 110.956 134.329 111.322 133.576 111.552C132.822 111.79 132.409 111.909 132.4 111.882C132.391 111.854 132.795 111.68 133.53 111.396C134.338 111.084 135.386 110.69 136.645 110.203C139.272 109.195 142.883 107.782 146.843 106.113C150.794 104.444 154.332 102.839 156.886 101.656C158.108 101.087 159.128 100.619 159.909 100.252C160.625 99.9223 161.03 99.7572 161.039 99.7848H161.021Z" fill="#2F2421"/>
<path d="M207.953 97.923C207.999 97.9688 207.65 98.3173 207.191 98.9135C206.97 99.2161 206.759 99.5922 206.667 100.069C206.566 100.546 206.575 101.105 206.492 101.711C206.327 102.967 205.555 103.903 204.912 104.361C204.25 104.838 203.745 104.912 203.736 104.866C203.708 104.802 204.168 104.627 204.728 104.132C205.279 103.646 205.932 102.775 206.079 101.647C206.152 101.087 206.161 100.509 206.29 99.9774C206.41 99.4454 206.694 99.0144 206.961 98.7209C207.503 98.1339 207.926 97.8863 207.953 97.923Z" fill="#F6AB74"/>
<path d="M88.7567 104.407C88.7567 104.517 86.6986 104.627 84.1535 104.508C81.6176 104.389 79.5687 104.086 79.587 103.976C79.5962 103.857 81.6452 103.976 84.1719 104.086C86.6986 104.205 88.7475 104.288 88.7475 104.407H88.7567Z" fill="#F6AB74"/>
<path d="M93.4424 104.068C93.4424 104.068 92.9554 104.031 92.3674 103.536C91.7977 103.068 91.1637 102.096 91.2005 100.904C91.2281 100.317 91.3843 99.8031 91.4853 99.3446C91.5956 98.886 91.6507 98.4824 91.6415 98.1431C91.6231 97.4552 91.3291 97.0976 91.3843 97.0609C91.4118 97.015 91.8345 97.3452 91.9355 98.1248C91.9907 98.5008 91.9539 98.9594 91.862 99.4271C91.7702 99.904 91.6415 100.399 91.614 100.922C91.5772 101.958 92.0917 102.839 92.5603 103.325C93.0381 103.829 93.4608 104.004 93.424 104.068H93.4424Z" fill="#F6AB74"/>
<path d="M209.129 105.526C209.138 105.407 211.334 105.499 214.026 105.719C216.728 105.939 218.905 106.214 218.896 106.333C218.887 106.452 216.691 106.361 213.999 106.141C211.298 105.92 209.12 105.645 209.129 105.526Z" fill="#F6AB74"/>
<path d="M145.493 68.4645C145.548 68.492 145.189 69.4 144.565 70.8582C144.399 71.2343 144.234 71.6286 144.05 72.0413C143.839 72.4724 143.71 72.9126 143.398 73.4171C143.251 73.6555 142.892 73.9123 142.525 73.8389C142.176 73.7747 141.937 73.573 141.707 73.4171C141.239 73.0961 140.752 72.7659 140.256 72.4174C138.262 71.0508 136.479 69.7852 135.193 68.8589C133.907 67.9326 133.135 67.3273 133.162 67.2814C133.199 67.2355 134.035 67.7491 135.358 68.6112C136.681 69.4734 138.501 70.7023 140.494 72.0689C140.991 72.4082 141.478 72.7475 141.946 73.0685C142.185 73.2336 142.396 73.3987 142.598 73.4262C142.791 73.4629 142.957 73.362 143.085 73.1786C143.554 72.3257 143.94 71.4085 144.298 70.7207C144.997 69.2991 145.447 68.4278 145.502 68.4553L145.493 68.4645Z" fill="#2F2421"/>
<path d="M138.565 332.05L138.042 315.652H150.234L149.425 332.399L143.922 334.545L138.565 332.05Z" fill="#D6C6BD"/>
<path d="M143.178 332.298L138.565 332.05C138.565 332.05 131.463 337.791 130.783 340.937C130.535 342.056 130.783 343.349 130.783 343.349L141.56 343.661C143.729 343.661 149.425 343.661 149.425 343.661V332.389L143.178 332.298Z" fill="#EAA370"/>
<path d="M149.426 341.707H130.682V343.661H149.426V341.707Z" fill="#ECDDDB"/>
<path d="M139.466 332.921C139.585 332.958 139.089 334.875 138.703 337.287C138.308 339.69 138.161 341.671 138.041 341.671C137.931 341.671 137.885 339.662 138.289 337.223C138.685 334.783 139.364 332.894 139.475 332.931L139.466 332.921Z" fill="#2F2421"/>
<path d="M148.626 341.093C148.552 341.121 148.415 340.313 147.652 339.323C147.266 338.837 146.724 338.323 146.007 337.938C145.3 337.553 144.399 337.342 143.471 337.379C142.534 337.424 141.671 337.718 140.991 338.167C140.311 338.617 139.824 339.176 139.484 339.699C138.822 340.754 138.758 341.57 138.675 341.552C138.648 341.552 138.639 341.35 138.703 340.992C138.767 340.634 138.914 340.121 139.227 339.543C139.548 338.974 140.044 338.342 140.77 337.846C141.487 337.342 142.433 337.003 143.444 336.957C144.455 336.911 145.429 337.158 146.191 337.59C146.954 338.021 147.514 338.598 147.891 339.14C148.258 339.681 148.461 340.176 148.552 340.534C148.644 340.882 148.654 341.084 148.626 341.093Z" fill="#2F2421"/>
<path d="M170.291 332.545L172.717 316.321L160.607 314.909L159.459 331.628L164.678 334.398L170.291 332.545Z" fill="#D6C6BD"/>
<path d="M165.679 332.261L170.291 332.545C170.291 332.545 176.677 339.066 176.99 342.276C177.1 343.413 176.705 344.67 176.705 344.67L165.964 343.725C163.805 343.468 158.154 342.817 158.154 342.817L159.468 331.628L165.688 332.261H165.679Z" fill="#EAA370"/>
<path d="M158.125 342.822L176.741 345.001L176.969 343.061L158.353 340.882L158.125 342.822Z" fill="#ECDDDB"/>
<path d="M169.281 333.307C169.391 333.288 169.851 335.242 169.952 337.709C170.071 340.176 169.786 342.166 169.676 342.157C169.557 342.148 169.639 340.167 169.529 337.727C169.428 335.288 169.152 333.325 169.281 333.307Z" fill="#2F2421"/>
<path d="M159.238 340.359C159.238 340.359 159.238 340.148 159.376 339.818C159.514 339.479 159.762 339.011 160.194 338.516C160.626 338.03 161.25 337.516 162.059 337.177C162.867 336.828 163.86 336.7 164.861 336.865C165.863 337.03 166.763 337.48 167.416 338.057C168.077 338.635 168.5 339.323 168.748 339.928C168.996 340.534 169.088 341.066 169.106 341.423C169.125 341.79 169.088 341.983 169.06 341.983C168.978 341.992 169.014 341.176 168.472 340.047C168.197 339.497 167.774 338.874 167.158 338.351C166.543 337.828 165.716 337.434 164.788 337.278C163.869 337.131 162.95 337.232 162.197 337.535C161.443 337.828 160.837 338.277 160.405 338.718C159.532 339.607 159.303 340.396 159.229 340.359H159.238Z" fill="#2F2421"/>
<path d="M131.904 280.929C131.904 281.653 134.642 321.246 134.642 321.246H152.2L154.075 280.36L131.904 280.929Z" fill="#2F2421"/>
<path d="M179.259 280.424L174.656 322.172L157.474 320.788L158.586 279.25L179.259 280.424Z" fill="#2F2421"/>
<path d="M163.869 151.337L163.529 151.209C162.721 149.191 160.736 147.751 158.595 147.366C156.454 146.981 154.194 147.595 152.393 148.824C151.144 149.677 150.105 150.805 148.847 151.649C147.597 152.493 145.998 153.043 144.565 152.557C144.317 153.08 145.3 153.529 145.162 154.098C145.098 154.364 144.795 154.51 144.519 154.529C144.115 154.556 143.72 154.409 143.315 154.373C142.911 154.336 142.433 154.464 142.286 154.841C142.213 155.024 142.231 155.235 142.259 155.427C142.489 157.188 142.994 158.958 144.06 160.389C145.125 161.811 146.844 162.829 148.617 162.728C150.032 162.645 151.309 161.875 152.522 161.141C154.828 159.729 157.125 158.326 159.431 156.913C160.497 156.262 161.572 155.602 162.427 154.694C163.281 153.786 163.906 152.603 163.869 151.355V151.337Z" fill="#2F2421"/>
<path d="M162.509 151.52C163.456 150.943 164.512 150.512 165.615 150.447C166.717 150.374 167.875 150.686 168.684 151.438C169.437 152.135 169.823 153.135 170.301 154.043C170.779 154.951 171.449 155.868 172.442 156.143C172.616 156.189 172.809 156.225 172.929 156.363C173.131 156.611 172.91 157.014 172.607 157.106C172.304 157.198 171.973 157.087 171.679 156.977C172.102 157.619 172.763 158.115 173.507 158.335C173.25 159.059 172.313 159.454 171.615 159.133C171.762 160.352 171.899 161.591 171.743 162.801C171.587 164.021 171.082 165.241 170.145 166.03C169.106 166.901 167.554 167.268 166.993 168.497" fill="#2F2421"/>
<path d="M148.304 193.388L164.659 195.222L164.586 181.117C164.586 181.117 165.734 181.016 166.57 174.99C167.406 168.964 168.978 158.738 168.978 158.738C162.353 154.859 154.139 154.859 147.523 158.738L146.54 159.316L148.314 193.388H148.304Z" fill="#F6AB74"/>
<path d="M147.487 166.974C147.386 166.919 143.481 165.223 143.095 169.368C142.709 173.513 146.954 173.046 146.972 172.926C146.991 172.807 147.478 166.974 147.478 166.974H147.487Z" fill="#F6AB74"/>
<path d="M167.021 168.552C167.131 168.524 170.944 167.992 170.292 172.101C169.639 176.21 165.642 174.715 165.652 174.596C165.661 174.476 167.021 168.552 167.021 168.552Z" fill="#F6AB74"/>
<path d="M146.2 166.351C146.384 169.891 146.035 171.688 146.311 174.073C146.752 177.842 148.222 180.878 151.291 183.116C154.359 185.354 158.825 185.886 161.976 183.749C164.163 182.272 165.798 180.493 166.414 177.934C167.03 175.375 168.417 170.588 168.757 167.983C169.382 163.278 169.759 159.032 169.759 159.032L156.574 154.905L148.323 158.5L146.191 166.36L146.2 166.351Z" fill="#2F2421"/>
<path d="M157.86 186.051C157.86 186.152 156.776 186.28 155.471 185.959C154.167 185.647 153.248 185.042 153.303 184.959C153.358 184.858 154.314 185.299 155.563 185.592C156.813 185.895 157.86 185.941 157.86 186.051Z" fill="#2F2421"/>
<path d="M146.118 172.312C146.173 168.717 146.421 164.636 146.338 160.829C146.311 159.399 146.063 157.317 146.366 155.923C146.669 154.519 147 155.006 147.79 153.804C148.773 152.3 151.906 151.603 153.707 151.475C155.508 151.346 155.912 149.86 157.107 151.199C158.273 149.86 160.295 149.338 161.967 149.952C163.639 150.567 164.843 152.273 164.861 154.052C165.936 153.263 167.544 153.291 168.582 154.116C169.63 154.941 170.016 156.501 169.492 157.72C170.438 158.005 171.219 158.784 171.504 159.729C171.789 160.673 171.559 161.756 170.925 162.508C170.181 163.388 168.987 163.773 168.178 164.608C167.25 165.562 166.975 167.084 167.498 168.304" fill="#2F2421"/>
<path d="M163.584 173.752C163.676 173.743 163.648 175.476 162.665 177.32C161.691 179.172 160.276 180.172 160.23 180.089C160.148 180.007 161.407 178.915 162.334 177.145C163.281 175.384 163.474 173.734 163.593 173.752H163.584Z" fill="#EAA370"/>
<path d="M165.78 170.964C165.872 170.927 166.212 172.468 165.633 174.265C165.073 176.063 163.915 177.136 163.86 177.054C163.768 176.98 164.742 175.852 165.275 174.146C165.826 172.45 165.67 170.964 165.789 170.964H165.78Z" fill="#EAA370"/>
<path d="M150.583 154.565C151.814 153.08 153.395 151.814 155.26 151.337C157.125 150.851 159.294 151.273 160.589 152.694" fill="#2F2421"/>
<path d="M149.775 163.746C149.839 163.746 149.839 163.26 149.793 162.508C149.756 161.756 149.692 160.719 149.839 159.61C149.986 158.5 150.39 157.555 150.804 156.95C151.208 156.345 151.576 156.042 151.53 155.987C151.502 155.941 151.043 156.143 150.528 156.748C150.014 157.344 149.517 158.362 149.361 159.545C149.205 160.729 149.334 161.802 149.453 162.544C149.582 163.296 149.71 163.755 149.775 163.746Z" fill="#EAA370"/>
<path d="M152.393 165.461C152.522 165.406 152.292 164.553 152.099 163.489C151.897 162.425 151.805 161.536 151.667 161.536C151.539 161.536 151.41 162.453 151.621 163.572C151.823 164.691 152.274 165.507 152.393 165.461Z" fill="#EAA370"/>
<path d="M165.477 166.03C165.477 166.03 166.047 165.626 166.589 164.672C167.131 163.737 167.645 162.223 167.517 160.536C167.397 158.839 166.671 157.427 166.001 156.574C165.321 155.712 164.733 155.345 164.705 155.391C164.65 155.446 165.146 155.895 165.725 156.776C166.304 157.638 166.929 158.995 167.039 160.573C167.149 162.159 166.736 163.581 166.285 164.516C165.844 165.47 165.413 165.984 165.477 166.03Z" fill="#EAA370"/>
<path d="M152.669 148.815C152.696 148.879 153.22 148.687 154.075 148.421C154.92 148.173 156.124 147.852 157.428 148.035C158.742 148.191 159.753 148.934 160.221 149.65C160.718 150.356 160.745 150.934 160.828 150.924C160.874 150.934 160.975 150.31 160.506 149.475C160.277 149.063 159.9 148.622 159.385 148.265C158.862 147.907 158.2 147.659 157.493 147.568C156.059 147.375 154.791 147.779 153.955 148.109C153.119 148.466 152.641 148.769 152.669 148.824V148.815Z" fill="#EAA370"/>
<path d="M170.632 154.96C170.687 154.951 170.65 154.474 170.292 153.804C169.942 153.144 169.217 152.309 168.132 151.841C167.048 151.374 165.946 151.42 165.229 151.621C164.494 151.814 164.126 152.117 164.154 152.162C164.191 152.236 164.604 152.052 165.293 151.952C165.982 151.851 166.975 151.869 167.94 152.282C168.904 152.704 169.603 153.41 169.998 153.978C170.402 154.547 170.558 154.978 170.632 154.951V154.96Z" fill="#EAA370"/>
<path d="M164.273 169.57C164.292 169.515 163.639 169.249 162.61 168.625C161.59 168.001 160.203 166.983 158.954 165.433L158.264 164.581L158.568 165.635C158.751 166.268 158.871 166.956 158.908 167.671C158.935 168.02 158.935 168.451 158.797 168.497C158.696 168.588 158.347 168.359 158.062 168.102C157.052 167.259 156.225 166.286 155.591 165.305L154.984 164.36L155.177 165.47C155.37 166.58 155.554 167.607 155.719 168.543L156.05 168.396C154.378 166.369 153.928 164.691 153.827 164.746C153.79 164.755 153.882 165.177 154.157 165.883C154.433 166.589 154.929 167.58 155.756 168.643L156.197 169.212L156.087 168.497C155.949 167.561 155.793 166.525 155.618 165.415L155.205 165.571C155.848 166.598 156.693 167.616 157.75 168.497C157.906 168.625 158.044 168.754 158.246 168.873C158.43 168.983 158.733 169.102 159.027 168.937C159.321 168.763 159.367 168.46 159.385 168.258C159.395 168.038 159.385 167.864 159.376 167.671C159.33 166.919 159.192 166.195 158.99 165.534L158.604 165.736C159.918 167.314 161.388 168.322 162.473 168.882C163.557 169.451 164.255 169.634 164.273 169.597V169.57Z" fill="#EAA370"/>
<path d="M158.384 152.667C158.705 152.199 159.257 151.915 159.817 151.823C160.378 151.731 160.957 151.823 161.499 151.997C162.831 152.41 164.007 153.3 164.76 154.474C164.935 154.74 165.064 155.134 164.825 155.336C164.696 155.446 164.512 155.446 164.338 155.437C162.289 155.354 160.24 155.024 158.264 154.455" fill="#2F2421"/>
<path d="M144.308 194.195C144.308 194.195 127.365 198.505 124.544 202.981C121.723 207.457 120.06 217.738 120.06 219.563C120.06 221.388 119.73 242.106 123.212 248.911C126.703 255.707 185.663 253.717 185.663 253.717C185.663 253.717 190.147 251.397 191.314 244.436C192.481 237.475 190.321 214.262 189.155 209.126C187.988 203.99 186.995 205.476 181.51 202.165C176.025 198.845 167.563 195.369 167.563 195.369L164.577 189.728C164.577 189.728 155.113 184.592 147.634 188.903L144.308 194.204V194.195Z" fill="#8E8A42"/>
<path d="M180.94 215.922C181.06 215.922 181.087 220.425 181.014 225.983C180.94 231.541 180.784 236.035 180.665 236.035C180.545 236.035 180.518 231.532 180.591 225.974C180.665 220.425 180.821 215.922 180.94 215.922Z" fill="black"/>
<path d="M128.734 212.547C128.734 212.547 128.761 212.85 128.743 213.391C128.715 214.023 128.679 214.785 128.642 215.674C128.559 217.6 128.477 220.26 128.495 223.204C128.523 226.148 128.642 228.808 128.752 230.734C128.807 231.623 128.844 232.385 128.881 233.017C128.908 233.559 128.908 233.861 128.881 233.861C128.853 233.861 128.798 233.568 128.715 233.036C128.633 232.504 128.541 231.724 128.449 230.761C128.256 228.835 128.091 226.166 128.072 223.213C128.054 220.26 128.183 217.591 128.339 215.665C128.421 214.702 128.495 213.923 128.568 213.391C128.642 212.859 128.688 212.556 128.725 212.565L128.734 212.547Z" fill="black"/>
<path d="M174.996 204.118C174.996 204.118 174.849 204.118 174.564 204.1C174.242 204.063 173.838 204.017 173.351 203.962C172.239 203.834 170.723 203.66 168.886 203.449C165.119 203.036 159.891 202.587 154.111 202.385C148.332 202.192 143.086 202.275 139.3 202.422C137.453 202.504 135.937 202.578 134.816 202.623C134.329 202.642 133.925 202.66 133.594 202.678C133.319 202.678 133.172 202.678 133.163 202.669C133.163 202.651 133.31 202.633 133.585 202.596C133.907 202.559 134.311 202.513 134.798 202.468C135.855 202.357 137.389 202.238 139.282 202.128C143.077 201.899 148.323 201.771 154.121 201.963C159.918 202.165 165.146 202.66 168.913 203.155C170.797 203.394 172.322 203.623 173.36 203.807C173.847 203.889 174.242 203.962 174.564 204.017C174.84 204.073 174.977 204.109 174.977 204.118H174.996Z" fill="black"/>
<path d="M166.625 195.222C166.607 195.286 165.367 195.048 163.336 194.745C161.315 194.443 158.503 194.122 155.379 194.002C152.255 193.883 149.435 194.002 147.386 194.14C145.346 194.287 144.087 194.433 144.078 194.36C144.078 194.332 144.381 194.259 144.951 194.167C145.52 194.067 146.338 193.956 147.367 193.837C149.407 193.617 152.255 193.452 155.398 193.571C158.54 193.69 161.361 194.066 163.382 194.443C164.393 194.626 165.21 194.809 165.762 194.947C166.322 195.085 166.625 195.176 166.616 195.204L166.625 195.222Z" fill="black"/>
<g opacity="0.3">
<path d="M184.653 232.761C183.072 231.834 181.17 231.669 179.333 231.55C168.702 230.816 158.044 230.587 147.395 230.358C141.276 230.229 135.129 230.092 129.046 230.807C127.135 231.036 125.114 231.394 123.69 232.696C121.779 234.439 121.512 237.355 121.815 239.923C122.119 242.491 122.854 245.069 122.44 247.618L186.361 253.653C186.27 249.939 187.694 246.362 188.181 242.675C188.668 238.988 187.859 234.65 184.653 232.77V232.761Z" fill="#8E8A42"/>
</g>
<path d="M133.806 283.726C127.962 283.726 123.129 279.104 122.973 273.271C122.67 262.32 122.67 245.371 122.679 238.016C122.679 236.026 124.305 234.411 126.299 234.411H182.649C184.68 234.411 186.315 236.081 186.27 238.108C186.086 245.738 185.654 263.439 185.388 274.417C185.259 279.599 181.014 283.726 175.823 283.726H133.806Z" fill="#691D1B"/>
<path d="M120.988 343.688L117.772 343.294L124.406 289.11C124.792 285.927 127.457 283.533 130.608 283.533H178.129C181.271 283.533 183.936 285.918 184.331 289.091C185.92 301.904 190.349 342.9 190.395 343.312L187.17 343.661C187.124 343.248 182.704 302.271 181.115 289.486C180.922 287.936 179.645 286.771 178.129 286.771H130.608C129.092 286.771 127.815 287.945 127.622 289.504L120.988 343.688Z" fill="#4F1010"/>
<path d="M120.988 343.689C120.988 343.689 121.016 343.395 121.08 342.836C121.145 342.267 121.246 341.442 121.365 340.359C121.622 338.177 122.008 334.976 122.495 330.849C123.487 322.603 124.921 310.672 126.694 295.887C126.915 294.044 127.144 292.145 127.383 290.21C127.448 289.733 127.466 289.229 127.65 288.734C127.824 288.248 128.127 287.807 128.504 287.44C128.89 287.092 129.368 286.826 129.892 286.698C130.424 286.56 130.939 286.624 131.444 286.606C135.524 286.606 139.778 286.606 144.179 286.597C152.981 286.597 162.408 286.587 172.331 286.578C173.572 286.578 174.821 286.578 176.08 286.578C176.705 286.578 177.339 286.578 177.973 286.578C178.625 286.551 179.323 286.734 179.884 287.119C180.444 287.495 180.885 288.055 181.115 288.688C181.363 289.339 181.345 289.99 181.437 290.623C181.584 291.898 181.721 293.182 181.868 294.475C182.447 299.638 183.035 304.912 183.642 310.286C184.845 321.035 186.095 332.188 187.372 343.633L187.142 343.45C188.162 343.34 189.265 343.221 190.367 343.102L190.184 343.331C190.018 341.854 189.844 340.258 189.66 338.653C188.484 328.125 187.335 317.825 186.214 307.819C185.654 302.821 185.112 297.896 184.57 293.053C184.432 291.843 184.303 290.641 184.165 289.44C184.064 288.257 183.66 287.129 182.962 286.202C182.282 285.267 181.326 284.542 180.251 284.13C179.718 283.928 179.149 283.809 178.579 283.754C178.019 283.717 177.412 283.735 176.833 283.735C167.434 283.735 158.43 283.726 149.885 283.717C145.612 283.717 141.459 283.717 137.426 283.708C135.414 283.708 133.429 283.708 131.481 283.708C130.994 283.708 130.507 283.708 130.039 283.735C129.57 283.799 129.111 283.873 128.67 284.038C127.787 284.331 126.988 284.845 126.336 285.496C125.683 286.138 125.187 286.927 124.884 287.78C124.562 288.624 124.517 289.532 124.397 290.43C124.177 292.228 123.956 293.989 123.745 295.713C123.322 299.161 122.909 302.463 122.523 305.618C121.742 311.91 121.034 317.587 120.419 322.558C119.169 332.481 118.278 339.607 117.809 343.312L117.772 343.267C118.857 343.413 119.656 343.514 120.189 343.588C120.722 343.661 120.979 343.698 120.979 343.698C120.979 343.698 120.731 343.679 120.207 343.624C119.665 343.56 118.857 343.468 117.763 343.349H117.727V343.303C118.168 339.598 119.022 332.463 120.198 322.53C120.795 317.55 121.484 311.882 122.247 305.581C122.633 302.436 123.028 299.125 123.451 295.676C123.662 293.952 123.873 292.191 124.094 290.394C124.213 289.504 124.259 288.568 124.599 287.67C124.921 286.78 125.426 285.945 126.115 285.267C126.795 284.579 127.631 284.038 128.568 283.726C129.028 283.552 129.524 283.469 130.011 283.405C130.516 283.368 130.994 283.378 131.481 283.378C133.429 283.378 135.414 283.378 137.426 283.378C141.459 283.378 145.612 283.377 149.885 283.368C158.43 283.368 167.443 283.359 176.833 283.35C177.421 283.35 178 283.332 178.616 283.368C179.222 283.423 179.829 283.552 180.398 283.772C181.538 284.212 182.557 284.982 183.283 285.982C184.018 286.964 184.459 288.192 184.56 289.412C184.698 290.614 184.827 291.815 184.965 293.026C185.507 297.868 186.058 302.793 186.619 307.792C187.74 317.798 188.888 328.097 190.064 338.626C190.239 340.231 190.422 341.827 190.588 343.303L190.615 343.514L190.404 343.533C189.301 343.652 188.199 343.771 187.179 343.881L186.968 343.899L186.94 343.689C185.663 332.243 184.423 321.099 183.219 310.341C182.622 304.967 182.034 299.693 181.455 294.53C181.308 293.237 181.17 291.953 181.023 290.678C180.931 290.045 180.94 289.385 180.72 288.834C180.509 288.275 180.132 287.78 179.636 287.45C179.139 287.11 178.561 286.945 177.945 286.973C177.311 286.973 176.686 286.973 176.052 286.973C174.794 286.973 173.544 286.973 172.304 286.973C162.38 286.973 152.954 286.964 144.151 286.954C139.75 286.954 135.496 286.954 131.417 286.945C130.902 286.954 130.397 286.899 129.937 287.019C129.469 287.129 129.046 287.367 128.688 287.679C128.348 288 128.063 288.403 127.907 288.844C127.732 289.275 127.714 289.761 127.65 290.256C127.411 292.2 127.172 294.099 126.942 295.951C125.095 310.754 123.607 322.704 122.578 330.968C122.063 335.077 121.659 338.259 121.383 340.433C121.246 341.506 121.145 342.322 121.071 342.881C120.998 343.432 120.952 343.707 120.952 343.707L120.988 343.689Z" fill="#4F1010"/>
<path d="M179.728 273.922C179.728 273.922 179.746 274.004 179.746 274.16C179.737 274.316 179.81 274.573 179.709 274.876C179.627 275.508 179.121 276.389 178.129 277.077C176.144 278.489 172.699 279.36 168.481 279.902C160.001 280.947 148.157 280.819 135.202 279.599C133.585 279.425 131.931 279.149 130.507 278.324C129.055 277.517 128.109 276.05 127.677 274.564C127.209 273.069 127.071 271.546 126.924 270.088C126.786 268.621 126.657 267.19 126.529 265.787C126.051 260.183 125.766 255.12 125.61 250.865C125.454 246.609 125.417 243.17 125.417 240.795C125.417 239.602 125.417 238.685 125.445 238.052C125.445 237.759 125.463 237.521 125.463 237.337C125.463 237.181 125.472 237.099 125.481 237.099C125.491 237.099 125.5 237.181 125.5 237.337C125.5 237.521 125.509 237.759 125.518 238.052C125.527 238.704 125.555 239.621 125.573 240.795C125.628 243.17 125.702 246.609 125.904 250.856C126.097 255.102 126.409 260.156 126.915 265.75C127.052 267.153 127.19 268.584 127.328 270.042C127.475 271.501 127.613 273.005 128.072 274.435C128.504 275.866 129.377 277.205 130.719 277.957C132.051 278.728 133.649 279.003 135.248 279.168C148.167 280.388 159.992 280.562 168.445 279.599C172.653 279.094 176.071 278.269 178.037 276.93C179.02 276.279 179.525 275.444 179.636 274.839C179.746 274.545 179.691 274.298 179.718 274.142C179.718 273.986 179.728 273.903 179.737 273.894L179.728 273.922Z" fill="#2F2421"/>
<path d="M89.2802 219.866C89.2802 220.352 93.8467 237.952 93.8467 243.656C93.8467 249.361 88.4625 254.084 88.4625 254.084L82.5821 241.372L80.1289 225.57L89.271 219.866H89.2802Z" fill="#F6AB74"/>
<path d="M33.3984 218.169C33.3433 218.673 34.354 240.556 34.354 240.556L43.1653 239.74L41.2083 225.075L33.3984 218.169Z" fill="#F6AB74"/>
<path d="M45.4533 199.826C45.3614 199.872 45.0857 199.964 44.6815 200.101C42.2558 200.927 34.1244 203.687 33.1137 210.786L32.002 220.884L41.2084 225.084L42.3477 236.328L82.1779 237.145L81.1948 227.698L94.7196 224.726C94.7196 224.726 92.1745 212.538 87.2221 206.017C85.6326 203.917 83.2989 202.495 80.717 201.981L60.1358 197.873L45.4441 199.826H45.4533Z" fill="#F6AB74"/>
<path d="M64.8034 159.784C61.9367 159.334 58.9874 160.527 56.8557 162.425C54.7241 164.315 53.2908 166.837 52.1514 169.405C49.9188 174.412 48.6232 179.75 47.3461 185.06C45.4534 192.883 43.5514 200.743 43.0461 208.759C42.5407 216.775 45.0307 221.507 48.6141 228.753L61.2936 227.056L61.2752 224.736L62.9934 227.056L67.9181 226.322C67.9181 226.322 69.3974 213.913 69.3974 213.95C69.3974 213.987 71.7496 225.772 71.7496 225.772L75.8566 225.405C79.9361 209.814 75.3237 199.551 77.6391 183.62C78.1904 179.833 79.0633 176.063 79.0449 172.239C79.0265 168.414 78.0066 164.415 75.2686 161.646C72.5306 158.876 67.8079 157.739 64.4451 159.775" fill="#2F2421"/>
<path d="M67.9089 226.331C67.9089 226.331 67.8905 226.267 67.8629 226.157C67.8354 226.02 67.7986 225.845 67.7527 225.625C67.6608 225.139 67.5413 224.461 67.376 223.589C67.0636 221.819 66.6317 219.251 66.2458 216.06C65.8599 212.868 65.5292 209.043 65.6027 204.788C65.6578 202.66 65.8048 200.431 66.1172 198.139C66.4388 195.846 66.9441 193.489 67.6148 191.123C69.0206 186.399 70.9777 182.098 71.924 177.962C72.411 175.898 72.6867 173.899 72.6775 172.019C72.6775 170.138 72.3835 168.396 71.8689 166.883C71.3544 165.369 70.6193 164.085 69.8475 163.067C69.0666 162.04 68.2396 161.288 67.5046 160.738C66.7787 160.187 66.1264 159.866 65.6945 159.646C65.4832 159.555 65.3178 159.481 65.1892 159.426C65.0789 159.371 65.0146 159.344 65.0238 159.344C65.033 159.344 65.0881 159.362 65.2076 159.399C65.3362 159.445 65.5108 159.518 65.7313 159.6C66.1723 159.802 66.8339 160.105 67.5781 160.655C68.3315 161.196 69.1768 161.948 69.9854 162.976C70.7755 164.003 71.5382 165.287 72.0711 166.828C72.6132 168.359 72.9164 170.129 72.9255 172.028C72.9439 173.926 72.6775 175.953 72.1905 178.026C71.2441 182.199 69.2871 186.509 67.8997 191.205C67.2381 193.562 66.7328 195.901 66.4112 198.184C66.0988 200.468 65.9426 202.688 65.8783 204.806C65.7864 209.043 66.0896 212.859 66.4572 216.05C66.8247 219.242 67.2198 221.81 67.4954 223.58C67.6332 224.451 67.7435 225.139 67.817 225.625C67.8537 225.845 67.8721 226.02 67.8905 226.157C67.9089 226.276 67.9089 226.341 67.9089 226.341V226.331Z" fill="#691D1B"/>
<path d="M50.0657 218.206C50.0657 218.206 50.0473 218.16 50.0381 218.059C50.0197 217.949 50.0013 217.802 49.983 217.619C49.937 217.215 49.8819 216.646 49.7992 215.931C49.7625 215.564 49.7165 215.161 49.6706 214.711C49.6338 214.262 49.6154 213.776 49.5787 213.262C49.5236 212.217 49.4225 211.034 49.4225 209.722C49.4133 209.062 49.3949 208.374 49.3857 207.659C49.3766 206.943 49.4133 206.191 49.4225 205.421C49.4225 203.871 49.5511 202.229 49.6614 200.487C49.9462 197.02 50.424 193.223 51.1958 189.279C51.9951 185.335 53.015 181.639 54.09 178.319C54.6597 176.668 55.1834 175.091 55.7714 173.651C56.0563 172.926 56.3135 172.22 56.5984 171.56C56.8832 170.9 57.1588 170.267 57.4253 169.661C57.9306 168.442 58.4819 167.378 58.9413 166.424C59.171 165.956 59.3823 165.507 59.5845 165.112C59.7958 164.718 59.9888 164.351 60.1725 164.03C60.5217 163.397 60.7973 162.893 60.9902 162.535C61.0821 162.379 61.1556 162.251 61.2108 162.15C61.2659 162.068 61.2935 162.022 61.2935 162.022C61.2935 162.022 61.2751 162.068 61.2383 162.159C61.1832 162.26 61.1281 162.398 61.0454 162.554C60.8616 162.921 60.6044 163.425 60.2736 164.076C60.1082 164.406 59.9152 164.773 59.7131 165.168C59.5202 165.571 59.3088 166.02 59.0883 166.488C58.6473 167.442 58.1144 168.515 57.6182 169.735C57.361 170.34 57.0853 170.982 56.8097 171.643C56.534 172.303 56.2768 173.009 56.0011 173.734C55.4223 175.173 54.9078 176.751 54.3473 178.393C53.2907 181.713 52.2892 185.4 51.4898 189.334C50.718 193.269 50.231 197.056 49.937 200.514C49.8268 202.247 49.6889 203.889 49.6798 205.43C49.6614 206.2 49.6246 206.943 49.6246 207.659C49.6246 208.374 49.6338 209.062 49.643 209.722C49.6338 211.034 49.7165 212.217 49.7624 213.262C49.79 213.785 49.8084 214.262 49.836 214.711C49.8727 215.152 49.9095 215.564 49.937 215.931C49.9921 216.646 50.0381 217.215 50.0657 217.619C50.0748 217.802 50.084 217.94 50.0932 218.059C50.0932 218.16 50.0932 218.206 50.0932 218.206H50.0657Z" fill="#691D1B"/>
<path d="M57.1037 227.625C57.1037 227.625 57.0762 227.579 57.0486 227.478C57.0119 227.368 56.9659 227.221 56.9016 227.038C56.773 226.634 56.5984 226.065 56.3687 225.341C56.2584 224.974 56.1298 224.561 55.992 224.112C55.8542 223.663 55.7439 223.167 55.6061 222.635C55.358 221.572 54.9997 220.37 54.7608 219.004C54.6322 218.325 54.4943 217.619 54.3473 216.876C54.1911 216.133 54.1176 215.353 53.9982 214.555C53.8971 213.748 53.7409 212.923 53.6766 212.061C53.6031 211.199 53.5204 210.318 53.4469 209.41C53.2172 205.769 53.1988 201.752 53.5388 197.561C53.8971 193.36 54.5862 189.407 55.3764 185.84C55.5877 184.95 55.799 184.088 56.0012 183.244C56.2033 182.401 56.4606 181.603 56.6719 180.814C57.0946 179.246 57.5815 177.806 58.0134 176.494C58.4268 175.173 58.9046 174.009 59.2721 172.982C59.6396 171.945 60.0072 171.074 60.3104 170.358C60.6044 169.661 60.8341 169.111 61.0087 168.717C61.0822 168.543 61.1465 168.405 61.1924 168.295C61.2384 168.203 61.2567 168.148 61.2659 168.157C61.2659 168.157 61.2567 168.212 61.22 168.313C61.174 168.423 61.1281 168.57 61.0638 168.744C60.9076 169.139 60.6963 169.698 60.4206 170.404C60.1358 171.12 59.7867 172 59.4283 173.037C59.07 174.073 58.6106 175.238 58.2155 176.558C57.7928 177.87 57.3243 179.31 56.9108 180.878C56.6995 181.658 56.4514 182.465 56.2584 183.299C56.0563 184.143 55.8542 185.005 55.6428 185.886C54.871 189.444 54.1911 193.397 53.8328 197.579C53.4928 201.761 53.502 205.76 53.7225 209.392C53.796 210.3 53.8695 211.18 53.9431 212.042C53.9982 212.905 54.1544 213.73 54.2463 214.528C54.3657 215.326 54.43 216.105 54.577 216.848C54.7148 217.591 54.8435 218.297 54.9721 218.976C55.1926 220.333 55.5326 221.535 55.7715 222.608C55.9001 223.14 56.0012 223.635 56.1298 224.094C56.2584 224.543 56.3779 224.956 56.4881 225.332C56.6903 226.056 56.8557 226.634 56.9659 227.047C57.0119 227.23 57.0578 227.377 57.0854 227.496C57.1129 227.597 57.1221 227.652 57.1129 227.652L57.1037 227.625Z" fill="#691D1B"/>
<path d="M74.9103 220.086C74.9103 220.086 74.8735 220.04 74.8276 219.93C74.7725 219.811 74.6898 219.664 74.5979 219.471C74.4968 219.26 74.3774 219.013 74.2304 218.719C74.1017 218.417 73.9455 218.059 73.7801 217.674C73.1278 216.087 72.2549 213.739 71.6577 210.74C71.0329 207.741 70.6838 204.082 71.0054 200.037C71.1707 198.019 71.5015 195.91 72.0436 193.773C72.5765 191.627 73.2656 189.453 73.9731 187.225C74.6806 184.996 75.3605 182.822 75.8566 180.685C76.3528 178.549 76.6744 176.448 76.7295 174.44C76.7938 172.431 76.5917 170.514 76.1231 168.79C75.6729 167.057 74.9195 165.544 74.0558 164.278C72.3101 161.728 70.1049 160.307 68.497 159.637C67.6793 159.316 67.0177 159.133 66.5675 159.041C66.3562 158.995 66.1816 158.968 66.053 158.94C65.9335 158.913 65.8784 158.903 65.8784 158.894C65.8784 158.894 65.9427 158.894 66.0622 158.913C66.2 158.931 66.3654 158.958 66.5859 158.986C67.0453 159.059 67.716 159.224 68.5521 159.536C70.1876 160.178 72.4479 161.6 74.2304 164.168C75.1216 165.443 75.8934 166.974 76.362 168.735C76.8398 170.487 77.0603 172.422 76.996 174.449C76.95 176.476 76.6284 178.594 76.1323 180.741C75.6361 182.896 74.9562 185.079 74.2487 187.307C73.5413 189.536 72.843 191.7 72.3101 193.837C71.7771 195.965 71.428 198.056 71.2626 200.065C70.9318 204.082 71.2626 207.723 71.8507 210.713C72.4203 213.712 73.2656 216.05 73.8812 217.646C74.0374 218.041 74.1844 218.398 74.3039 218.701C74.4325 218.994 74.5519 219.251 74.6438 219.462C74.7265 219.655 74.8 219.811 74.846 219.93C74.8919 220.04 74.9103 220.095 74.9103 220.095V220.086Z" fill="#691D1B"/>
<path d="M39.3249 212.712C39.3801 212.712 39.5454 213.62 39.7751 215.106C40.0232 216.72 40.3264 218.701 40.6664 220.893C41.0155 223.085 41.3279 225.066 41.5852 226.68C41.8149 228.157 41.9435 229.083 41.8884 229.092C41.8333 229.101 41.6036 228.202 41.2912 226.735C40.9788 225.268 40.6021 223.222 40.2437 220.966C39.8946 218.701 39.6281 216.647 39.4719 215.152C39.3157 213.657 39.2606 212.73 39.3157 212.721L39.3249 212.712Z" fill="black"/>
<path d="M81.9942 215.812C82.1137 215.812 81.9851 219.178 81.7094 223.323C81.4338 227.469 81.1214 230.816 81.0019 230.807C80.8825 230.807 81.0111 227.441 81.2868 223.296C81.5624 219.159 81.8748 215.803 81.9942 215.812Z" fill="black"/>
<path d="M76.6927 309.323L72.1262 294.814C72.1262 294.814 82.6833 291.613 82.619 291.641C82.5455 291.659 86.0829 309.846 86.0829 309.846L80.9835 311.901L76.6927 309.323Z" fill="#EDC4A9"/>
<path d="M96.2998 311.158L92.496 309.883L85.5682 307.205L76.2056 308.186L77.6113 316.596L85.4212 315.963L98.6979 315.138L98.4315 314.001C98.1466 312.79 97.3657 311.754 96.2907 311.158H96.2998Z" fill="#EAA370"/>
<path d="M86.9098 315.257C86.7904 315.276 86.3953 313.487 86.0278 311.259C85.6603 309.039 85.4489 307.186 85.5684 307.205C85.6694 307.15 86.0737 308.966 86.4412 311.185C86.8088 313.414 87.0201 315.239 86.9098 315.257Z" fill="#2F2421"/>
<path d="M77.6114 316.596L77.3726 315.166L98.3673 313.671L98.7072 315.138L77.6114 316.596Z" fill="#691D1B"/>
<path d="M49.2112 331.876V317.889L60.7973 317.165L60.0715 332.224L54.5678 334.37L49.2112 331.876Z" fill="#EDC4A9"/>
<path d="M53.8235 332.133L49.2111 331.885C49.2111 331.885 42.1088 337.626 41.4289 340.772C41.1808 341.891 41.4289 343.184 41.4289 343.184L52.2064 343.496C54.3748 343.496 60.0714 343.496 60.0714 343.496V332.224L53.8235 332.133Z" fill="#EAA370"/>
<path d="M64.3163 283.478C64.546 284.029 67.6056 299.803 67.6056 299.803L86.3493 295.594L83.9328 284.918L64.3071 283.488L64.3163 283.478Z" fill="#2F2421"/>
<path d="M44.9662 285.074V317.715L63.3607 318.495L64.1601 285.074H44.957H44.9662Z" fill="#2F2421"/>
<path d="M60.0715 341.542H41.3279V343.496H60.0715V341.542Z" fill="#691D1B"/>
<path d="M50.1115 332.756C50.231 332.793 49.7348 334.71 49.3489 337.122C48.9538 339.525 48.8068 341.506 48.6874 341.506C48.5771 341.506 48.5312 339.497 48.9354 337.058C49.3305 334.618 50.0104 332.729 50.1207 332.765L50.1115 332.756Z" fill="#2F2421"/>
<path d="M59.272 340.928C59.1985 340.956 59.0607 340.148 58.298 339.158C57.9121 338.672 57.3701 338.158 56.6534 337.773C55.9459 337.388 55.0455 337.177 54.1175 337.214C53.1803 337.259 52.3166 337.553 51.6367 338.002C50.9568 338.452 50.4698 339.011 50.1299 339.534C49.4683 340.589 49.404 341.405 49.3213 341.387C49.2938 341.387 49.2846 341.185 49.3489 340.827C49.4132 340.469 49.5602 339.956 49.8726 339.378C50.1942 338.809 50.6903 338.177 51.4162 337.681C52.1329 337.177 53.0792 336.838 54.0899 336.792C55.1006 336.746 56.0745 336.993 56.8371 337.425C57.5998 337.856 58.1602 338.433 58.5369 338.974C58.9045 339.516 59.1066 340.011 59.1985 340.369C59.2904 340.717 59.2995 340.919 59.272 340.928Z" fill="#2F2421"/>
<path d="M42.4857 283.726C36.6421 283.726 31.8092 279.104 31.653 273.271C31.3498 262.32 31.3498 245.371 31.359 238.016C31.359 236.026 32.9853 234.411 34.9791 234.411H91.3294C93.3599 234.411 94.9954 236.081 94.9495 238.108C94.7657 245.738 94.3339 263.439 94.0674 274.417C93.9388 279.599 89.6939 283.726 84.5027 283.726H42.4857Z" fill="#691D1B"/>
<path d="M29.6682 343.688L26.4524 343.294L33.0862 289.11C33.4721 285.927 36.1366 283.533 39.2881 283.533H86.8087C89.951 283.533 92.6156 285.918 93.0107 289.091C94.6002 301.904 99.0288 342.9 99.0656 343.312L95.8406 343.661C95.7946 343.248 91.3752 302.271 89.7856 289.486C89.5927 287.936 88.3064 286.771 86.7995 286.771H39.2789C37.7629 286.771 36.4857 287.945 36.2928 289.504L29.659 343.688H29.6682Z" fill="#4F1010"/>
<path d="M29.6683 343.689C29.6683 343.689 29.6958 343.395 29.7601 342.836C29.8244 342.267 29.9255 341.442 30.045 340.359C30.3022 338.177 30.6881 334.976 31.1751 330.849C32.1674 322.603 33.6007 310.672 35.374 295.887C35.5945 294.044 35.8242 292.145 36.0631 290.21C36.1275 289.733 36.1458 289.229 36.3296 288.734C36.5042 288.248 36.8074 287.807 37.1841 287.44C37.57 287.092 38.0478 286.826 38.5715 286.698C39.1044 286.56 39.6189 286.624 40.1243 286.606C44.2038 286.606 48.4578 286.606 52.8589 286.597C61.6611 286.597 71.088 286.587 81.0111 286.578C82.2515 286.578 83.5011 286.578 84.7598 286.578C85.3846 286.578 86.0186 286.578 86.6526 286.578C87.3049 286.551 88.0032 286.734 88.5637 287.119C89.1241 287.495 89.5652 288.055 89.7949 288.688C90.043 289.339 90.0246 289.99 90.1165 290.623C90.2635 291.898 90.4013 293.182 90.5483 294.475C91.1271 299.638 91.7152 304.912 92.3216 310.286C93.5252 321.035 94.7748 332.188 96.0519 343.633L95.8222 343.45C96.8421 343.34 97.9447 343.221 99.0472 343.102L98.8635 343.331C98.6981 341.854 98.5235 340.258 98.3398 338.653C97.1637 328.125 96.0152 317.825 94.8942 307.819C94.3338 302.821 93.7917 297.896 93.2496 293.053C93.1118 291.843 92.9831 290.641 92.8453 289.44C92.7442 288.257 92.34 287.129 91.6417 286.202C90.9618 285.267 90.0062 284.542 88.9312 284.13C88.3983 283.928 87.8286 283.809 87.259 283.754C86.6985 283.717 86.0921 283.735 85.5132 283.735C76.1139 283.735 67.1096 283.726 58.5647 283.717C54.2922 283.717 50.1392 283.717 46.1057 283.708C44.0935 283.708 42.1089 283.708 40.161 283.708C39.674 283.708 39.1871 283.708 38.7185 283.735C38.2499 283.799 37.7905 283.873 37.3495 284.038C36.4674 284.331 35.6681 284.845 35.0157 285.496C34.3633 286.138 33.8672 286.927 33.564 287.78C33.2424 288.624 33.1965 289.532 33.077 290.43C32.8565 292.228 32.636 293.989 32.4247 295.713C32.002 299.161 31.5886 302.463 31.2027 305.618C30.4217 311.91 29.7142 317.587 29.0986 322.558C27.849 332.481 26.9578 339.607 26.4892 343.312L26.4524 343.267C27.5366 343.413 28.336 343.514 28.8689 343.588C29.4018 343.661 29.6591 343.698 29.6591 343.698C29.6591 343.698 29.411 343.679 28.8873 343.624C28.3452 343.56 27.5366 343.468 26.4432 343.349H26.4065V343.303C26.8475 339.598 27.702 332.463 28.8781 322.53C29.4753 317.55 30.1644 311.882 30.927 305.581C31.3129 302.436 31.708 299.125 32.1307 295.676C32.342 293.952 32.5533 292.191 32.7738 290.394C32.8933 289.504 32.9392 288.568 33.2792 287.67C33.6007 286.78 34.1061 285.945 34.7952 285.267C35.4751 284.579 36.3112 284.038 37.2484 283.726C37.7078 283.552 38.204 283.469 38.6909 283.405C39.1871 283.368 39.674 283.378 40.161 283.378C42.1089 283.378 44.0935 283.378 46.1057 283.378C50.1392 283.378 54.2922 283.377 58.5647 283.368C67.1096 283.368 76.1231 283.359 85.5132 283.35C86.1013 283.35 86.6801 283.332 87.2957 283.368C87.9021 283.423 88.5085 283.552 89.0782 283.772C90.2175 284.212 91.2374 284.982 91.9632 285.982C92.6983 286.964 93.1393 288.192 93.2404 289.412C93.3782 290.614 93.5068 291.815 93.6447 293.026C94.1868 297.868 94.738 302.793 95.2985 307.792C96.4195 317.798 97.568 328.097 98.744 338.626C98.9186 340.231 99.1024 341.827 99.2678 343.303L99.2953 343.514L99.084 343.533C97.9814 343.652 96.8789 343.771 95.859 343.881L95.6477 343.899L95.6201 343.689C94.343 332.243 93.1026 321.099 91.8989 310.341C91.3017 304.967 90.7137 299.693 90.1348 294.53C89.9878 293.237 89.85 291.953 89.703 290.678C89.6111 290.045 89.6203 289.385 89.3998 288.834C89.1885 288.275 88.8118 287.78 88.3156 287.45C87.8194 287.11 87.2406 286.945 86.625 286.973C85.991 286.973 85.3662 286.973 84.7323 286.973C83.4735 286.973 82.2239 286.973 80.9835 286.973C71.0604 286.973 61.6335 286.964 52.8313 286.954C48.4303 286.954 44.1762 286.954 40.0967 286.945C39.5822 286.954 39.0768 286.899 38.6174 287.019C38.1488 287.129 37.7262 287.367 37.3678 287.679C37.0279 288 36.7431 288.403 36.5869 288.844C36.4123 289.275 36.3939 289.761 36.3296 290.256C36.0907 292.2 35.8518 294.099 35.6221 295.951C33.7753 310.754 32.2868 322.704 31.2578 330.968C30.7433 335.077 30.339 338.259 30.0633 340.433C29.9255 341.506 29.8245 342.322 29.7509 342.881C29.6774 343.432 29.6315 343.707 29.6315 343.707L29.6683 343.689Z" fill="#2F2421"/>
<path d="M88.4075 273.922C88.4075 273.922 88.4259 274.004 88.4259 274.16C88.4167 274.316 88.4902 274.573 88.3891 274.876C88.3064 275.508 87.8011 276.389 86.8088 277.077C84.8242 278.489 81.3786 279.36 77.1613 279.902C68.6808 280.947 56.8374 280.819 43.8822 279.599C42.2651 279.425 40.6113 279.149 39.1871 278.324C37.7354 277.517 36.789 276.05 36.3572 274.564C35.8886 273.069 35.7508 271.546 35.6038 270.088C35.4659 268.621 35.3373 267.19 35.2087 265.787C34.7309 260.183 34.4461 255.12 34.2899 250.865C34.1337 246.609 34.0969 243.17 34.0969 240.795C34.0969 239.602 34.0969 238.685 34.1245 238.052C34.1245 237.759 34.1429 237.521 34.1429 237.337C34.1429 237.181 34.1521 237.099 34.1612 237.099C34.1704 237.099 34.1796 237.181 34.1796 237.337C34.1796 237.521 34.1888 237.759 34.198 238.052C34.2072 238.704 34.2347 239.621 34.2531 240.795C34.3082 243.17 34.3818 246.609 34.5839 250.856C34.7768 255.102 35.0892 260.156 35.5946 265.75C35.7324 267.153 35.8702 268.584 36.008 270.042C36.155 271.501 36.2929 273.005 36.7523 274.435C37.1841 275.866 38.057 277.205 39.3984 277.957C40.7307 278.728 42.3294 279.003 43.9281 279.168C56.8465 280.388 68.6716 280.562 77.1246 279.599C81.3327 279.094 84.7507 278.269 86.7169 276.93C87.7 276.279 88.2054 275.444 88.3156 274.839C88.4259 274.545 88.3707 274.298 88.3983 274.142C88.3983 273.986 88.4075 273.903 88.4167 273.894L88.4075 273.922Z" fill="#2F2421"/>
</svg>
