<svg width="170" height="170" viewBox="0 0 170 170" fill="none" xmlns="http://www.w3.org/2000/svg">
<circle cx="85" cy="85" r="85" fill="#FDF8F1"/>
<rect x="44.625" y="43.5625" width="94.5625" height="102" rx="10" fill="#FFDD9D"/>
<rect x="37.1875" y="38.25" width="95.625" height="102" rx="10" stroke="#691D1C" stroke-width="3"/>
<path d="M124.312 99.875H45.6875V106.25H124.312V99.875Z" fill="#FFDD9D" stroke="#691D1C" stroke-width="3" stroke-linecap="round"/>
<path d="M114.545 133.875H54.3906C53.7731 133.875 53.181 133.625 52.7444 133.181C52.3078 132.737 52.0625 132.135 52.0625 131.507V106.25H116.875V131.507C116.875 131.818 116.815 132.126 116.698 132.413C116.58 132.701 116.409 132.962 116.192 133.182C115.976 133.402 115.719 133.576 115.436 133.695C115.154 133.814 114.851 133.875 114.545 133.875Z" fill="#FFDD9D" stroke="#691D1C" stroke-width="3" stroke-linecap="round"/>
<path d="M103.586 113.688H66.4139C65.5295 113.688 64.8125 114.489 64.8125 115.477V124.648C64.8125 125.636 65.5295 126.438 66.4139 126.438H103.586C104.471 126.438 105.188 125.636 105.188 124.648V115.477C105.188 114.489 104.471 113.688 103.586 113.688Z" fill="#FFDD9D" stroke="#691D1C" stroke-width="3" stroke-linecap="round"/>
<path d="M84.0431 61.9187C90.5562 61.9187 95.8362 56.552 95.8362 49.9318C95.8362 43.3117 90.5562 37.9449 84.0431 37.9449C77.5299 37.9449 72.25 43.3117 72.25 49.9318C72.25 56.552 77.5299 61.9187 84.0431 61.9187Z" fill="#FDF8F1" stroke="#691D1C" stroke-width="3" stroke-linecap="round"/>
<path d="M71.1875 61.9189H72.504C72.0743 61.9189 71.645 61.9421 71.2177 61.9882L71.1875 61.9189Z" fill="#FDF8F1"/>
<path d="M107.618 74.0256V99.382H60.5625V74.0256C60.5625 67.7855 65.2283 62.6439 71.2184 61.9931L79.4673 80.9431L84.0892 91.5572L88.7131 80.9382L96.9621 61.9882C102.949 62.6349 107.618 67.7766 107.618 74.0256Z" fill="#FDF8F1" stroke="#691D1C" stroke-width="3" stroke-linecap="round"/>
<path d="M84.0584 61.9189L79.4364 80.9362L71.1875 61.9882C71.6148 61.9421 72.0441 61.9189 72.4738 61.9189H84.0584Z" fill="#FDF8F1" stroke="#691D1C" stroke-width="3" stroke-linecap="round"/>
<path d="M96.8045 61.9881L88.5585 80.9381L83.9375 61.9207H95.5211C95.9497 61.9202 96.3781 61.9427 96.8045 61.9881Z" fill="#FDF8F1" stroke="#691D1C" stroke-width="3" stroke-linecap="round"/>
<path d="M88.9304 80.9382L84.3094 91.5543L79.6875 80.9382L84.3094 61.9189L88.9304 80.9382Z" fill="#FDF8F1" stroke="#691D1C" stroke-width="3" stroke-linecap="round"/>
<path d="M96.9415 61.9189L96.9113 61.9882C96.484 61.9421 96.0547 61.9189 95.625 61.9189H96.9415Z" fill="#FDF8F1"/>
<path d="M95.6267 41.384H72.25V46.2394H95.6267V41.384Z" fill="#FDF8F1" stroke="#691D1C" stroke-width="3" stroke-linecap="round"/>
<path d="M100.644 34H66.9375V41.3841H100.644V34Z" fill="#FDF8F1" stroke="#691D1C" stroke-width="3" stroke-linecap="round"/>
<path d="M67.7041 54.0285C68.7143 54.0285 69.5332 53.1962 69.5332 52.1694C69.5332 51.1426 68.7143 50.3102 67.7041 50.3102C66.6939 50.3102 65.875 51.1426 65.875 52.1694C65.875 53.1962 66.6939 54.0285 67.7041 54.0285Z" fill="#FDF8F1" stroke="#691D1C" stroke-width="3" stroke-linecap="round"/>
<path d="M66.9375 41.384V50.3113" stroke="#691D1C" stroke-width="3" stroke-linecap="round"/>
<path d="M100.409 83.4649H95.2836C94.8853 83.4649 94.5625 83.793 94.5625 84.1978V84.1988C94.5625 84.6036 94.8853 84.9318 95.2836 84.9318H100.409C100.808 84.9318 101.13 84.6036 101.13 84.1988V84.1978C101.13 83.793 100.808 83.4649 100.409 83.4649Z" fill="#FDF8F1" stroke="#691D1C" stroke-width="3" stroke-linecap="round"/>
<path d="M151.419 96.6875V98.9434" stroke="#691D1C" stroke-width="3" stroke-linecap="round"/>
<path d="M151.419 104.019V106.275" stroke="#691D1C" stroke-width="3" stroke-linecap="round"/>
<path d="M146.625 101.481H148.881" stroke="#691D1C" stroke-width="3" stroke-linecap="round"/>
<path d="M153.957 101.481H156.212" stroke="#691D1C" stroke-width="3" stroke-linecap="round"/>
<path d="M24.9814 54.1875V56.4434" stroke="#691D1C" stroke-width="3" stroke-linecap="round"/>
<path d="M24.9814 61.519V63.7749" stroke="#691D1C" stroke-width="3" stroke-linecap="round"/>
<path d="M20.1875 58.9812H22.4433" stroke="#691D1C" stroke-width="3" stroke-linecap="round"/>
<path d="M27.519 58.9812H29.7749" stroke="#691D1C" stroke-width="3" stroke-linecap="round"/>
</svg>
