<svg width="170" height="170" viewBox="0 0 170 170" fill="none" xmlns="http://www.w3.org/2000/svg">
<circle cx="85" cy="85" r="85" fill="#FDF8F1"/>
<path d="M32.4189 105.188V107.443" stroke="#691D1C" stroke-width="3" stroke-linecap="round"/>
<path d="M32.4189 112.519V114.775" stroke="#691D1C" stroke-width="3" stroke-linecap="round"/>
<path d="M27.625 109.981H29.8808" stroke="#691D1C" stroke-width="3" stroke-linecap="round"/>
<path d="M34.9565 109.981H37.2124" stroke="#691D1C" stroke-width="3" stroke-linecap="round"/>
<path d="M139.731 42.5V44.7558" stroke="#691D1C" stroke-width="3" stroke-linecap="round"/>
<path d="M139.731 49.8315V52.0874" stroke="#691D1C" stroke-width="3" stroke-linecap="round"/>
<path d="M134.938 47.2937H137.193" stroke="#691D1C" stroke-width="3" stroke-linecap="round"/>
<path d="M142.269 47.2937H144.525" stroke="#691D1C" stroke-width="3" stroke-linecap="round"/>
<rect x="53.125" y="31.875" width="76.5" height="103.062" rx="10" fill="#FFDD9D"/>
<path d="M85.151 74.6687C91.6641 74.6687 96.9441 69.302 96.9441 62.6818C96.9441 56.0617 91.6641 50.6949 85.151 50.6949C78.6379 50.6949 73.3579 56.0617 73.3579 62.6818C73.3579 69.302 78.6379 74.6687 85.151 74.6687Z" fill="#FDF8F1" stroke="#691D1C" stroke-width="3" stroke-linecap="round"/>
<path d="M108.68 86.7756V112.132H61.625V86.7756C61.625 80.5355 66.2908 75.3939 72.2809 74.7431L80.5298 93.6931L85.1517 104.307L89.7756 93.6882L98.0246 74.7382C104.012 75.3849 108.68 80.5266 108.68 86.7756Z" fill="#FDF8F1" stroke="#691D1C" stroke-width="3" stroke-linecap="round"/>
<path d="M85.1521 74.6689L80.5302 93.6862L72.2812 74.7382C72.7085 74.6921 73.1379 74.6689 73.5676 74.6689H85.1521Z" fill="#FDF8F1" stroke="#691D1C" stroke-width="3" stroke-linecap="round"/>
<path d="M98.022 74.7381L89.776 93.6881L85.155 74.6707H96.7386C97.1673 74.6702 97.5957 74.6927 98.022 74.7381Z" fill="#FDF8F1" stroke="#691D1C" stroke-width="3" stroke-linecap="round"/>
<path d="M89.7727 93.6882L85.1517 104.304L80.5298 93.6882L85.1517 74.6689L89.7727 93.6882Z" fill="#FDF8F1" stroke="#691D1C" stroke-width="3" stroke-linecap="round"/>
<path d="M96.8396 54.134H73.4629V58.9894H96.8396V54.134Z" fill="#FDF8F1" stroke="#691D1C" stroke-width="3" stroke-linecap="round"/>
<path d="M102.004 46.75H68.2983V54.1341H102.004V46.75Z" fill="#FDF8F1" stroke="#691D1C" stroke-width="3" stroke-linecap="round"/>
<path d="M68.2986 66.7785C69.3087 66.7785 70.1277 65.9462 70.1277 64.9194C70.1277 63.8926 69.3087 63.0602 68.2986 63.0602C67.2884 63.0602 66.4695 63.8926 66.4695 64.9194C66.4695 65.9462 67.2884 66.7785 68.2986 66.7785Z" fill="#FDF8F1" stroke="#691D1C" stroke-width="3" stroke-linecap="round"/>
<path d="M68.2983 54.134V63.0613" stroke="#691D1C" stroke-width="3" stroke-linecap="round"/>
<path d="M101.098 96.2148H95.9721C95.5738 96.2148 95.251 96.543 95.251 96.9478V96.9488C95.251 97.3536 95.5738 97.6818 95.9721 97.6818H101.098C101.496 97.6818 101.819 97.3536 101.819 96.9488V96.9478C101.819 96.543 101.496 96.2148 101.098 96.2148Z" fill="#FDF8F1" stroke="#691D1C" stroke-width="3" stroke-linecap="round"/>
<rect x="46.75" y="26.5625" width="77.5625" height="103.062" rx="10" stroke="#691D1C" stroke-width="3"/>
<path d="M46.75 112.625H124.312" stroke="#691D1C" stroke-width="3" stroke-linecap="round"/>
<circle cx="85.5312" cy="131.219" r="12.2188" fill="#FDF8F1" stroke="#691D1C" stroke-width="3"/>
<path d="M90.2307 131.219L83.6514 126.519V135.918L90.2307 131.219Z" fill="#691D1C" stroke="#691D1C" stroke-width="3" stroke-linecap="round"/>
</svg>
