<svg width="173" height="60" viewBox="0 0 173 60" fill="none" xmlns="http://www.w3.org/2000/svg">
<path d="M168.741 10.6026C167.612 10.6015 166.53 10.1524 165.731 9.35406C164.933 8.55568 164.484 7.47316 164.483 6.34408C164.484 5.215 164.933 4.13248 165.731 3.3341C166.53 2.53572 167.612 2.08668 168.741 2.08554C169.87 2.08707 170.953 2.53622 171.751 3.33452C172.549 4.13282 172.998 5.21511 173 6.34408C172.998 7.47305 172.549 8.55534 171.751 9.35364C170.953 10.1519 169.87 10.6011 168.741 10.6026ZM168.741 2.69061C167.773 2.69138 166.844 3.07654 166.159 3.76154C165.474 4.44653 165.089 5.37535 165.088 6.34408C165.089 7.31269 165.474 8.2413 166.159 8.92621C166.844 9.61112 167.773 9.99641 168.741 9.99756C169.71 9.99641 170.638 9.61107 171.323 8.92612C172.008 8.24117 172.393 7.31256 172.394 6.34408C172.393 5.3756 172.008 4.44699 171.323 3.76204C170.638 3.07709 169.71 2.69176 168.741 2.69061Z" fill="#6A1C1A"/>
<path d="M170.781 8.67255H169.817L168.631 6.79972H167.578V8.67255H166.696V4.01495H168.686C170.053 4.01495 170.478 4.64595 170.478 5.30145C170.478 5.99584 170.069 6.40786 169.461 6.60811L170.781 8.67255ZM168.442 6.19609C169.088 6.19609 169.568 6.016 169.568 5.35331C169.568 4.8001 169.135 4.63299 168.415 4.63299H167.578V6.19609H168.442Z" fill="#6A1C1A"/>
<path d="M56.7001 9.61316H3.89478V14.3025H56.7001V9.61316Z" fill="#D4A96F"/>
<path d="M14.5865 55.4439H12.4011L10.6939 14.302H3.89406H3.89262L2.18545 55.4439H0V59.6131H14.5865V55.4439Z" fill="#6A1C1A"/>
<path d="M37.6607 55.4439H35.396L33.6889 14.302H26.8876L25.1804 55.4439H23.0742V59.6131H37.6607V55.4439Z" fill="#6A1C1A"/>
<path d="M60.575 55.4439H58.3896L56.681 14.302H49.8811L48.1725 55.4439H45.9885V59.6131H60.575V55.4439Z" fill="#6A1C1A"/>
<path d="M28.8887 0.260383L3.9209 9.61447H56.7262L31.7685 0.260383C30.84 -0.0867942 29.8172 -0.0867942 28.8887 0.260383Z" fill="#E3C17E"/>
<path d="M83.5235 8.655H90.7065V11.2482H88.1969V26.8071H90.7022V29.4003H82.9011V26.8071H85.3502V11.2482L78.2277 29.6091H77.6082L70.5361 11.2424V26.8013H72.8195V29.3945H65.4592V26.8013H67.9775V11.2424H65.4592V8.64923H72.5717L78.0346 22.8482L83.5235 8.655Z" fill="#6A1C1A"/>
<path d="M97.8737 11.2424V26.8013H100.13V29.3945H92.4944V26.8013H94.7374V11.2424H92.4944V8.64923H100.13V11.2424H97.8737Z" fill="#6A1C1A"/>
<path d="M121.909 18.7121C121.909 22.2657 120.838 24.9328 118.696 26.7134C116.555 28.494 113.37 29.3858 109.142 29.3887H101.396V26.7955H104.175V11.2366H101.396V8.64343H109.279C113.526 8.64343 116.693 9.44587 118.78 11.0507C120.867 12.6556 121.91 15.2094 121.909 18.7121ZM118.498 18.8562C118.498 17.0938 118.188 15.6584 117.568 14.5501C116.949 13.4417 115.967 12.6138 114.624 12.0664C113.279 11.5209 111.507 11.2481 109.306 11.2481H107.311V26.8071H109.279C112.471 26.8071 114.806 26.1674 116.282 24.8881C117.758 23.6088 118.497 21.5943 118.499 18.8446L118.498 18.8562Z" fill="#6A1C1A"/>
<path d="M129.574 11.2424V17.1029H138.585V11.2424H136.17V8.64923H144.11V11.2424H141.716V26.8013H144.11V29.3945H136.17V26.8013H138.592V19.6874H129.581V26.8013H132.03V29.3945H124.107V26.8013H126.445V11.2424H124.098V8.64923H132.021V11.2424H129.574Z" fill="#6A1C1A"/>
<path d="M159.21 11.1593L164.829 26.8033H167.141V29.3964H158.962V26.8033H161.671L160.062 22.0981H152.537L150.926 26.8033H153.556V29.3964H145.328V26.8033H147.832L153.417 11.1593H150.926V8.65549H161.7V11.1593H159.21ZM156.375 11.1593H156.278L153.348 19.6591H159.238L156.375 11.1593Z" fill="#6A1C1A"/>
<path d="M102.515 40.7064V36.2533H92.531V44.1524H101.136V47.4731H92.531V56.2379H95.9236V59.5601H85.1448V56.2379H88.5015V36.2533H85.1448V32.9312H105.801V40.7107L102.515 40.7064Z" fill="#D4A96F"/>
<path d="M114.67 36.2533V56.2379H117.569V59.5601H107.762V56.2379H110.644V36.2533H107.762V32.9312H117.569V36.2533H114.67Z" fill="#D4A96F"/>
<path d="M140.327 36.2533H136.528V32.9312H147.449V36.2533H143.544V59.8424H139.41L126.634 37.0803V56.2408H130.45V59.5629H119.549V56.2408H123.349V36.2533H119.55V32.9312H128.627L140.323 53.6232L140.327 36.2533Z" fill="#D4A96F"/>
</svg>
