<svg width="170" height="170" viewBox="0 0 170 170" fill="none" xmlns="http://www.w3.org/2000/svg">
<circle cx="85" cy="85" r="85" fill="#FDF8F1"/>
<path d="M122.188 53.922V119.263C122.188 122.011 121.102 124.647 119.169 126.59C117.237 128.533 114.616 129.625 111.883 129.625H66.6173C63.8843 129.625 61.2632 128.533 59.3307 126.59C57.3982 124.647 56.3125 122.011 56.3125 119.263V51.7997C56.3125 49.0515 57.3982 46.4158 59.3307 44.4725C61.2632 42.5292 63.8843 41.4375 66.6173 41.4375H109.772L122.188 53.922Z" fill="#FFDD9D"/>
<path d="M45.1689 129.625V131.881" stroke="#6A1C1A" stroke-width="3" stroke-linecap="round"/>
<path d="M45.1689 136.957V139.212" stroke="#6A1C1A" stroke-width="3" stroke-linecap="round"/>
<path d="M40.375 134.419H42.6308" stroke="#6A1C1A" stroke-width="3" stroke-linecap="round"/>
<path d="M47.7065 134.419H49.9624" stroke="#6A1C1A" stroke-width="3" stroke-linecap="round"/>
<path d="M125.919 29.75V32.0058" stroke="#6A1C1A" stroke-width="3" stroke-linecap="round"/>
<path d="M125.919 37.0815V39.3374" stroke="#6A1C1A" stroke-width="3" stroke-linecap="round"/>
<path d="M121.125 34.5437H123.381" stroke="#6A1C1A" stroke-width="3" stroke-linecap="round"/>
<path d="M128.457 34.5437H130.712" stroke="#6A1C1A" stroke-width="3" stroke-linecap="round"/>
<path d="M116.875 49.672V115.013C116.875 117.761 115.789 120.397 113.857 122.34C111.924 124.283 109.303 125.375 106.57 125.375H61.3048C58.5718 125.375 55.9507 124.283 54.0182 122.34C52.0857 120.397 51 117.761 51 115.013V47.5497C51 44.8015 52.0857 42.1658 54.0182 40.2225C55.9507 38.2792 58.5718 37.1875 61.3048 37.1875H104.46L116.875 49.672Z" stroke="#6A1C1A" stroke-width="3" stroke-miterlimit="10"/>
<path d="M105.188 37.1875V46.1412C105.188 47.1481 105.554 48.1136 106.207 48.8256C106.859 49.5375 107.745 49.9375 108.667 49.9375H116.875" stroke="#6A1C1A" stroke-width="3" stroke-miterlimit="10"/>
<rect x="61.625" y="72.25" width="9.17105" height="9.5625" rx="1" stroke="#6A1C1A" stroke-width="3" stroke-linejoin="round"/>
<path d="M77.0532 74.0596H105.187" stroke="#6A1C1A" stroke-width="3" stroke-linecap="round"/>
<path d="M77.0532 79.7373H90.6665" stroke="#6A1C1A" stroke-width="3" stroke-linecap="round"/>
<rect x="61.625" y="88.1875" width="9.17105" height="9.5625" rx="1" stroke="#6A1C1A" stroke-width="3" stroke-linejoin="round"/>
<path d="M77.5625 90.3125H98.8125" stroke="#6A1C1A" stroke-width="3" stroke-linecap="round"/>
<path d="M77.0532 95.5918H90.6665" stroke="#6A1C1A" stroke-width="3" stroke-linecap="round"/>
<rect x="61.625" y="56.3125" width="9.17105" height="9.5625" rx="1" stroke="#6A1C1A" stroke-width="3" stroke-linejoin="round"/>
<path d="M77.0532 58.2051H105.187" stroke="#6A1C1A" stroke-width="3" stroke-linecap="round"/>
<path d="M77.0532 63.8828H90.6665" stroke="#6A1C1A" stroke-width="3" stroke-linecap="round"/>
<rect x="61.625" y="104.125" width="9.17105" height="9.5625" rx="1" stroke="#6A1C1A" stroke-width="3" stroke-linejoin="round"/>
<path d="M77.5625 106.25H99.875" stroke="#6A1C1A" stroke-width="3" stroke-linecap="round"/>
<path d="M77.0532 111.795H90.6665" stroke="#6A1C1A" stroke-width="3" stroke-linecap="round"/>
<circle cx="116.875" cy="96.6875" r="13.8125" fill="#FDF8F1" stroke="#6A1C1A" stroke-width="3"/>
<path d="M115.431 98.4844V98.1932C115.431 97.3883 115.497 96.7467 115.63 96.2685C115.767 95.7902 115.966 95.4067 116.226 95.1179C116.487 94.8243 116.804 94.5568 117.178 94.3153C117.476 94.1259 117.742 93.9342 117.974 93.7401C118.21 93.5412 118.397 93.3281 118.535 93.1009C118.672 92.8736 118.741 92.6155 118.741 92.3267C118.741 92.0473 118.674 91.8011 118.542 91.5881C118.409 91.375 118.227 91.2116 117.995 91.098C117.768 90.9796 117.514 90.9205 117.235 90.9205C116.956 90.9205 116.693 90.9844 116.447 91.1122C116.205 91.2401 116.006 91.4223 115.85 91.6591C115.698 91.8911 115.62 92.1728 115.616 92.5043H112.349C112.363 91.5099 112.592 90.6955 113.037 90.0611C113.487 89.4266 114.081 88.9579 114.82 88.6548C115.559 88.3471 116.373 88.1932 117.263 88.1932C118.239 88.1932 119.105 88.3447 119.863 88.6477C120.625 88.9508 121.224 89.3982 121.66 89.9901C122.095 90.5819 122.313 91.3063 122.313 92.1634C122.313 92.7268 122.218 93.224 122.029 93.6548C121.84 94.0857 121.574 94.4669 121.233 94.7983C120.897 95.125 120.502 95.4233 120.047 95.6932C119.692 95.9015 119.396 96.1193 119.16 96.3466C118.928 96.5739 118.752 96.8343 118.634 97.1278C118.516 97.4167 118.456 97.7718 118.456 98.1932V98.4844H115.431ZM117.001 103.143C116.489 103.143 116.051 102.964 115.687 102.604C115.327 102.244 115.149 101.808 115.154 101.297C115.149 100.795 115.327 100.366 115.687 100.011C116.051 99.6515 116.489 99.4716 117.001 99.4716C117.488 99.4716 117.917 99.6515 118.286 100.011C118.655 100.366 118.842 100.795 118.847 101.297C118.842 101.638 118.752 101.948 118.577 102.227C118.407 102.507 118.182 102.729 117.903 102.895C117.628 103.061 117.327 103.143 117.001 103.143Z" fill="#6A1C1A"/>
</svg>
