<svg width="387" height="333" viewBox="0 0 387 333" fill="none" xmlns="http://www.w3.org/2000/svg">
<path d="M381.914 57.5255C378.913 47.5733 373.635 38.425 366.081 30.0808C358.528 21.7365 348.204 14.8345 335.11 9.37478C322.032 3.92017 305.417 1.19287 285.265 1.19287C269.187 1.19287 252.803 3.35625 236.11 7.68303C219.418 12.0098 204.917 18.1907 192.608 26.2256L208.61 70.0573L200.034 76.9781L212.472 80.6256C224.749 74.2158 235.934 69.5609 246.028 66.661C256.122 63.7611 266.836 62.3188 278.168 62.3342C289.508 62.3342 298.093 65.0615 303.923 70.5161C309.753 75.9861 312.659 82.5634 312.659 90.2532C312.659 99.563 309.669 107.828 303.69 115.048C297.71 122.267 291.089 129.572 283.828 136.961C278.794 142.087 273.912 147.38 269.183 152.838C264.461 158.292 260.268 164.18 256.66 170.424C252.977 176.806 250.046 183.59 247.924 190.643C245.709 197.87 244.607 205.973 244.617 214.953C244.617 217.852 244.679 221.3 244.849 225.314C244.877 226.052 244.915 226.775 244.959 227.487H233.202L246.033 236.144H308.42C308.078 233.914 307.92 231.66 307.944 229.405V223.619C307.965 218.078 309.089 212.596 311.251 207.491C313.477 202.162 316.251 197.077 319.53 192.32C322.865 187.464 326.579 182.878 330.637 178.606C334.731 174.264 338.671 170.168 342.456 166.318C347.487 161.191 352.682 155.737 358.042 149.954C363.311 144.294 368.059 138.172 372.227 131.663C376.397 125.083 379.804 118.052 382.381 110.705C385.059 103.166 386.403 94.9013 386.413 85.9111C386.423 76.9209 384.923 67.459 381.914 57.5255Z" fill="#AB7651"/>
<path d="M265.191 59.2738C253.976 59.2738 243.394 60.6724 233.446 63.4695C223.497 66.2666 212.449 70.779 200.301 77.0066L180.682 24.2652C192.825 16.4849 207.145 10.4935 223.644 6.291C240.142 2.08846 256.326 -0.00853305 272.196 2.6095e-05C292.107 2.6095e-05 308.52 2.64394 321.435 7.93178C334.35 13.2196 344.547 19.9103 352.027 28.0038C359.488 36.1042 364.7 44.974 367.663 54.6133C370.627 64.2527 372.106 73.4306 372.101 82.1473C372.101 90.8673 370.774 98.8804 368.12 106.186C365.566 113.32 362.201 120.137 358.09 126.502C353.964 132.824 349.274 138.759 344.079 144.235C338.789 149.842 333.653 155.129 328.671 160.099C324.932 163.837 321.042 167.809 317 172.013C312.997 176.149 309.328 180.595 306.027 185.309C302.795 189.912 300.055 194.842 297.85 200.017C295.716 204.955 294.605 210.275 294.584 215.654V221.26C294.558 223.448 294.716 225.634 295.057 227.795H233.425C232.751 224.332 232.36 220.821 232.254 217.295C232.087 213.405 232.026 210.062 232.026 207.25C232.026 198.542 233.115 190.686 235.295 183.681C237.396 176.832 240.293 170.253 243.926 164.079C247.503 158.013 251.652 152.303 256.316 147.026C260.983 141.737 265.806 136.601 270.784 131.62C277.94 124.465 284.48 117.384 290.403 110.377C296.299 103.372 299.253 95.3592 299.263 86.3378C299.263 78.8605 296.389 72.4951 290.632 67.1902C284.875 61.8852 276.393 59.2738 265.191 59.2738Z" fill="#E3A072"/>
<path d="M313.065 297.064C313.065 308.264 309.409 316.909 302.096 323.001C294.784 329.093 286.513 332.143 277.286 332.151C268.043 332.151 259.77 329.101 252.466 323.001C245.161 316.901 241.509 308.255 241.507 297.064C241.507 285.88 245.16 277.235 252.466 271.13C263.724 261.71 280.377 259.618 293.56 266.221C305.255 272.089 313.065 284 313.065 297.064Z" fill="#AB7651"/>
<path d="M300.542 296.967C300.542 308.197 296.916 316.867 289.665 322.975C282.413 329.084 274.212 332.143 265.061 332.151C255.895 332.151 247.691 329.093 240.448 322.975C233.204 316.858 229.582 308.189 229.58 296.967C229.58 285.752 233.203 277.083 240.448 270.961C247.693 264.839 255.897 261.78 265.061 261.785C274.213 261.785 282.415 264.844 289.665 270.961C296.915 277.078 300.541 285.747 300.542 296.967Z" fill="#E3A072"/>
<path d="M48.228 313.569L51.681 327.255C52.1546 329.012 53.2094 330.545 54.6639 331.589C56.1185 332.633 57.8816 333.123 59.6497 332.974C70.9745 332.184 94.4964 329.332 108 319.104L104.163 299.382C85.598 298.301 68.2357 299.363 53.1922 304.547C49.4484 305.868 47.2624 309.746 48.228 313.569Z" fill="#102048"/>
<path d="M70.5096 323.993C70.404 323.992 70.3016 323.961 70.2175 323.904C70.1334 323.846 70.0721 323.766 70.0428 323.676L65.0178 307.554C65.0007 307.499 64.9958 307.441 65.0036 307.384C65.0113 307.327 65.0314 307.272 65.0629 307.222C65.0943 307.173 65.1364 307.129 65.1867 307.093C65.237 307.058 65.2946 307.032 65.3562 307.017C65.4178 307.001 65.4822 306.996 65.5458 307.003C65.6094 307.01 65.6709 307.028 65.7266 307.056C65.7824 307.084 65.8313 307.122 65.8705 307.167C65.9098 307.213 65.9385 307.265 65.9552 307.32L70.9802 323.449C71.0017 323.514 71.0058 323.582 70.9921 323.649C70.9784 323.715 70.9473 323.778 70.9014 323.832C70.8555 323.886 70.7961 323.929 70.728 323.958C70.6599 323.987 70.585 324.002 70.5096 324V323.993Z" fill="white"/>
<path d="M80.5122 322C80.4063 322 80.3032 321.969 80.2188 321.912C80.1344 321.855 80.0734 321.774 80.0453 321.683L75.0178 305.553C74.9832 305.442 74.9995 305.322 75.063 305.222C75.1264 305.121 75.232 305.047 75.3563 305.016C75.4807 304.985 75.6137 305 75.7261 305.056C75.8384 305.113 75.921 305.208 75.9556 305.319L80.983 321.449C81.0166 321.56 80.9999 321.679 80.9366 321.78C80.8732 321.88 80.7683 321.954 80.6445 321.986C80.6013 321.996 80.5568 322 80.5122 322Z" fill="white"/>
<path d="M91.995 241.738L49 254.522L80.9279 298.349L126.77 302L190 275.219L165.974 239L91.995 241.738Z" fill="#671C19"/>
<path d="M144.67 247.729C239.543 219.55 254.78 303.684 106.764 319C101.535 313.097 95.4257 302.851 93 294.29L171.166 258.043L144.67 247.729Z" fill="#671C19"/>
<path d="M148.825 308.126C144.409 306.724 140.178 304 140.178 304L125 308.666L128.476 324.845L144.237 328C149.047 319.376 149.319 312.305 148.825 308.126Z" fill="#F9B384"/>
<path d="M93.6799 295L93 293.839C109.324 284.392 151.129 261.692 186.752 255L187 256.322C151.586 262.975 109.939 285.588 93.6799 295Z" fill="#2E3442"/>
<path d="M91.7582 242.174C4.10391 225.488 -18.5954 309.839 128.335 325C133.796 318.908 137.788 311.641 140 303.76C117.433 288.638 92.197 274.264 64.539 260.571L91.7582 242.174Z" fill="#671C19"/>
<path d="M140.263 304C136.061 301.351 131.682 298.552 127.045 295.586C103.78 280.706 77.4059 263.842 55 254.225L55.5392 253C78.0457 262.66 104.467 279.556 127.793 294.464C132.427 297.43 136.801 300.229 141 302.875L140.263 304Z" fill="#2E3442"/>
<path d="M27.1688 284L26 283.333C29.2855 277.179 34.5523 273.016 41.6437 271L42 272.33C35.1688 274.287 30.3189 278.104 27.1688 284Z" fill="#2E3442"/>
<path d="M210.835 279C207.685 273.106 202.831 269.29 196 267.33L196.356 266C203.451 268.033 208.714 272.181 212 278.333L210.835 279Z" fill="#2E3442"/>
<path d="M120.009 324L119 323.079C126.267 315.618 130.729 307.74 132.643 299L134 299.273C132.026 308.257 127.454 316.341 120.009 324Z" fill="#2E3442"/>
<path d="M192.537 303.163C181.248 296.196 159.363 308.235 153.869 308.84C152.266 309.019 150.415 308.668 148.594 308.088C149.096 312.357 148.816 319.581 144 328.374L146.686 328.919C146.686 328.919 165.244 335.724 184.931 331.759C203.102 328.109 201.413 308.639 192.537 303.163Z" fill="#102048"/>
<path d="M177.535 326C177.489 326 177.443 325.992 177.398 325.978C177.285 325.941 177.19 325.86 177.135 325.752C177.081 325.644 177.07 325.518 177.107 325.403C178.453 321.064 179.04 312.526 175.14 306.79C175.092 306.744 175.055 306.687 175.031 306.624C175.006 306.561 174.996 306.493 175.001 306.426C175.006 306.358 175.025 306.293 175.058 306.234C175.09 306.175 175.135 306.124 175.19 306.085C175.244 306.045 175.306 306.019 175.371 306.007C175.437 305.995 175.504 305.998 175.568 306.016C175.632 306.034 175.692 306.066 175.742 306.11C175.793 306.154 175.833 306.208 175.861 306.27C179.948 312.273 179.346 321.166 177.946 325.692C177.915 325.779 177.86 325.855 177.787 325.91C177.714 325.965 177.626 325.996 177.535 326Z" fill="white"/>
<path d="M168.501 327C168.455 327 168.41 326.993 168.366 326.979C168.309 326.962 168.256 326.935 168.21 326.898C168.164 326.862 168.126 326.817 168.099 326.766C168.071 326.715 168.054 326.66 168.048 326.603C168.043 326.546 168.05 326.488 168.068 326.434C169.429 322.293 170.022 314.154 166.08 308.685C166.046 308.638 166.023 308.585 166.01 308.529C165.998 308.472 165.997 308.415 166.008 308.358C166.018 308.302 166.041 308.248 166.073 308.2C166.106 308.151 166.148 308.11 166.197 308.077C166.246 308.045 166.302 308.022 166.36 308.01C166.419 307.998 166.479 307.997 166.538 308.007C166.596 308.018 166.653 308.039 166.703 308.07C166.753 308.101 166.796 308.142 166.83 308.189C170.958 313.913 170.35 322.394 168.934 326.71C168.903 326.796 168.844 326.87 168.766 326.922C168.688 326.974 168.596 327.001 168.501 327Z" fill="white"/>
<path d="M76.1582 133C76.1582 133 98.3105 113.96 97.4907 110.341C96.9072 107.754 90.6316 111.546 90.6316 111.546C90.6316 111.546 99.431 100.995 98.9835 99.71C98.1852 97.4231 92.0958 101.689 92.0958 101.689C92.0958 101.689 96.2127 95.7043 94.2437 94.7309C92.2748 93.7575 87.9897 97.4448 87.9897 97.4448C87.9897 97.4448 90.4956 94.1194 89.3178 93.2473C88.14 92.3753 83.0638 95.9612 83.0638 95.9612C83.0638 95.9612 84.8859 91.771 81.0125 93.3595C77.1391 94.948 50 120.136 50 120.136L76.1582 133Z" fill="#F9B384"/>
<path d="M85.5199 110C85.4062 110 85.2967 109.961 85.2132 109.893C81.3358 106.742 79.6234 105.975 75.3553 104.802C75.2939 104.79 75.2361 104.766 75.1854 104.733C75.1348 104.7 75.0924 104.657 75.061 104.609C75.0296 104.56 75.0098 104.507 75.0028 104.451C74.9958 104.395 75.0019 104.339 75.0206 104.286C75.0393 104.232 75.0702 104.183 75.1114 104.14C75.1526 104.098 75.2032 104.064 75.26 104.04C75.3168 104.015 75.3786 104.002 75.4415 104C75.5044 103.998 75.567 104.008 75.6255 104.029C80.0579 105.241 81.8323 106.033 85.8485 109.292C85.9176 109.347 85.9661 109.42 85.9876 109.5C86.0091 109.58 86.0025 109.664 85.9688 109.741C85.9351 109.818 85.8758 109.884 85.7989 109.931C85.7219 109.977 85.631 110.001 85.5382 110H85.5199Z" fill="#E28B6D"/>
<path d="M78.4745 120H78.4063C78.2823 119.983 78.1704 119.92 78.0951 119.825C78.0198 119.73 77.9872 119.611 78.0045 119.493C78.4632 116.367 79.5206 114.413 81.1769 113.518C82.6095 112.756 84.4743 112.835 86.7142 113.751C86.8298 113.799 86.9207 113.888 86.9669 114C87.0131 114.111 87.0108 114.235 86.9606 114.344C86.9103 114.454 86.8162 114.54 86.6989 114.584C86.5816 114.628 86.4508 114.626 86.3352 114.578C84.3795 113.777 82.799 113.683 81.6393 114.301C80.2597 115.02 79.3652 116.816 78.9369 119.616C78.9214 119.722 78.8662 119.819 78.7813 119.889C78.6963 119.96 78.5875 119.999 78.4745 120Z" fill="#E28B6D"/>
<path d="M77.424 102C77.3671 101.999 77.3109 101.984 77.2588 101.956C77.2067 101.928 77.1597 101.888 77.1207 101.837C77.0434 101.741 77 101.612 77 101.477C77 101.343 77.0434 101.214 77.1207 101.118L82.2961 95.1397C82.3766 95.0465 82.4839 94.9964 82.5945 95.0002C82.7052 95.004 82.81 95.0615 82.886 95.1601C82.962 95.2586 83.003 95.3902 82.9998 95.5257C82.9967 95.6612 82.9498 95.7897 82.8694 95.8829L77.6939 101.857C77.6213 101.944 77.5252 101.995 77.424 102Z" fill="#E28B6D"/>
<path d="M82.4294 103C82.3453 102.999 82.2633 102.975 82.1933 102.93C82.1232 102.885 82.0683 102.822 82.0351 102.747C82.002 102.672 81.992 102.59 82.0065 102.51C82.0209 102.43 82.0592 102.356 82.1166 102.297L87.2454 97.1433C87.2835 97.1008 87.3303 97.0662 87.3827 97.0416C87.4352 97.017 87.4923 97.003 87.5506 97.0004C87.6088 96.9979 87.667 97.0067 87.7216 97.0265C87.7762 97.0464 87.826 97.0767 87.8681 97.1157C87.9101 97.1547 87.9435 97.2015 87.9662 97.2533C87.9889 97.3052 88.0004 97.3609 88 97.4172C87.9996 97.4734 87.9874 97.529 87.964 97.5806C87.9407 97.6322 87.9067 97.6786 87.8641 97.7171L82.7388 102.871C82.6989 102.911 82.651 102.944 82.5978 102.966C82.5446 102.988 82.4874 103 82.4294 103Z" fill="#E28B6D"/>
<path d="M87.5271 106C87.3934 105.998 87.2651 105.958 87.167 105.887C87.065 105.811 87.0051 105.707 87.0003 105.596C86.9955 105.486 87.0463 105.379 87.1416 105.298L92.098 101.12C92.1951 101.045 92.3256 101.002 92.4621 101C92.5987 100.998 92.7308 101.038 92.8309 101.111C92.9309 101.184 92.9912 101.285 92.9991 101.392C93.007 101.499 92.9619 101.605 92.8733 101.686L87.9168 105.867C87.8667 105.909 87.8064 105.942 87.7394 105.965C87.6724 105.988 87.6001 106 87.5271 106Z" fill="#E28B6D"/>
<path d="M159.794 258.866L78.9347 262L70 188.116C70 188.116 97.0685 162.378 107.483 152.903L125.066 152C179.629 176.85 170.694 207.89 159.794 258.866Z" fill="#C3C560"/>
<path d="M125 152C125 152 187.351 157.345 206.984 200.172C226.214 242.076 147.193 257 147.193 257L125 152Z" fill="#C3C560"/>
<path d="M53.3989 160.845L79.1973 129.566L55.0721 115C45.0079 121.971 25.5483 137.762 9.05599 155.644C5.41647 159.591 2.57062 164.193 1.14055 169.276C-0.0562998 173.435 -0.315127 177.805 0.382616 182.075C2.1702 192.993 10.7935 201.421 22.302 202.764C32.1302 203.907 69.6731 200.983 100.062 192.078L109 157.706C104.406 155.095 70.2737 154.643 53.3989 160.845Z" fill="#C3C560"/>
<path d="M131 135.137V136.297L130.814 154.312L130.792 156.264C130.664 159.154 129.419 161.884 127.317 163.884C125.214 165.884 122.416 167 119.505 167C116.595 167 113.797 165.884 111.694 163.884C109.592 161.884 108.347 159.154 108.219 156.264L108 134L131 135.137Z" fill="#F9B384"/>
<path d="M131 136L130.819 154C121.025 149.928 117 139.098 117 139.098L131 136Z" fill="#102048"/>
<path d="M134.968 105.559C138.538 109.8 148.955 133.826 138.394 142.023C126.507 151.248 108.424 136.087 108.424 136.087L106 108.099L121.698 104L134.968 105.559Z" fill="#F9B384"/>
<path d="M97.6564 104C97.6564 104 62.6673 122.107 91.1986 174.3C94.8619 181.001 102.978 183.928 109.92 180.656C111.68 179.823 113.247 178.64 114.525 177.179C115.803 175.719 116.764 174.013 117.348 172.168C117.932 170.323 118.127 168.378 117.92 166.455C117.713 164.532 117.11 162.672 116.146 160.99C111.48 152.766 106.974 142.176 108.907 134.293L97.6564 104Z" fill="#102048"/>
<path d="M107.845 118.991C111.506 115.328 111.506 109.39 107.845 105.727C104.184 102.064 98.2479 102.064 94.5869 105.727C90.9259 109.39 90.9259 115.328 94.5869 118.991C98.2479 122.654 104.184 122.654 107.845 118.991Z" fill="#6A1A24"/>
<path d="M112.46 123.424C111.438 117.594 110.816 113.594 116.775 110.588C116.775 110.588 137.774 114.366 141.781 106.531C145.788 98.6952 139.681 86.3238 126.893 94.9169C94.1536 88.59 89.7631 118.898 99.6897 129L109.486 127.513C109.955 127.442 110.404 127.278 110.808 127.033C111.212 126.788 111.563 126.466 111.84 126.085C112.117 125.704 112.314 125.273 112.421 124.816C112.527 124.359 112.541 123.886 112.46 123.424Z" fill="#102048"/>
<path d="M128.5 125C129.328 125 130 124.328 130 123.5C130 122.672 129.328 122 128.5 122C127.672 122 127 122.672 127 123.5C127 124.328 127.672 125 128.5 125Z" fill="#102048"/>
<path d="M138.5 120C139.328 120 140 119.552 140 119C140 118.448 139.328 118 138.5 118C137.672 118 137 118.448 137 119C137 119.552 137.672 120 138.5 120Z" fill="#102048"/>
<path d="M137.349 128C137.238 128 137.131 127.958 137.051 127.883C136.969 127.802 136.923 127.694 136.923 127.58C136.923 127.467 136.969 127.359 137.051 127.278C137.668 126.642 138.345 125.749 138.062 125.102C137.78 124.454 136.517 124.138 135.947 124.138C134.721 124.138 134.131 121.997 134.024 121.568C134.004 121.511 133.996 121.451 134.002 121.392C134.007 121.332 134.025 121.274 134.054 121.222C134.084 121.17 134.124 121.124 134.173 121.088C134.221 121.052 134.277 121.026 134.336 121.012C134.395 120.998 134.457 120.996 134.517 121.007C134.577 121.018 134.634 121.041 134.685 121.074C134.735 121.108 134.778 121.152 134.81 121.202C134.842 121.253 134.863 121.31 134.872 121.369C135.095 122.274 135.601 123.284 135.947 123.284C136.533 123.284 138.337 123.553 138.859 124.762C139.237 125.628 138.859 126.67 137.664 127.883C137.622 127.922 137.573 127.952 137.519 127.972C137.465 127.992 137.407 128.002 137.349 128Z" fill="#102048"/>
<path d="M137.574 133C137.489 133 137.407 132.973 137.337 132.921C134.515 130.88 131.661 132.593 131.634 132.609C131.586 132.639 131.533 132.658 131.478 132.666C131.422 132.674 131.366 132.67 131.313 132.654C131.259 132.639 131.209 132.612 131.164 132.576C131.12 132.54 131.083 132.495 131.056 132.443C131 132.338 130.986 132.214 131.015 132.097C131.044 131.981 131.114 131.881 131.211 131.819C131.347 131.736 134.554 129.811 137.811 132.168C137.857 132.202 137.897 132.244 137.928 132.294C137.96 132.344 137.981 132.4 137.992 132.458C138.003 132.517 138.003 132.578 137.992 132.636C137.98 132.695 137.959 132.751 137.927 132.8C137.888 132.862 137.835 132.912 137.774 132.947C137.712 132.982 137.643 133 137.574 133Z" fill="#102048"/>
<path d="M128.738 117.623C129.638 119.059 128.072 119.361 126.235 120.178C124.398 120.995 122.52 121.311 122.09 120.623C121.661 119.935 122.802 118.711 124.639 117.88C126.476 117.05 128.043 116.525 128.738 117.623Z" fill="#102048"/>
<path d="M134.038 115.131C134.379 116.527 135.307 115.918 136.675 115.51C138.043 115.101 139.145 114.352 138.984 113.686C138.824 113.02 137.593 112.801 136.228 113.198C134.863 113.595 133.782 114.053 134.038 115.131Z" fill="#102048"/>
<path opacity="0.4" d="M125.265 133.074C126.923 131.544 127.027 128.96 125.498 127.301C123.969 125.643 121.385 125.539 119.728 127.068C118.07 128.598 117.966 131.183 119.495 132.841C121.024 134.5 123.607 134.604 125.265 133.074Z" fill="#EB5D60"/>
<path d="M111.952 133.982C113.818 131.563 113.104 127.881 110.356 125.76C107.609 123.638 103.868 123.88 102.002 126.299C100.135 128.719 100.849 132.401 103.597 134.522C106.345 136.644 110.085 136.402 111.952 133.982Z" fill="#F9B384"/>
<path d="M109.558 132C109.442 132 109.33 131.964 109.248 131.899C109.166 131.835 109.12 131.747 109.12 131.656C109.124 131.159 108.971 130.669 108.676 130.229C108.381 129.789 107.952 129.413 107.427 129.134C107.013 128.902 106.534 128.754 106.03 128.702C105.526 128.649 105.013 128.695 104.537 128.834C104.436 128.852 104.33 128.84 104.238 128.803C104.146 128.765 104.074 128.703 104.034 128.628C103.994 128.553 103.989 128.469 104.02 128.392C104.051 128.314 104.116 128.247 104.203 128.203C104.814 128.022 105.471 127.96 106.119 128.025C106.767 128.089 107.384 128.277 107.918 128.572C108.562 128.914 109.088 129.374 109.452 129.913C109.815 130.452 110.003 131.053 110 131.663C109.998 131.753 109.95 131.839 109.867 131.903C109.785 131.966 109.673 132.001 109.558 132Z" fill="#102048"/>
<path d="M53.2175 160.645L39.0693 175.958L39.7275 176.567L53.8756 161.254L53.2175 160.645Z" fill="#102048"/>
<path d="M153.258 226L153 225.147C163.275 222.02 173.247 218.279 182.285 207L183 207.557C173.787 219.036 163.68 222.83 153.258 226Z" fill="#102048"/>
<path d="M159.295 192H71.7053C68.5552 192 66 194.764 66 198.178V260.819C66 264.232 68.5552 267 71.7053 267H159.295C162.445 267 165 264.232 165 260.819V198.181C165 194.764 162.445 192 159.295 192Z" fill="#EEDABC"/>

</svg>
