<svg width="160" height="163" viewBox="0 0 160 163" fill="none" xmlns="http://www.w3.org/2000/svg">
<ellipse cx="80" cy="81.3146" rx="80" ry="81.3146" fill="#FDF8F1"/>
<path d="M107.478 78.1388C107.528 82.074 106.773 85.9769 105.262 89.6002C103.75 93.2234 101.515 96.4881 98.6967 99.1872C96.561 101.221 94.8565 103.677 93.6879 106.404C92.5193 109.131 91.9112 112.072 91.9008 115.047V115.238H67.0052V115.047C67.0131 112.098 66.4246 109.179 65.2763 106.471C64.128 103.762 62.4444 101.323 60.3299 99.3038C57.5167 96.641 55.274 93.4171 53.7419 89.8335C52.2098 86.25 51.4213 82.3838 51.4256 78.4765C51.4255 70.9278 54.3732 63.6876 59.6211 58.3462C64.869 53.0048 71.9881 49.9988 79.4148 49.9885C86.7928 49.9925 93.8729 52.9479 99.1243 58.2156C104.376 63.4833 107.376 70.6402 107.478 78.1388Z" fill="#FFDD9D" stroke="#691D1C" stroke-width="3" stroke-linecap="round"/>
<path d="M90.2689 115.238H68.6345C66.2211 115.238 64.2646 117.227 64.2646 119.68C64.2646 122.133 66.2211 124.122 68.6345 124.122H90.2689C92.6823 124.122 94.6388 122.133 94.6388 119.68C94.6388 117.227 92.6823 115.238 90.2689 115.238Z" fill="#BE4E1E" stroke="#691D1C" stroke-width="3" stroke-linecap="round"/>
<path d="M81.2941 134H77.6124C75.0387 134 72.5704 132.961 70.7505 131.111C68.9306 129.261 67.9082 126.752 67.9082 124.136H91.0277C91.0258 125.434 90.7725 126.718 90.2823 127.915C89.7921 129.113 89.0746 130.201 88.1707 131.117C87.2669 132.033 86.1944 132.759 85.0145 133.254C83.8346 133.748 82.5704 134.002 81.2941 134Z" stroke="#691D1C" stroke-width="3" stroke-linecap="round"/>
<path d="M116.405 112.258L110.021 106.415" stroke="#691D1C" stroke-width="3" stroke-linecap="round"/>
<path d="M126.745 94.0552L118.579 91.3591" stroke="#691D1C" stroke-width="3" stroke-linecap="round"/>
<path d="M128.906 73.1533L120.355 74.0679" stroke="#691D1C" stroke-width="3" stroke-linecap="round"/>
<path d="M122.519 53.166L115.079 57.5299" stroke="#691D1C" stroke-width="3" stroke-linecap="round"/>
<path d="M108.68 37.5486L103.631 44.6116" stroke="#691D1C" stroke-width="3" stroke-linecap="round"/>
<path d="M89.7926 29L88.0046 37.5425" stroke="#691D1C" stroke-width="3" stroke-linecap="round"/>
<path d="M70.9017 37.5425L69.1167 29" stroke="#691D1C" stroke-width="3" stroke-linecap="round"/>
<path d="M55.2749 44.6116L50.2258 37.5486" stroke="#691D1C" stroke-width="3" stroke-linecap="round"/>
<path d="M43.8271 57.5299L36.3901 53.166" stroke="#691D1C" stroke-width="3" stroke-linecap="round"/>
<path d="M38.5514 74.0679L30 73.1533" stroke="#691D1C" stroke-width="3" stroke-linecap="round"/>
<path d="M40.3305 91.3591L32.1614 94.0552" stroke="#691D1C" stroke-width="3" stroke-linecap="round"/>
<path d="M48.8849 106.412L42.5007 112.258" stroke="#691D1C" stroke-width="3" stroke-linecap="round"/>
<path d="M69.4913 73.9951C69.4913 72.6963 69.9083 71.3838 70.7422 70.0576C71.5762 68.7178 72.793 67.6104 74.3926 66.7354C75.9922 65.8604 77.8584 65.4229 79.9913 65.4229C81.9737 65.4229 83.7237 65.792 85.2413 66.5303C86.7588 67.2549 87.9278 68.2461 88.7481 69.5039C89.5821 70.7617 89.9991 72.1289 89.9991 73.6055C89.9991 74.7676 89.7598 75.7861 89.2813 76.6611C88.8165 77.5361 88.2559 78.2949 87.5997 78.9375C86.9571 79.5664 85.795 80.6328 84.1133 82.1367C83.6485 82.5605 83.2725 82.9365 82.9854 83.2646C82.712 83.5791 82.5069 83.873 82.3702 84.1465C82.2334 84.4062 82.1241 84.6729 82.042 84.9463C81.9737 85.2061 81.8643 85.6709 81.7139 86.3408C81.4542 87.7627 80.6407 88.4736 79.2735 88.4736C78.5625 88.4736 77.961 88.2412 77.4688 87.7764C76.9903 87.3115 76.751 86.6211 76.751 85.7051C76.751 84.5566 76.9288 83.5654 77.2842 82.7314C77.6397 81.8838 78.1114 81.1455 78.6993 80.5166C79.2872 79.874 80.0801 79.1152 81.0782 78.2402C81.9532 77.4746 82.5821 76.9004 82.9649 76.5176C83.3614 76.1211 83.6895 75.6836 83.9493 75.2051C84.2227 74.7266 84.3594 74.207 84.3594 73.6465C84.3594 72.5527 83.9493 71.6299 83.129 70.8779C82.3223 70.126 81.2764 69.75 79.9913 69.75C78.4874 69.75 77.3799 70.1328 76.669 70.8984C75.9581 71.6504 75.3565 72.7646 74.8643 74.2412C74.3995 75.7861 73.5176 76.5586 72.2188 76.5586C71.4532 76.5586 70.8038 76.292 70.2706 75.7588C69.751 75.2119 69.4913 74.624 69.4913 73.9951ZM79.4991 96.4717C78.6651 96.4717 77.9336 96.2051 77.3047 95.6719C76.6895 95.125 76.3819 94.3662 76.3819 93.3955C76.3819 92.5342 76.6827 91.8096 77.2842 91.2217C77.8858 90.6338 78.6241 90.3398 79.4991 90.3398C80.3604 90.3398 81.085 90.6338 81.6729 91.2217C82.2608 91.8096 82.5547 92.5342 82.5547 93.3955C82.5547 94.3525 82.2471 95.1045 81.6319 95.6514C81.0167 96.1982 80.3057 96.4717 79.4991 96.4717Z" fill="#691D1C"/>
</svg>
