<svg width="170" height="170" viewBox="0 0 170 170" fill="none" xmlns="http://www.w3.org/2000/svg">
<circle cx="85" cy="85" r="85" fill="#FDF8F1"/>
<rect x="33.3433" y="49.7997" width="88.1465" height="70.6835" rx="9.43816" fill="#FFDD9D"/>
<rect x="29.1858" y="45.642" width="88.1465" height="70.6835" rx="9.43816" stroke="#691D1C" stroke-width="3"/>
<rect x="46.3718" y="38.1578" width="5.56024" height="12.3512" rx="2.78012" fill="#FFDD9D" stroke="#691D1C" stroke-width="3"/>
<rect x="62.5466" y="38.1578" width="5.56024" height="12.3512" rx="2.78012" fill="#FFDD9D" stroke="#691D1C" stroke-width="3"/>
<rect x="78.7219" y="38.1578" width="5.56024" height="12.3512" rx="2.78012" fill="#FFDD9D" stroke="#691D1C" stroke-width="3"/>
<rect x="94.8972" y="38.1578" width="5.56024" height="12.3512" rx="2.78012" fill="#FFDD9D" stroke="#691D1C" stroke-width="3"/>
<rect x="58.2903" y="60.6102" width="11.642" height="10.1504" rx="2.35954" stroke="#691D1C" stroke-width="3" stroke-linejoin="round"/>
<rect x="77.4167" y="60.6102" width="11.642" height="10.1504" rx="2.35954" stroke="#691D1C" stroke-width="3" stroke-linejoin="round"/>
<rect x="96.5427" y="60.6102" width="10.8104" height="10.1504" rx="2.35954" stroke="#691D1C" stroke-width="3" stroke-linejoin="round"/>
<rect x="39.9958" y="78.2449" width="10.8104" height="10.1504" rx="2.35954" stroke="#691D1C" stroke-width="3" stroke-linejoin="round"/>
<rect x="58.2903" y="78.2449" width="11.642" height="10.1504" rx="2.35954" stroke="#691D1C" stroke-width="3" stroke-linejoin="round"/>
<rect x="77.4167" y="78.2449" width="11.642" height="10.1504" rx="2.35954" stroke="#691D1C" stroke-width="3" stroke-linejoin="round"/>
<rect x="96.5427" y="78.2449" width="10.8104" height="10.1504" rx="2.35954" stroke="#691D1C" stroke-width="3" stroke-linejoin="round"/>
<rect x="39.9958" y="95.8793" width="10.8104" height="10.1504" rx="2.35954" stroke="#691D1C" stroke-width="3" stroke-linejoin="round"/>
<rect x="58.2903" y="95.8793" width="11.642" height="10.1504" rx="2.35954" stroke="#691D1C" stroke-width="3" stroke-linejoin="round"/>
<rect x="77.4167" y="95.8793" width="11.642" height="10.1504" rx="2.35954" stroke="#691D1C" stroke-width="3" stroke-linejoin="round"/>
<path d="M134.912 105.398V115.003" stroke="#691D1C" stroke-width="3" stroke-linecap="round"/>
<path d="M135.135 113.308C137.25 115.423 137.25 118.853 135.135 120.968L134.787 121.316C132.671 119.201 132.671 115.772 134.787 113.657L135.135 113.308Z" fill="#FDF8F1" stroke="#691D1C" stroke-width="3" stroke-linejoin="round"/>
<path d="M103.27 105.398H130.392V119.536C121.854 123.798 111.809 123.798 103.27 119.536V105.398Z" fill="#FDF8F1" stroke="#691D1C" stroke-width="3"/>
<path d="M102.269 100.701C98.4957 102.18 98.2615 106.826 101.871 108.595L114.4 114.735C115.912 115.476 117.75 115.476 119.261 114.735L131.791 108.595C135.4 106.826 135.166 102.18 131.393 100.701L118.863 95.7886C117.569 95.2812 116.092 95.2812 114.798 95.7886L102.269 100.701Z" fill="#FDF8F1" stroke="#691D1C" stroke-width="3"/>
<path d="M123.788 34.0001V36.2559" stroke="#691D1C" stroke-width="3" stroke-linecap="round"/>
<path d="M123.788 41.3315V43.5873" stroke="#691D1C" stroke-width="3" stroke-linecap="round"/>
<path d="M118.995 38.7938H121.251" stroke="#691D1C" stroke-width="3" stroke-linecap="round"/>
<path d="M126.326 38.7938H128.582" stroke="#691D1C" stroke-width="3" stroke-linecap="round"/>
<path d="M33.7939 126.437V128.693" stroke="#691D1C" stroke-width="3" stroke-linecap="round"/>
<path d="M33.7939 133.769V136.025" stroke="#691D1C" stroke-width="3" stroke-linecap="round"/>
<path d="M29 131.231H31.2558" stroke="#691D1C" stroke-width="3" stroke-linecap="round"/>
<path d="M36.3315 131.231H38.5874" stroke="#691D1C" stroke-width="3" stroke-linecap="round"/>
</svg>
