<svg width="179" height="179" viewBox="0 0 179 179" fill="none" xmlns="http://www.w3.org/2000/svg">
<path d="M20.1296 137.32C-0.716243 112.764 6.58655 76.3738 18.9969 65.3462C31.4073 54.3187 51.0998 48.2594 61.6546 35.3699C72.2098 22.4801 84.3559 13.2594 106.571 19.9091C128.785 26.5591 128.452 43.8264 135.116 54.5134C141.779 65.2003 171.492 71.19 169.803 98.5956C168.115 126.001 149.249 125.973 140.619 132.727C131.989 139.481 118.453 171.389 91.2836 171.723C58.0692 172.133 37.7793 158.097 20.1296 137.32Z" fill="#E2E2D7"/>
<g opacity="0.7">
<path d="M95.5572 5.22662L94.3825 9.27765C93.3222 9.56274 92.3001 9.97597 91.3391 10.5075L87.5802 8.45763L84.2167 11.7515L86.3016 15.4341C85.7722 16.3774 85.3635 17.3838 85.0855 18.4291L80.951 19.5756V24.245L85.0855 25.3777C85.3773 26.4227 85.8001 27.4263 86.3433 28.3656L84.2587 32.0485L87.6216 35.3421L91.3811 33.2922C92.3418 33.824 93.3639 34.237 94.4245 34.5221L95.5986 38.5731H100.365L101.54 34.5221C102.6 34.237 103.623 33.824 104.583 33.2922L108.343 35.3421L111.706 32.0485L109.621 28.3656C110.164 27.4263 110.587 26.4227 110.879 25.3777L115.013 24.2312V19.5618L110.879 18.415C110.587 17.3703 110.164 16.3663 109.621 15.4274L111.706 11.7445L108.343 8.45089L104.542 10.5075C103.581 9.97597 102.559 9.56274 101.498 9.27765L100.324 5.22662H95.5572ZM97.6418 13.1757C99.3772 13.1963 101.068 13.73 102.501 14.7094C103.934 15.6885 105.045 17.0702 105.695 18.6795C106.344 20.2892 106.504 22.055 106.152 23.7545C105.8 25.4543 104.954 27.0119 103.719 28.2317C102.483 29.4511 100.915 30.2782 99.2113 30.6083C97.5075 30.9388 95.7436 30.7576 94.1425 30.0878C92.5411 29.418 91.1739 28.2893 90.2125 26.8442C89.2515 25.3988 88.7393 23.7015 88.7405 21.9658C88.7607 19.6203 89.7095 17.3785 91.379 15.7308C93.0487 14.0834 95.3031 13.1647 97.6485 13.1757H97.6418Z" fill="#F8AB74"/>
</g>
<g opacity="0.7">
<path d="M165.127 82.3564L164.335 85.0596C163.608 85.2426 162.907 85.5182 162.25 85.8793L159.721 84.4897L157.456 86.6855L158.845 89.1453C158.475 89.767 158.19 90.4353 157.998 91.1327L155.218 91.8969V95.0099L157.998 95.7741C158.19 96.4715 158.475 97.1398 158.845 97.7615L157.456 100.221L159.721 102.417L162.25 101.027C162.907 101.389 163.608 101.664 164.335 101.848L165.127 104.55H168.337L169.129 101.848C169.856 101.664 170.557 101.389 171.214 101.027L173.743 102.417L176.009 100.221L174.619 97.7615C174.989 97.1398 175.274 96.4715 175.467 95.7741L178.246 95.0099V91.8969L175.467 91.1327C175.274 90.4353 174.989 89.767 174.619 89.1453L176.009 86.6855L173.743 84.4897L171.214 85.8793C170.557 85.5182 169.856 85.2426 169.129 85.0596L168.337 82.3564H165.127ZM166.468 87.9154C167.622 87.9304 168.745 88.2863 169.697 88.9384C170.649 89.5904 171.388 90.5091 171.819 91.5796C172.25 92.6498 172.355 93.8239 172.12 94.9538C171.886 96.0835 171.323 97.119 170.502 97.9295C169.68 98.74 168.638 99.2897 167.505 99.5095C166.372 99.7289 165.2 99.6088 164.135 99.1637C163.071 98.7189 162.161 97.969 161.522 97.0086C160.882 96.0482 160.541 94.9201 160.541 93.7662C160.554 92.205 161.185 90.713 162.296 89.6162C163.407 88.5196 164.907 87.9081 166.468 87.9154Z" fill="#F8AB74"/>
</g>
<g opacity="0.7">
<path d="M22.9159 89.9999L21.2203 95.9062C19.6793 96.3234 18.195 96.9277 16.8011 97.706L11.3534 94.718L6.48905 99.5195L9.52574 104.891C8.73607 106.258 8.12205 107.72 7.6984 109.241L1.70166 110.915V117.725L7.69134 119.4C8.1153 120.921 8.72902 122.382 9.519 123.75L6.48231 129.121L11.3463 133.922L16.794 130.934C18.1882 131.713 19.6722 132.317 21.2136 132.734L22.9088 138.641H29.8157L31.5112 132.734C33.0522 132.317 34.5366 131.713 35.9307 130.934L41.3785 133.922L46.2425 129.121L43.2058 123.75C43.9958 122.382 44.6098 120.921 45.0334 119.4L51.0231 117.725V110.915L45.0334 109.241C44.6098 107.72 43.9958 106.258 43.2058 104.891L46.2425 99.5195L41.3785 94.718L35.9307 97.706C34.5366 96.9277 33.0522 96.3234 31.5112 95.9062L29.8157 89.9999H22.9159ZM26.0427 101.375C28.5509 101.406 30.9935 102.179 33.0633 103.595C35.1334 105.011 36.7382 107.008 37.6762 109.334C38.6143 111.66 38.8433 114.212 38.335 116.668C37.8265 119.124 36.6027 121.375 34.8183 123.137C33.0335 124.9 30.7678 126.095 28.3056 126.573C25.8434 127.051 23.2947 126.79 20.9806 125.823C18.6665 124.856 16.6895 123.226 15.2993 121.139C13.9091 119.051 13.1673 116.599 13.1669 114.091C13.1945 110.703 14.5621 107.463 16.9709 105.081C19.3798 102.698 22.6338 101.366 26.0218 101.375H26.0427Z" fill="#F8AB74"/>
</g>
<path d="M97.544 4.53174L96.3282 8.74941C95.2218 9.04891 94.1557 9.48053 93.1526 10.0351L89.2404 7.9018L85.7663 11.3275L87.948 15.1701C87.3824 16.1465 86.941 17.19 86.6348 18.2761L82.3057 19.4713V24.3353L86.6069 25.5306C86.9131 26.6167 87.3545 27.6602 87.9204 28.6365L85.7384 32.4791L89.2128 35.9048L93.1247 33.7716C94.1281 34.3261 95.1939 34.7577 96.3003 35.0572L97.5164 39.2751H102.478L103.694 35.0572C104.8 34.7577 105.866 34.3261 106.869 33.7716L110.781 35.9048L114.256 32.4791L112.074 28.6365C112.64 27.6602 113.081 26.6167 113.387 25.5306L117.688 24.3353V19.4713L113.387 18.2761C113.081 17.19 112.64 16.1465 112.074 15.1701L114.256 11.3275L110.781 7.9018L106.869 10.0351C105.866 9.48053 104.8 9.04891 103.694 8.74941L102.478 4.53174H97.544ZM99.8302 12.6408C101.635 12.6628 103.394 13.218 104.884 14.237C106.374 15.2556 107.53 16.6924 108.205 18.3665C108.881 20.0406 109.046 21.8768 108.681 23.6447C108.315 25.4126 107.435 27.0327 106.151 28.3015C104.867 29.5703 103.236 30.4308 101.464 30.775C99.692 31.119 97.8576 30.9317 96.1918 30.2358C94.5263 29.5399 93.1033 28.3671 92.1027 26.8647C91.1018 25.3623 90.5678 23.5975 90.5678 21.7922C90.5877 19.3521 91.5736 17.0192 93.3096 15.3041C95.0456 13.5892 97.3901 12.6316 99.8302 12.6408Z" stroke="#6A1B1B" stroke-width="0.25" stroke-miterlimit="10"/>
<path d="M165.127 80.9668L164.335 83.8364C163.607 84.0397 162.907 84.3312 162.25 84.7052L159.721 83.2598L157.456 85.5874L158.845 88.2002C158.476 88.8565 158.191 89.557 157.998 90.285L155.218 91.098V94.4054L157.998 95.2183C158.191 95.9464 158.476 96.6469 158.845 97.3029L157.456 99.9156L159.721 102.244L162.25 100.798C162.907 101.172 163.607 101.464 164.335 101.667L165.127 104.537H168.337L169.129 101.667C169.857 101.464 170.557 101.172 171.214 100.798L173.743 102.244L176.009 99.9156L174.619 97.3029C174.988 96.6469 175.273 95.9464 175.467 95.2183L178.246 94.4054V91.098L175.467 90.285C175.273 89.557 174.988 88.8565 174.619 88.2002L176.009 85.5874L173.743 83.2598L171.214 84.7052C170.557 84.3312 169.857 84.0397 169.129 83.8364L168.337 80.9668H165.127ZM166.517 87.019C167.723 87.008 168.905 87.3556 169.913 88.0178C170.922 88.6799 171.71 89.6266 172.18 90.7378C172.649 91.849 172.778 93.0746 172.549 94.2591C172.32 95.4436 171.745 96.5334 170.896 97.3902C170.047 98.247 168.963 98.8322 167.78 99.0717C166.598 99.3111 165.371 99.194 164.256 98.7348C163.141 98.2759 162.186 97.4957 161.515 96.4936C160.844 95.4915 160.485 94.3122 160.485 93.1059C160.482 92.3076 160.638 91.5167 160.941 90.7783C161.244 90.0398 161.691 89.3687 162.255 88.8032C162.818 88.2376 163.488 87.7888 164.225 87.4828C164.963 87.1766 165.753 87.019 166.551 87.019H166.517Z" stroke="#6A1B1B" stroke-width="0.25" stroke-miterlimit="10"/>
<path d="M23.1176 91.3896L21.3458 97.5531C19.7407 97.9829 18.1953 98.611 16.7457 99.4224L11.0687 96.3094L5.98913 101.312L9.15089 106.92C8.32965 108.346 7.69233 109.871 7.25365 111.457L1 113.202V120.303L7.25365 122.047C7.69233 123.633 8.32965 125.158 9.15089 126.585L5.98913 132.192L11.0687 137.195L16.7457 134.082C18.1953 134.894 19.7407 135.521 21.3458 135.951L23.1176 142.115H30.3163L32.0882 135.951C33.693 135.521 35.2383 134.894 36.6883 134.082L42.3653 137.195L47.4448 132.192L44.2831 126.585C45.1043 125.158 45.7416 123.633 46.18 122.047L52.4339 120.303V113.202L46.18 111.457C45.7416 109.871 45.1043 108.346 44.2831 106.92L47.4448 101.312L42.3653 96.3094L36.6883 99.4224C35.2383 98.611 33.693 97.9829 32.0882 97.5531L30.3163 91.3896H23.1176ZM27.0366 103.557C29.6392 103.595 32.1722 104.402 34.3177 105.876C36.463 107.35 38.1248 109.425 39.0944 111.84C40.0637 114.256 40.2976 116.904 39.7664 119.452C39.2354 122 37.9629 124.334 36.1089 126.161C34.2552 127.988 31.9024 129.226 29.347 129.72C26.7913 130.214 24.1467 129.942 21.7458 128.937C19.3446 127.932 17.2941 126.24 15.8518 124.073C14.4095 121.907 13.6397 119.362 13.6394 116.759C13.6762 113.235 15.1056 109.869 17.6157 107.395C20.1257 104.922 23.5125 103.542 27.0366 103.557Z" stroke="#6A1B1B" stroke-width="0.25" stroke-miterlimit="10"/>
<path d="M83.9322 165.629C84.8329 163.57 86.5002 161.942 88.5808 161.092H88.65L88.3653 160.967C86.4184 160.103 84.8556 158.555 83.9736 156.617L83.9322 156.526L83.7167 156.957C82.8627 158.621 81.4958 159.966 79.8183 160.793L79.2141 161.092H79.2558C81.2505 161.906 82.8722 163.431 83.8069 165.372L83.9322 165.629Z" fill="#6A1C1A"/>
<path d="M89.8662 168.422C90.3171 167.395 91.1491 166.583 92.187 166.157H92.2217L92.0828 166.095C91.108 165.665 90.326 164.891 89.887 163.92V163.878L89.776 164.087C89.3496 164.92 88.6679 165.594 87.8304 166.011L87.5244 166.157C88.5222 166.565 89.334 167.327 89.8036 168.297L89.8662 168.422Z" fill="#F8AB74"/>
<path d="M165.967 50.6499C165.295 49.1086 164.049 47.89 162.493 47.2518H162.445L162.653 47.1546C164.112 46.513 165.283 45.3548 165.94 43.9027V43.8331L166.106 44.1596C166.743 45.4048 167.764 46.4112 169.018 47.0295L169.469 47.2518C167.978 47.863 166.766 49.004 166.065 50.4552L165.967 50.6499Z" fill="#F2A286"/>
<path d="M161.52 52.7415C161.185 51.9711 160.562 51.3626 159.783 51.046L159.894 50.9975C160.624 50.6781 161.209 50.0984 161.534 49.3713L161.618 49.5313C161.934 50.1551 162.447 50.6582 163.077 50.9626L163.299 51.0739C162.555 51.3792 161.949 51.9482 161.597 52.6719L161.52 52.7415Z" fill="#6A1C1A"/>
<path d="M9.46355 84.9621C8.78699 83.4254 7.54209 82.2102 5.98911 81.5714H5.94067L6.15587 81.4809C7.61168 80.8369 8.77933 79.6793 9.43565 78.229L9.4706 78.1595L9.63031 78.4859C10.267 79.729 11.2884 80.7332 12.5419 81.3488L12.9935 81.5714C11.5009 82.1802 10.2876 83.3218 9.58862 84.7745L9.46355 84.9621Z" fill="#FE814B"/>
<path d="M5.02329 87.0604C4.68811 86.2885 4.06483 85.6775 3.28613 85.3581L3.3903 85.3094C4.12007 84.9902 4.70482 84.4106 5.03025 83.6834V83.6488L5.11357 83.8155C5.43431 84.4366 5.94594 84.9381 6.57284 85.2468L6.79509 85.3581C6.04925 85.6613 5.44228 86.2309 5.09269 86.9561L5.02329 87.0604Z" fill="#6A1C1A"/>
<path d="M128.647 36.3981C131.527 36.7927 134.316 37.6887 136.888 39.0455C144.412 42.9604 151.121 48.2736 156.656 54.7007C158.887 57.2858 160.986 60.2597 161.34 63.6299C161.736 67.5209 159.784 71.2176 157.866 74.6433C156.288 77.4924 154.391 80.5984 151.237 81.4251C148.659 82.1201 145.956 81.0223 143.593 79.7229C134.483 74.6504 127.611 65.9925 123.727 56.3266C121.862 51.8446 121.079 46.9861 121.441 42.1447C121.531 40.7548 117.842 40.6089 118.828 39.497C120.294 37.8852 124.693 35.8908 128.647 36.3981Z" fill="#6A1C1A"/>
<path d="M151.723 44.8337C151.419 45.239 151.085 45.62 150.722 45.9735C149.447 47.15 147.959 48.0721 146.338 48.6901C145.165 49.2165 143.898 49.5004 142.613 49.5243H142.182C142.237 49.7738 142.341 50.0101 142.488 50.2189C142.764 50.5071 143.098 50.7327 143.469 50.8801C143.839 51.0276 144.237 51.0935 144.635 51.0736C146.79 51.1977 148.944 50.8246 150.931 49.9829C151.154 49.9096 151.348 49.7686 151.486 49.5798C151.591 49.3639 151.627 49.1218 151.591 48.8848C151.528 47.5332 151.572 46.1786 151.723 44.8337Z" fill="#EDD0AE"/>
<path d="M146.338 48.7181C147.959 48.1001 149.447 47.1779 150.722 46.0014C151.085 45.648 151.419 45.2669 151.723 44.8617C151.938 42.6867 152.314 40.5467 152.418 38.337C150.187 37.8089 146.588 40.1227 145.038 41.5819C144.017 42.5067 143.219 43.6514 142.705 44.93C142.191 46.2083 141.974 47.5869 142.071 48.9615C142.093 49.1512 142.127 49.3394 142.175 49.5243H142.606C143.892 49.5102 145.161 49.2358 146.338 48.7181Z" fill="#DDB994"/>
<path d="M161.354 28.4698C162.791 26.6176 163.989 24.591 164.918 22.4384C165.851 20.2601 165.923 17.8095 165.12 15.58C164.224 13.4191 161.993 11.7306 159.658 11.9321C160.353 10.4312 159.499 8.76355 158.269 7.6238C156.97 6.55608 155.384 5.89823 153.71 5.73392C149.034 5.03903 144.267 5.99111 139.542 5.78266C137.79 5.78725 136.061 5.37773 134.497 4.58736C133.725 4.18335 133.07 3.58779 132.594 2.85774C132.119 2.12769 131.838 1.28765 131.78 0.418182C131.169 1.74536 130.488 3.35052 130.585 4.80973C130.616 5.53705 130.841 6.24279 131.237 6.85374C131.633 7.4647 132.185 7.95855 132.836 8.28411C131.447 8.66607 130.057 7.83225 129.181 6.72744C128.35 5.57635 127.888 4.20021 127.854 2.78073C126.383 3.77837 125.297 5.24957 124.776 6.95C124.225 8.46742 124.051 10.0961 124.269 11.6957C124.386 12.4921 124.665 13.2557 125.089 13.9393C125.514 14.6233 126.074 15.2124 126.735 15.6704C126.093 15.8311 125.418 15.8044 124.79 15.5941C124.796 16.0432 124.904 16.4849 125.106 16.8859C125.309 17.2869 125.6 17.6363 125.957 17.9079C126.677 18.4413 127.494 18.8285 128.362 19.0474C131.301 19.9299 134.393 20.1663 137.395 20.7567C144.503 22.1466 151.077 25.4331 157.838 28.0391C158.953 28.4839 160.164 28.6323 161.354 28.4698Z" fill="#6A1C1A"/>
<path d="M153.933 27.4067C152.918 23.7937 153.453 19.9023 154.579 16.3237C151.028 19.673 145.796 20.493 140.959 19.8398C142.577 19.0575 144.027 17.9671 145.226 16.6296C140.418 16.3169 135.456 17.4843 130.634 17.0394C130.106 18.6626 129.739 20.3336 129.536 22.0286C129.178 25.4889 129.318 28.9826 129.953 32.4028C130.578 36.1412 131.621 39.9351 133.983 42.8954C136.346 45.8555 140.307 47.8011 143.982 46.8631C145.343 46.4729 146.62 45.8343 147.748 44.98C151.994 41.9712 155.079 37.5657 157.15 32.7713C155.613 31.3066 154.501 29.4529 153.933 27.4067Z" fill="#EDD0AE"/>
<path d="M145.226 16.6293C144.026 17.9667 142.577 19.0571 140.96 19.8395C145.824 20.4995 151.028 19.6727 154.579 16.3233C153.454 19.902 152.918 23.7933 153.933 27.4066C154.509 29.4556 155.63 31.3096 157.178 32.771C157.449 32.1456 157.706 31.5202 157.935 30.8808C159.013 28.1718 159.612 25.2967 159.707 22.3826C159.796 19.4526 158.965 16.5683 157.331 14.1346C154.968 10.7855 150.952 8.93699 146.908 8.17951C144.944 7.75984 142.918 7.71754 140.939 8.05444C138.326 8.57557 134.762 10.0418 133.066 12.2238C131.996 13.675 131.176 15.2958 130.641 17.0183C135.457 17.4839 140.418 16.3442 145.226 16.6293Z" fill="#6A1C1A"/>
<path d="M155.177 27.4621C154.663 28.9841 154.569 30.6165 154.905 32.1873C155.121 33.4031 155.6 34.7166 156.733 35.2378C157.157 35.411 157.616 35.4815 158.072 35.4441C158.528 35.4067 158.969 35.2623 159.36 35.0223C160.133 34.5333 160.788 33.8782 161.277 33.1045C162.093 31.9908 162.627 30.6962 162.834 29.3315C162.931 28.6488 162.881 27.9529 162.687 27.2914C162.493 26.6295 162.159 26.0174 161.708 25.4956C160.791 24.5159 159.172 23.8001 157.9 24.3908C156.631 25.0257 155.655 26.1259 155.177 27.4621Z" fill="#EDD0AE"/>
<path d="M161.076 26.9272C160.861 26.7218 160.604 26.5661 160.322 26.4708C160.041 26.3754 159.742 26.3429 159.447 26.3754C159.152 26.4076 158.867 26.5045 158.613 26.6587C158.359 26.8126 158.142 27.0207 157.977 27.2675C157.205 28.2334 157.087 29.4912 156.927 30.7002L156.191 30.3875C156.4 30.1129 156.672 29.8922 156.984 29.7435C157.296 29.5948 157.638 29.5228 157.983 29.5329C159.498 29.6439 159.894 31.798 158.831 32.6667C158.398 33.0671 157.852 33.3243 157.268 33.4031C157.77 33.1906 158.209 32.8504 158.54 32.4166C159.13 31.7216 158.859 30.3321 157.928 30.3321C157.122 30.2763 156.427 31.527 155.961 32.069C156.023 30.9222 156.186 29.7827 156.448 28.6641C156.809 27.3579 157.879 25.9542 159.373 25.9751C159.719 25.9674 160.061 26.0548 160.361 26.2273C160.661 26.4002 160.909 26.6516 161.076 26.9548V26.9272Z" fill="#231D1D"/>
<path d="M140.758 23.3486C141.205 25.1493 141.277 27.0226 140.971 28.8524C140.666 30.6822 139.987 32.4299 138.979 33.9871L138.882 33.6674C139.403 34.0224 139.975 34.2965 140.578 34.4804C139.854 34.4822 139.141 34.3158 138.493 33.9939C139.947 30.6298 140.726 27.0131 140.786 23.3486H140.758Z" fill="#231D1D"/>
<path d="M139.535 39.4973C139.925 39.7625 140.373 39.9317 140.841 39.9906C142.071 40.1089 143.225 38.9832 144.038 37.906C143.219 37.8561 142.398 37.971 141.625 38.2445C140.851 38.5179 140.141 38.944 139.535 39.4973Z" fill="#917070"/>
<path d="M140.383 37.4542C138.819 37.2945 136.499 35.8908 136.499 35.8908C136.499 35.8908 137.826 38.3993 139.535 39.4973C140.142 38.9462 140.853 38.5228 141.626 38.2518C142.4 37.9808 143.22 37.868 144.038 37.9198C144.469 37.3481 144.853 36.7415 145.184 36.1063C145.184 36.1063 141.946 37.6209 140.383 37.4542Z" fill="#D8C3C3"/>
<path d="M136.228 26.9968C136.269 27.8306 135.866 28.5323 135.331 28.5532C134.796 28.574 134.331 27.9278 134.289 27.094C134.247 26.2602 134.65 25.5652 135.185 25.5377C135.721 25.5098 136.186 26.163 136.228 26.9968Z" fill="#231D1D"/>
<path d="M147.123 27.2053C147.165 28.0391 146.769 28.7341 146.234 28.762C145.699 28.7896 145.226 28.1366 145.185 27.3028C145.143 26.4687 145.546 25.767 146.081 25.7391C146.616 25.7115 147.088 26.3715 147.123 27.2053Z" fill="#231D1D"/>
<path d="M132.01 23.717C132.079 22.0981 133.184 20.7778 134.47 19.8606C134.763 19.6509 135.127 19.5636 135.484 19.6175C135.897 19.6804 136.281 19.8658 136.587 20.1494C136.893 20.4332 137.106 20.802 137.2 21.2085L137.11 21.5353C136.825 21.848 136.158 22.7097 135.88 22.9249C135.822 22.981 135.749 23.0187 135.67 23.0337C135.591 23.0484 135.51 23.0395 135.435 23.0083C134.835 22.8486 134.197 22.9077 133.636 23.175C133.149 23.3562 132.683 23.5892 132.246 23.87L131.954 23.6962L132.01 23.717Z" fill="#6A1C1A"/>
<path d="M148.867 23.8909C147.867 23.3556 146.782 22.7235 145.698 23.057C145.625 23.0883 145.543 23.0969 145.464 23.0822C145.385 23.0675 145.312 23.0294 145.254 22.9737C144.983 22.7303 144.309 21.8688 144.031 21.5838L143.941 21.2573C144.218 20.0274 145.636 19.1727 146.72 19.8677C148.006 20.7849 149.11 22.1049 149.18 23.7241L148.888 23.8976L148.867 23.8909Z" fill="#6A1C1A"/>
<g style="mix-blend-mode:multiply" opacity="0.4">
<path d="M135.686 34.0358C135.686 34.7307 134.782 35.2448 133.671 35.2448C132.559 35.2448 131.655 34.7029 131.655 34.0358C131.655 33.3687 132.552 32.8268 133.671 32.8268C134.789 32.8268 135.686 33.3687 135.686 34.0358Z" fill="#F8AB74"/>
</g>
<g style="mix-blend-mode:multiply" opacity="0.4">
<path d="M149.659 34.0358C149.659 34.7307 148.756 35.2448 147.644 35.2448C146.532 35.2448 145.629 34.7029 145.629 34.0358C145.629 33.3687 146.532 32.8268 147.644 32.8268C148.756 32.8268 149.659 33.3687 149.659 34.0358Z" fill="#F8AB74"/>
</g>
<path d="M131.857 0.459915C131.637 1.81122 131.84 3.19738 132.439 4.42876C133.037 5.66002 134.001 6.67654 135.199 7.33899C137.666 8.52044 140.584 8.10353 143.259 7.92971C147.86 7.62408 157.157 5.84517 157.65 12.627C156.524 6.28293 147.922 8.55508 143.329 8.77058C140.55 8.93029 137.485 9.34015 134.886 7.90887C133.639 7.16671 132.668 6.03738 132.121 4.69288C131.574 3.34838 131.482 1.86208 131.857 0.459915Z" fill="#893131"/>
<path d="M156.059 15.031C155.897 14.2578 155.541 13.5384 155.026 12.9394C154.511 12.3404 153.853 11.8815 153.113 11.6053C150.076 10.3754 146.901 11.6886 143.913 12.5645C142.356 13.0316 140.768 13.3869 139.16 13.6276C134.449 14.3989 128.16 13.1828 126.986 7.76971C126.635 6.15787 126.859 4.47411 127.618 3.00993C127.027 4.4933 126.946 6.1312 127.389 7.66548C129.529 14.4681 138.257 13.3842 143.698 11.7929C146.734 10.9453 150.201 9.77087 153.28 11.2233C154.033 11.563 154.685 12.0927 155.172 12.76C155.66 13.4277 155.965 14.21 156.059 15.031Z" fill="#893131"/>
<path d="M154.419 14.2599C152.473 11.7861 149.048 13.0647 147.06 14.8157C146.324 15.4273 145.587 16.0873 144.802 16.6918C145.332 15.8522 145.939 15.0634 146.616 14.3363C148.437 12.0712 153.141 10.8621 154.419 14.2599Z" fill="#893131"/>
<path d="M159.922 14.1903C160.516 13.9963 161.155 13.9938 161.75 14.1833C162.345 14.373 162.865 14.7449 163.237 15.2467C164.807 17.2408 164.627 20.1107 163.675 22.2787C163.193 23.3666 162.541 24.3706 161.743 25.2528C162.255 24.2133 162.695 23.141 163.063 22.0423C164.05 19.2628 163.841 14.1628 159.922 14.1903Z" fill="#893131"/>
<path d="M156.851 16.0524C160.395 15.4828 161.02 21.9936 159.422 24.1269C159.353 24.2033 159.214 24.2866 159.116 24.217C159.227 24.217 159.29 24.1337 159.318 24.0573C159.714 21.8131 159.7 16.5876 156.851 16.0524Z" fill="#893131"/>
<path d="M64.6662 28.0695L15.5293 34.4074L22.4187 87.817L71.5553 81.4788L64.6662 28.0695Z" fill="#F8AB74"/>
<path d="M63.1643 16.4362L14.0277 22.7741L15.5292 34.4141L64.6658 28.0759L63.1643 16.4362Z" fill="#6A1C1A"/>
<path d="M15.5293 34.4178L8.83765 35.281L15.7268 88.6907L22.4184 87.8274L15.5293 34.4178Z" fill="#893131"/>
<path d="M14.0278 22.7569L7.33582 23.6202L8.8373 35.2599L15.5293 34.3966L14.0278 22.7569Z" fill="#F8AB74"/>
<path d="M26.8404 36.7733L19.3284 37.7423L20.6432 47.9347L28.1549 46.9657L26.8404 36.7733Z" fill="#FEFFFD"/>
<path d="M35.75 35.6216L28.2383 36.5906L29.5531 46.7831L37.0648 45.8141L35.75 35.6216Z" fill="#FEFFFD"/>
<path d="M42.0919 31.0742L34.5934 32.0588L35.9296 42.2329L43.4279 41.2483L42.0919 31.0742Z" fill="#FEFFFD"/>
<path d="M53.577 33.3255L46.0653 34.2945L47.3801 44.487L54.8918 43.518L53.577 33.3255Z" fill="#FEFFFD"/>
<path d="M62.4875 32.1665L54.9758 33.1355L56.2906 43.328L63.8023 42.3593L62.4875 32.1665Z" fill="#FEFFFD"/>
<path d="M28.3238 48.3078L20.8118 49.2768L22.1266 59.4693L29.6386 58.5003L28.3238 48.3078Z" fill="#FEFFFD"/>
<path d="M37.2401 47.1353L29.7284 48.1043L31.0432 58.2968L38.5549 57.3278L37.2401 47.1353Z" fill="#FEFFFD"/>
<path d="M46.1509 46.005L38.6392 46.974L39.9536 57.1665L47.4657 56.1975L46.1509 46.005Z" fill="#FEFFFD"/>
<path d="M55.0607 44.846L47.5487 45.815L48.8635 56.0075L56.3755 55.0385L55.0607 44.846Z" fill="#FEFFFD"/>
<path d="M63.9783 43.7081L56.4663 44.6771L57.7811 54.8696L65.2928 53.9006L63.9783 43.7081Z" fill="#FEFFFD"/>
<path d="M29.8136 59.8286L22.3019 60.7976L23.6167 70.9901L31.1284 70.0211L29.8136 59.8286Z" fill="#FEFFFD"/>
<path d="M36.2153 55.236L28.717 56.2206L30.0533 66.395L37.5515 65.4104L36.2153 55.236Z" fill="#FEFFFD"/>
<path d="M47.6343 57.5188L40.1226 58.4878L41.437 68.6806L48.9491 67.7116L47.6343 57.5188Z" fill="#FEFFFD"/>
<path d="M56.5505 56.3808L49.0388 57.3498L50.3536 67.5423L57.8653 66.5733L56.5505 56.3808Z" fill="#FEFFFD"/>
<path d="M65.4614 55.236L57.9497 56.2047L59.2645 66.3975L66.7762 65.4284L65.4614 55.236Z" fill="#FEFFFD"/>
<path d="M31.2973 71.3564L23.7853 72.3254L25.1001 82.5179L32.6118 81.5489L31.2973 71.3564Z" fill="#FEFFFD"/>
<path d="M40.214 70.1977L32.7023 71.1667L34.0171 81.3592L41.5288 80.3905L40.214 70.1977Z" fill="#FEFFFD"/>
<path d="M49.1247 69.0598L41.613 70.0288L42.9278 80.2213L50.4395 79.2523L49.1247 69.0598Z" fill="#FEFFFD"/>
<path d="M58.0342 67.8878L50.5222 68.8568L51.837 79.0493L59.349 78.0803L58.0342 67.8878Z" fill="#FEFFFD"/>
<path d="M66.9515 66.7638L59.4398 67.7328L60.7546 77.9253L68.2663 76.9563L66.9515 66.7638Z" fill="#FEFFFD"/>
<path d="M18.1285 29.9569C17.7435 29.9542 17.3741 29.8058 17.0942 29.5415C16.8143 29.2773 16.6451 28.9168 16.6203 28.5327C16.5958 28.1486 16.7175 27.7694 16.9612 27.4714C17.2049 27.1734 17.5525 26.9791 17.9342 26.9273C18.5276 26.847 19.0662 26.538 19.4347 26.0656C19.6177 25.8304 19.752 25.5613 19.8296 25.2737C19.9071 24.9862 19.9264 24.6861 19.8866 24.3909L19.157 18.693C19.0791 18.098 18.7683 17.5582 18.2925 17.1922C17.8171 16.8261 17.2159 16.6637 16.6206 16.7406L14.3205 17.0325C13.7255 17.1103 13.1857 17.4212 12.8197 17.8966C12.4537 18.3721 12.2912 18.9735 12.3681 19.5685L12.7918 22.8762C12.8181 23.0742 12.8053 23.2757 12.7532 23.4688C12.7013 23.6616 12.6118 23.8425 12.4898 24.0006C12.3678 24.1591 12.2155 24.2916 12.042 24.3906C11.8685 24.4899 11.6772 24.5537 11.4788 24.5785C11.0782 24.63 10.6735 24.5205 10.3532 24.2744C10.0328 24.0285 9.82315 23.6656 9.7695 23.2652L9.34554 19.9579C9.16621 18.5609 9.54848 17.1502 10.4084 16.0352C11.2682 14.92 12.5352 14.1917 13.9315 14.0096L16.2316 13.7177C16.9228 13.6282 17.6252 13.6757 18.298 13.8578C18.9709 14.0399 19.6012 14.3529 20.1533 14.7787C20.7051 15.2048 21.1677 15.7354 21.5141 16.3403C21.8605 16.9451 22.0842 17.6124 22.1725 18.304L22.9092 24.0019C23.0885 25.3979 22.7059 26.8077 21.846 27.9217C20.9862 29.0357 19.7189 29.7629 18.3229 29.9428C18.2588 29.9545 18.1935 29.9591 18.1285 29.9569Z" fill="#DEE29F"/>
<path d="M24.6811 29.116C24.285 29.1295 23.8991 28.9878 23.6057 28.7214C23.3126 28.455 23.1348 28.0844 23.1103 27.689C23.0858 27.2932 23.2167 26.9039 23.4748 26.6032C23.7332 26.3028 24.0986 26.1148 24.4935 26.0793C25.0885 26.0014 25.6283 25.6906 25.9943 25.2151C26.3604 24.7397 26.5228 24.1382 26.4459 23.5432L25.7095 17.8453C25.6718 17.5507 25.5762 17.2669 25.4287 17.0094C25.281 16.7519 25.0842 16.526 24.8494 16.3448C24.6146 16.1633 24.3463 16.0303 24.0597 15.9527C23.7734 15.8751 23.4745 15.8546 23.1799 15.8926L20.8802 16.1915C20.5853 16.2283 20.3005 16.323 20.042 16.4705C19.7839 16.6176 19.5571 16.8141 19.375 17.0492C19.1929 17.2844 19.0593 17.5529 18.9811 17.8398C18.9032 18.1265 18.8827 18.426 18.9207 18.7209L19.3514 22.0282C19.3768 22.2269 19.363 22.4283 19.3109 22.6214C19.2585 22.8145 19.1687 22.9957 19.0464 23.1539C18.9241 23.3124 18.7717 23.4451 18.5982 23.5447C18.4244 23.6444 18.2331 23.7087 18.0345 23.7342C17.8361 23.7596 17.6347 23.7458 17.4416 23.6937C17.2485 23.6413 17.0673 23.5515 16.9091 23.4292C16.7506 23.3068 16.6179 23.1545 16.5183 22.981C16.4186 22.8075 16.3542 22.6159 16.3288 22.4175L15.9048 19.1099C15.7255 17.7138 16.1081 16.304 16.968 15.19C17.8278 14.076 19.0951 13.3489 20.4911 13.1689L22.7841 12.87C23.4757 12.7802 24.1783 12.8277 24.8518 13.0098C25.525 13.1916 26.1562 13.5046 26.7086 13.9304C27.261 14.3565 27.7239 14.8871 28.0709 15.492C28.4182 16.0968 28.6429 16.7645 28.7321 17.456L29.4685 23.1539C29.6478 24.5508 29.2658 25.9616 28.406 27.0765C27.5461 28.1917 26.2788 28.9201 24.8825 29.1022L24.6811 29.116Z" fill="#A3E59E"/>
<path d="M31.2406 28.268C30.843 28.2849 30.4546 28.1454 30.1588 27.8793C29.863 27.6133 29.6831 27.242 29.6576 26.845C29.6322 26.4481 29.7634 26.0569 30.0227 25.7553C30.2824 25.4536 30.6496 25.2657 31.046 25.2317C31.3403 25.194 31.6244 25.0986 31.8816 24.9509C32.1391 24.8034 32.3651 24.6066 32.5465 24.3715C32.7277 24.1367 32.8611 23.8684 32.9386 23.5818C33.0162 23.2955 33.0364 22.9966 32.9984 22.7023L32.2688 16.9974C32.1888 16.4039 31.8795 15.865 31.4074 15.4965C31.1717 15.3148 30.9025 15.1811 30.615 15.1036C30.3277 15.026 30.0279 15.0061 29.7327 15.045L27.4327 15.3436C27.1384 15.3813 26.8542 15.4769 26.5967 15.6244C26.3392 15.7718 26.1136 15.9686 25.9321 16.2038C25.7509 16.4386 25.6176 16.7068 25.54 16.9934C25.4625 17.2798 25.4419 17.5786 25.4799 17.8729L25.9039 21.1806C25.9557 21.5813 25.8457 21.9862 25.5989 22.3063C25.3518 22.626 24.9879 22.8347 24.5873 22.8866C24.3886 22.912 24.1872 22.8982 23.9941 22.8458C23.801 22.7934 23.6198 22.7035 23.4613 22.5812C23.1416 22.3345 22.9328 21.9706 22.8813 21.5696L22.4574 18.2622C22.2783 16.8662 22.6606 15.4564 23.5208 14.3421C24.3806 13.2281 25.6476 12.5012 27.0433 12.321L29.3434 12.0221C30.7394 11.8431 32.1496 12.2254 33.2636 13.0855C34.3776 13.9454 35.1044 15.2127 35.2846 16.6084L36.021 22.3063C36.1108 22.9978 36.0633 23.7004 35.8815 24.3739C35.6994 25.0474 35.3864 25.6783 34.9606 26.2307C34.5348 26.7831 34.0042 27.246 33.3994 27.5933C32.7942 27.9407 32.1269 28.165 31.435 28.2542L31.2406 28.268Z" fill="#DEE29F"/>
<path d="M37.7928 27.4205C37.3967 27.434 37.0111 27.2927 36.7177 27.026C36.4243 26.7596 36.2465 26.389 36.222 25.9935C36.1978 25.5981 36.3287 25.2084 36.5868 24.908C36.8452 24.6073 37.2106 24.4194 37.6052 24.3841C37.8995 24.3464 38.1836 24.2508 38.4411 24.1033C38.6986 23.9559 38.9246 23.7591 39.1057 23.5239C39.2872 23.2891 39.4206 23.0209 39.4981 22.7343C39.5757 22.4479 39.5959 22.1491 39.5579 21.8548L38.8213 16.1569C38.7449 15.5619 38.4359 15.0215 37.962 14.6542C37.4878 14.2867 36.8872 14.1227 36.2919 14.1971L33.9919 14.496C33.697 14.5322 33.4122 14.6269 33.1544 14.775C32.8966 14.9228 32.6709 15.1211 32.4913 15.3578C32.3061 15.5916 32.1706 15.8605 32.0931 16.1487C32.0152 16.4365 31.9971 16.7372 32.0394 17.0324L32.4634 20.3331C32.5158 20.7337 32.407 21.139 32.1608 21.4596C31.9144 21.7803 31.5508 21.9897 31.1498 22.0424C30.7492 22.0948 30.3439 21.986 30.0233 21.7398C29.7029 21.4934 29.4932 21.1298 29.4405 20.7291L29.0169 17.4214C28.9252 16.7296 28.9715 16.026 29.1527 15.3519C29.3338 14.6778 29.6465 14.0463 30.0726 13.4936C30.499 12.9406 31.0303 12.4777 31.636 12.131C32.2421 11.7843 32.9104 11.5608 33.6029 11.4735L35.8958 11.1746C37.2922 10.9974 38.702 11.3803 39.8166 12.2395C40.9315 13.0991 41.6605 14.3651 41.8441 15.7609L42.5805 21.4655C42.7598 22.8615 42.3775 24.2713 41.5174 25.3856C40.6575 26.4996 39.3902 27.2264 37.9945 27.4067L37.7928 27.4205Z" fill="#A3E59E"/>
<path d="M44.3524 26.5728C43.9677 26.5701 43.598 26.4217 43.3181 26.1575C43.0382 25.8932 42.869 25.5327 42.8442 25.1486C42.8196 24.7645 42.9413 24.3853 43.185 24.0873C43.4288 23.7894 43.7767 23.595 44.158 23.5432C44.7527 23.4635 45.292 23.1523 45.6589 22.6775C46.0258 22.2026 46.1905 21.6024 46.1175 21.0068L45.3809 15.3089C45.303 14.7139 44.9922 14.1741 44.5167 13.8081C44.0412 13.4421 43.4398 13.2796 42.8448 13.3565L40.5447 13.6484C39.9497 13.7262 39.4099 14.0371 39.0439 14.5125C38.6775 14.988 38.5154 15.5894 38.592 16.1845L39.016 19.4921C39.0509 19.6945 39.0445 19.9017 38.9973 20.1016C38.9501 20.3014 38.8627 20.4896 38.741 20.6546C38.619 20.8198 38.4651 20.9587 38.2879 21.0629C38.111 21.1671 37.9148 21.2343 37.7113 21.2606C37.5074 21.2867 37.3005 21.2717 37.1031 21.2159C36.9054 21.1601 36.7211 21.0647 36.5614 20.936C36.4014 20.8072 36.2696 20.6472 36.173 20.466C36.0765 20.2846 36.0179 20.0856 36.0004 19.8811L35.5694 16.5735C35.3901 15.1768 35.7724 13.7661 36.6322 12.6509C37.4921 11.5359 38.7594 10.8073 40.1557 10.6255L42.4555 10.3336C43.8521 10.1543 45.2632 10.5366 46.3781 11.3965C47.4933 12.2563 48.2217 13.5236 48.4034 14.9199L49.133 20.6178C49.3124 22.0135 48.9301 23.4236 48.0699 24.5376C47.21 25.6516 45.9428 26.3788 44.5471 26.5587C44.483 26.5704 44.4177 26.575 44.3524 26.5728Z" fill="#DEE29F"/>
<path d="M50.9122 25.732C50.5149 25.7488 50.1265 25.609 49.8307 25.3433C49.5349 25.0772 49.3549 24.7059 49.3295 24.309C49.304 23.912 49.4352 23.5205 49.6946 23.2192C49.9542 22.9175 50.3215 22.7296 50.7178 22.6953C51.0127 22.6576 51.2972 22.5622 51.5553 22.4142C51.8131 22.2661 52.0397 22.0687 52.2208 21.833C52.4023 21.5972 52.5354 21.3281 52.6126 21.0408C52.6896 20.7536 52.7095 20.4541 52.6702 20.1592L51.9339 14.4613C51.8959 14.1671 51.8006 13.8829 51.6531 13.6254C51.5054 13.3679 51.3089 13.1423 51.0737 12.9608C50.8389 12.7793 50.5707 12.6463 50.2841 12.5687C49.9977 12.4912 49.6986 12.4706 49.4043 12.5086L47.1045 12.8075C46.8096 12.8443 46.5251 12.9393 46.2673 13.0874C46.0095 13.2351 45.7839 13.4332 45.6033 13.6692C45.42 13.9025 45.2855 14.1704 45.2079 14.4571C45.1303 14.7434 45.1113 15.0429 45.1518 15.3369L45.5758 18.6442C45.6273 19.0452 45.5175 19.4501 45.2707 19.7699C45.0237 20.0899 44.6598 20.2987 44.2591 20.3502C43.8582 20.402 43.4532 20.2922 43.1332 20.0452C42.8134 19.7981 42.6047 19.4342 42.5532 19.0335L42.1292 15.7259C41.9499 14.3301 42.3325 12.92 43.1923 11.806C44.0522 10.692 45.3195 9.96487 46.7152 9.78493L49.0152 9.48604C50.4113 9.30671 51.8211 9.68928 52.9351 10.5492C54.0491 11.4093 54.7762 12.6763 54.9562 14.072L55.6928 19.7699C55.7827 20.4618 55.7351 21.1644 55.5534 21.8379C55.3713 22.511 55.0583 23.1419 54.6325 23.6943C54.2067 24.2467 53.676 24.7099 53.0709 25.0569C52.4661 25.4043 51.7987 25.629 51.1068 25.7182L50.9122 25.732Z" fill="#A3E59E"/>
<path d="M57.4647 24.8844C57.0671 24.9009 56.6787 24.7614 56.3829 24.4954C56.0871 24.2296 55.9071 23.8583 55.8817 23.4611C55.8563 23.0641 55.9874 22.6729 56.2468 22.3713C56.5064 22.0696 56.8737 21.8817 57.2701 21.8477C57.8642 21.7698 58.4037 21.4602 58.7706 20.9866C59.1376 20.5127 59.3025 19.9134 59.2295 19.3183L58.4929 13.6134C58.4561 13.3188 58.3611 13.0341 58.2133 12.7766C58.0652 12.5187 57.8675 12.2931 57.6315 12.1126C57.3954 11.9311 57.1263 11.7977 56.839 11.7202C56.5515 11.6426 56.252 11.6227 55.9568 11.661L53.6567 11.9599C53.3625 11.9976 53.0783 12.093 52.8208 12.2404C52.5636 12.3882 52.3377 12.585 52.1562 12.8198C51.975 13.0546 51.8417 13.3231 51.7641 13.6095C51.6866 13.8958 51.666 14.1947 51.704 14.4893L52.135 17.7966C52.1865 18.1976 52.0768 18.6025 51.8297 18.9223C51.5829 19.2423 51.2191 19.4511 50.8184 19.5026C50.6198 19.528 50.418 19.5142 50.2249 19.4621C50.0318 19.4097 49.8509 19.3199 49.6924 19.1976C49.3727 18.9505 49.1639 18.5866 49.1124 18.1856L48.6817 14.8853C48.5024 13.4884 48.8844 12.0776 49.7442 10.9627C50.6041 9.84747 51.8711 9.11911 53.2677 8.93702L55.5678 8.63844C56.2594 8.54862 56.962 8.59613 57.6352 8.77823C58.3087 8.96001 58.9395 9.273 59.4919 9.6988C60.0443 10.1246 60.5075 10.6552 60.8545 11.2604C61.2019 11.8652 61.4266 12.5325 61.5158 13.2244L62.2451 18.9223C62.3367 19.6145 62.2907 20.3177 62.1096 20.9918C61.9284 21.6659 61.6154 22.2974 61.1893 22.8501C60.7632 23.4031 60.2319 23.866 59.6259 24.2127C59.0202 24.5594 58.3519 24.7829 57.6591 24.8703L57.4647 24.8844Z" fill="#DEE29F"/>
<path d="M85.4328 151.148C118.628 151.148 145.538 124.238 145.538 91.0422C145.538 57.8468 118.628 30.9366 85.4328 30.9366C52.2374 30.9366 25.3269 57.8468 25.3269 91.0422C25.3269 124.238 52.2374 151.148 85.4328 151.148Z" fill="#6A1C1A"/>
<path d="M88.2123 151.148C121.408 151.148 148.318 124.238 148.318 91.0422C148.318 57.8468 121.408 30.9366 88.2123 30.9366C55.0166 30.9366 28.1064 57.8468 28.1064 91.0422C28.1064 124.238 55.0166 151.148 88.2123 151.148Z" fill="#F8AB74"/>
<path d="M97.9125 120.991C108.745 116.613 118.585 109.345 124.963 99.5542C132.378 88.1793 134.615 74.3864 133.997 60.6419C126.038 48.8774 113.822 40.6625 99.9237 37.7291C86.0257 34.7954 71.532 37.3726 59.4971 44.9168C47.462 52.461 38.8265 64.3831 35.41 78.1701C31.9938 91.9572 34.0639 106.532 41.1838 118.823C58.7363 127.168 79.8183 128.287 97.9125 120.991Z" fill="white"/>
<path d="M133.962 60.6698C134.615 74.3864 132.378 88.1793 124.929 99.582C118.55 109.373 108.711 116.641 97.8779 121.019C79.8114 128.315 58.7017 127.196 41.1146 118.878C44.8027 125.245 49.7354 130.804 55.6181 135.223C61.5005 139.643 68.213 142.833 75.3547 144.602C82.4964 146.372 89.9217 146.685 97.1872 145.524C104.453 144.362 111.41 141.75 117.644 137.842C123.879 133.934 129.262 128.811 133.474 122.777C137.685 116.744 140.639 109.925 142.158 102.725C143.678 95.5264 143.732 88.095 142.318 80.8742C140.904 73.6537 138.051 66.7916 133.928 60.6977L133.962 60.6698Z" fill="#EFEECE"/>
<path d="M87.9482 92.0431L62.1688 69.0638L89.1434 90.6256L87.9482 92.0431Z" fill="#541111"/>
<path d="M89.574 90.6881L101.47 134.36L87.5173 91.9873L89.574 90.6881Z" fill="#541111"/>
<path d="M88.5597 95.5589C90.8622 95.5589 92.7288 93.6923 92.7288 91.3898C92.7288 89.087 90.8622 87.2204 88.5597 87.2204C86.2572 87.2204 84.3906 89.087 84.3906 91.3898C84.3906 93.6923 86.2572 95.5589 88.5597 95.5589Z" fill="#D3A86F"/>
<path d="M88.5597 94.5166C90.2865 94.5166 91.6865 93.1166 91.6865 91.3895C91.6865 89.6627 90.2865 88.2627 88.5597 88.2627C86.8326 88.2627 85.4329 89.6627 85.4329 91.3895C85.4329 93.1166 86.8326 94.5166 88.5597 94.5166Z" stroke="#6A1B1B" stroke-width="0.5" stroke-miterlimit="10"/>
<path d="M87.1704 47.7659V36.9609C87.1603 36.6124 87.2743 36.2718 87.4919 35.9996C87.7093 35.7274 88.0165 35.541 88.3586 35.4738C88.5572 35.4447 88.7598 35.4591 88.9523 35.5155C89.1449 35.5722 89.323 35.67 89.4741 35.8022C89.6255 35.9343 89.7463 36.0974 89.8285 36.2807C89.9106 36.464 89.9517 36.6629 89.9496 36.8637V47.891C89.9517 48.0917 89.9106 48.2907 89.8285 48.474C89.7463 48.657 89.6255 48.8204 89.4741 48.9525C89.323 49.0847 89.1449 49.1825 88.9523 49.2389C88.7598 49.2956 88.5572 49.31 88.3586 49.2809C88.0116 49.2128 87.7007 49.0224 87.4828 48.7444C87.2645 48.4664 87.1535 48.119 87.1704 47.7659Z" fill="#541111"/>
<path d="M87.17 145.714V134.902C87.1605 134.555 87.2749 134.215 87.4925 133.944C87.7102 133.673 88.017 133.488 88.3582 133.422C88.5568 133.393 88.7598 133.407 88.9523 133.464C89.1448 133.52 89.3229 133.618 89.4741 133.75C89.6252 133.882 89.7463 134.046 89.8284 134.229C89.9103 134.412 89.9517 134.611 89.9495 134.812V145.832C89.9517 146.033 89.9103 146.232 89.8284 146.415C89.7463 146.598 89.6252 146.761 89.4741 146.894C89.3229 147.026 89.1448 147.123 88.9523 147.18C88.7598 147.237 88.5568 147.251 88.3582 147.222C88.0121 147.155 87.7013 146.966 87.483 146.69C87.265 146.413 87.1538 146.066 87.17 145.714Z" fill="#541111"/>
<path d="M143.03 92.7791H132.114C131.765 92.7892 131.425 92.6752 131.153 92.4575C130.88 92.2399 130.694 91.933 130.627 91.5909C130.598 91.3923 130.612 91.1896 130.669 90.9971C130.725 90.8046 130.823 90.6265 130.955 90.4754C131.087 90.3239 131.25 90.2032 131.434 90.121C131.617 90.0392 131.816 89.9978 132.017 89.9999H142.933C143.281 89.9898 143.622 90.1038 143.894 90.3215C144.166 90.5391 144.353 90.846 144.42 91.1881C144.449 91.3868 144.435 91.5894 144.378 91.7819C144.321 91.9744 144.224 92.1525 144.092 92.3036C143.959 92.4551 143.796 92.5759 143.613 92.658C143.43 92.7399 143.231 92.7812 143.03 92.7791Z" fill="#541111"/>
<path d="M45.0822 92.7797H34.1659C33.8186 92.7892 33.479 92.6749 33.208 92.4572C32.9367 92.2396 32.7518 91.9327 32.6859 91.5915C32.6568 91.3929 32.6712 91.1903 32.7279 90.9974C32.7843 90.8049 32.8821 90.6268 33.0142 90.4757C33.1464 90.3246 33.3097 90.2038 33.4928 90.1216C33.6761 90.0395 33.875 89.9981 34.0758 90.0002H44.9921C45.3397 89.9907 45.679 90.1048 45.9503 90.3224C46.2213 90.5401 46.4062 90.8469 46.4721 91.1884C46.5012 91.3871 46.4871 91.5897 46.4304 91.7822C46.3737 91.975 46.2759 92.1528 46.1438 92.3043C46.0117 92.4554 45.8486 92.5762 45.6653 92.6583C45.4819 92.7405 45.283 92.7819 45.0822 92.7797Z" fill="#541111"/>
<path d="M52.1209 69.6683C51.8432 69.6667 51.5709 69.5873 51.3358 69.439L41.5035 63.185C41.3263 63.0885 41.1712 62.9563 41.0471 62.7972C40.9232 62.6381 40.8331 62.4554 40.7828 62.2599C40.7326 62.0646 40.7228 61.861 40.7543 61.6618C40.7859 61.4625 40.8579 61.2718 40.9662 61.1017C41.0744 60.9316 41.2166 60.7854 41.3837 60.6722C41.5507 60.5591 41.739 60.4816 41.9373 60.4445C42.1356 60.4071 42.3395 60.4111 42.536 60.4558C42.7328 60.5006 42.9183 60.5852 43.0807 60.7044L52.913 66.9584C53.1794 67.1306 53.383 67.3842 53.4936 67.6815C53.6043 67.9789 53.6159 68.3038 53.527 68.6085C53.4381 68.9129 53.253 69.1805 52.9998 69.3715C52.7466 69.5625 52.4382 69.6664 52.1209 69.6683Z" fill="#541111"/>
<path d="M134.796 122.186C134.518 122.185 134.245 122.106 134.011 121.957L124.178 115.703C123.849 115.494 123.617 115.164 123.531 114.784C123.446 114.404 123.515 114.006 123.723 113.677C123.931 113.348 124.262 113.116 124.642 113.03C125.021 112.945 125.42 113.014 125.749 113.222L135.581 119.476C135.852 119.645 136.06 119.898 136.174 120.196C136.288 120.494 136.302 120.821 136.213 121.128C136.124 121.434 135.938 121.704 135.682 121.895C135.426 122.086 135.115 122.188 134.796 122.186Z" fill="#541111"/>
<path d="M111.678 56.3827C111.399 56.3843 111.126 56.3046 110.892 56.1534C110.565 55.945 110.333 55.6148 110.248 55.2356C110.164 54.8567 110.233 54.4594 110.441 54.1311L116.695 44.2988C116.903 43.9699 117.233 43.7372 117.613 43.652C117.993 43.5665 118.391 43.6355 118.72 43.8439C119.049 44.0521 119.282 44.3825 119.367 44.7623C119.453 45.1422 119.384 45.5404 119.175 45.8693L112.922 55.7016C112.789 55.9116 112.606 56.0842 112.388 56.2034C112.17 56.3226 111.926 56.3843 111.678 56.3827Z" fill="#541111"/>
<path d="M59.1603 139.058C58.897 139.058 58.6379 138.988 58.4111 138.854C58.1842 138.72 57.9979 138.527 57.8713 138.296C57.7447 138.065 57.6827 137.804 57.6919 137.54C57.7011 137.277 57.7811 137.021 57.9234 136.799L64.1773 126.967C64.3983 126.666 64.7257 126.46 65.093 126.391C65.4602 126.322 65.84 126.395 66.1555 126.595C66.4709 126.796 66.6981 127.109 66.7916 127.471C66.8848 127.833 66.8369 128.216 66.6579 128.544L60.4043 138.377C60.27 138.585 60.0858 138.756 59.8687 138.875C59.6514 138.994 59.408 139.057 59.1603 139.058Z" fill="#541111"/>
<path d="M124.964 69.6682C124.647 69.6652 124.34 69.56 124.088 69.3684C123.836 69.1771 123.652 68.9095 123.564 68.6051C123.475 68.301 123.488 67.9767 123.599 67.6799C123.709 67.3835 123.913 67.1303 124.179 66.9583L134.011 60.7047C134.174 60.6014 134.355 60.5315 134.545 60.4984C134.735 60.4656 134.93 60.4705 135.118 60.5125C135.306 60.5548 135.484 60.6339 135.641 60.7449C135.799 60.8558 135.933 60.9968 136.036 61.1596C136.14 61.3227 136.209 61.5042 136.243 61.6942C136.275 61.884 136.27 62.0787 136.228 62.2669C136.186 62.4548 136.107 62.6326 135.996 62.7905C135.885 62.948 135.744 63.082 135.581 63.1853L125.749 69.4389C125.514 69.5879 125.242 69.6676 124.964 69.6682Z" fill="#541111"/>
<path d="M42.2957 122.186C41.9785 122.184 41.6701 122.08 41.4169 121.889C41.1637 121.698 40.9788 121.431 40.8899 121.126C40.8007 120.822 40.8123 120.497 40.923 120.199C41.0337 119.902 41.2372 119.648 41.5036 119.476L51.3359 113.222C51.6639 113.043 52.0477 112.995 52.4094 113.089C52.7715 113.182 53.0845 113.409 53.285 113.725C53.4854 114.04 53.5584 114.42 53.4894 114.787C53.4204 115.155 53.2144 115.482 52.9131 115.703L43.0808 121.957C42.8457 122.105 42.5738 122.184 42.2957 122.186Z" fill="#541111"/>
<path d="M65.4068 56.3828C65.1585 56.3828 64.9142 56.319 64.6975 56.1973C64.4807 56.0756 64.299 55.9002 64.1702 55.6878L57.9163 45.8555C57.8133 45.6924 57.7434 45.511 57.7103 45.3209C57.6775 45.1311 57.6821 44.9365 57.7244 44.7483C57.7667 44.5603 57.8458 44.3825 57.9567 44.2247C58.0677 44.0671 58.2084 43.9331 58.3715 43.8298C58.5343 43.7268 58.7161 43.6566 58.9061 43.6238C59.0959 43.591 59.2905 43.5956 59.4785 43.6379C59.6667 43.6802 59.8445 43.759 60.002 43.8703C60.1596 43.9813 60.2939 44.1223 60.3969 44.2851L66.6508 54.1173C66.858 54.4463 66.9264 54.8442 66.8403 55.2234C66.7541 55.6026 66.5211 55.9321 66.1922 56.1394C65.9611 56.2978 65.6873 56.3824 65.4068 56.3828Z" fill="#541111"/>
<path d="M117.932 139.057C117.683 139.057 117.438 138.992 117.22 138.87C117.003 138.749 116.819 138.574 116.688 138.363L110.434 128.531C110.255 128.203 110.207 127.819 110.301 127.457C110.394 127.095 110.621 126.782 110.937 126.582C111.252 126.381 111.632 126.308 111.999 126.377C112.366 126.446 112.694 126.652 112.915 126.953L119.168 136.785C119.311 137.007 119.391 137.263 119.4 137.527C119.409 137.79 119.347 138.051 119.221 138.282C119.094 138.513 118.908 138.706 118.681 138.84C118.454 138.974 118.195 139.044 117.932 139.044V139.057Z" fill="#541111"/>
<path d="M58.2872 121.69L5.40063 141.727L16.4124 170.792L69.2991 150.755L58.2872 121.69Z" fill="#F8AB74"/>
<path d="M37.3274 146.124L5.37744 141.608L38.6266 149.557L58.2636 121.568L37.3274 146.124Z" fill="#EFEECE"/>
<path d="M165.319 115.051L116.018 103.415L101.007 167.013L150.308 178.649L165.319 115.051Z" fill="#6A1C1A"/>
<path d="M166.232 115.268L116.931 103.632L101.92 167.23L151.221 178.866L166.232 115.268Z" fill="#F8AB74"/>
<path d="M160.745 120.461L119.519 110.731L106.836 164.468L148.062 174.198L160.745 120.461Z" fill="white"/>
<path d="M136.123 101.028L150.176 104.345C151.408 104.636 152.474 105.404 153.14 106.481C153.806 107.558 154.016 108.855 153.725 110.087L153.229 112.19L129.884 106.681L130.38 104.577C130.671 103.345 131.44 102.279 132.516 101.613C133.593 100.947 134.891 100.737 136.123 101.028Z" fill="#F8AB74"/>
<path d="M126.175 124.399C128.375 123.934 129.782 121.774 129.316 119.573C128.851 117.373 126.691 115.967 124.49 116.432C122.29 116.897 120.884 119.058 121.349 121.258C121.814 123.458 123.975 124.865 126.175 124.399Z" fill="#EFEECE"/>
<path d="M125.137 122.749C125.044 122.748 124.951 122.736 124.86 122.714C124.548 122.639 124.279 122.444 124.109 122.172L122.407 119.393C122.238 119.116 122.186 118.784 122.262 118.47C122.339 118.155 122.537 117.883 122.813 117.714C123.09 117.546 123.422 117.494 123.736 117.57C124.051 117.646 124.322 117.845 124.491 118.121L125.561 119.844L129.425 117.454C129.562 117.371 129.713 117.315 129.872 117.29C130.03 117.265 130.192 117.272 130.348 117.31C130.504 117.348 130.651 117.416 130.78 117.51C130.91 117.604 131.019 117.724 131.103 117.86C131.186 117.997 131.242 118.149 131.267 118.308C131.292 118.466 131.285 118.628 131.247 118.784C131.209 118.939 131.141 119.086 131.047 119.216C130.952 119.345 130.833 119.455 130.696 119.539L125.832 122.568C125.625 122.698 125.382 122.761 125.137 122.749Z" fill="#893131"/>
<path d="M155.711 126.272C155.618 126.27 155.525 126.259 155.434 126.237L133.031 120.942C132.876 120.906 132.73 120.839 132.602 120.746C132.473 120.653 132.363 120.536 132.28 120.401C132.111 120.128 132.058 119.799 132.131 119.487C132.205 119.174 132.4 118.904 132.673 118.735C132.946 118.566 133.275 118.513 133.587 118.587L156.024 123.882C156.318 123.945 156.576 124.116 156.751 124.36C156.926 124.604 157.003 124.905 156.968 125.203C156.934 125.501 156.789 125.776 156.564 125.973C156.338 126.171 156.046 126.277 155.746 126.272H155.711Z" fill="#F8AB74"/>
<path d="M155.128 128.752C155.035 128.763 154.942 128.763 154.85 128.752L132.413 123.457C132.258 123.421 132.112 123.354 131.983 123.262C131.854 123.169 131.745 123.051 131.661 122.916C131.578 122.781 131.522 122.631 131.496 122.474C131.471 122.317 131.476 122.156 131.513 122.002C131.549 121.847 131.616 121.701 131.709 121.572C131.802 121.443 131.919 121.334 132.054 121.25C132.189 121.167 132.34 121.111 132.497 121.085C132.654 121.06 132.814 121.065 132.969 121.102L155.406 126.397C155.699 126.461 155.958 126.631 156.132 126.875C156.307 127.119 156.384 127.42 156.35 127.718C156.315 128.016 156.171 128.291 155.945 128.488C155.719 128.686 155.428 128.792 155.128 128.787V128.752Z" fill="#F2A286"/>
<path d="M154.572 131.226C154.48 131.237 154.386 131.237 154.294 131.226L131.85 125.925C131.537 125.851 131.267 125.656 131.098 125.383C130.929 125.11 130.876 124.781 130.95 124.469C131.024 124.156 131.218 123.886 131.491 123.717C131.764 123.549 132.093 123.496 132.406 123.569L154.85 128.871C155.136 128.941 155.387 129.113 155.555 129.355C155.723 129.597 155.797 129.893 155.763 130.185C155.729 130.478 155.589 130.748 155.37 130.945C155.15 131.142 154.867 131.252 154.572 131.254V131.226Z" fill="#F2A286"/>
<path d="M126.319 134.061C126.133 134.845 125.72 135.556 125.13 136.105C124.541 136.654 123.801 137.015 123.006 137.144C122.211 137.273 121.396 137.163 120.663 136.828C119.93 136.493 119.314 135.948 118.891 135.263C118.468 134.577 118.258 133.781 118.287 132.976C118.316 132.172 118.583 131.393 119.055 130.74C119.527 130.087 120.181 129.589 120.936 129.308C121.691 129.027 122.513 128.976 123.296 129.162C124.346 129.411 125.255 130.067 125.821 130.986C126.388 131.905 126.567 133.011 126.319 134.061Z" fill="#EFEECE"/>
<path d="M122.157 135.368C122.063 135.367 121.97 135.355 121.879 135.333C121.567 135.258 121.298 135.063 121.128 134.791L119.426 132.012C119.342 131.875 119.286 131.723 119.262 131.564C119.237 131.406 119.244 131.244 119.281 131.088C119.319 130.933 119.387 130.785 119.482 130.656C119.576 130.526 119.695 130.417 119.832 130.333C119.969 130.25 120.121 130.194 120.279 130.17C120.438 130.145 120.6 130.152 120.755 130.189C120.911 130.227 121.058 130.295 121.188 130.389C121.317 130.484 121.427 130.603 121.51 130.74L122.58 132.463L126.444 130.073C126.72 129.904 127.052 129.852 127.367 129.929C127.523 129.966 127.67 130.034 127.799 130.129C127.929 130.223 128.038 130.343 128.122 130.479C128.205 130.616 128.261 130.768 128.286 130.926C128.311 131.085 128.304 131.247 128.266 131.403C128.228 131.558 128.16 131.705 128.066 131.835C127.972 131.964 127.852 132.074 127.716 132.158L122.851 135.187C122.643 135.315 122.401 135.378 122.157 135.368Z" fill="#893131"/>
<path d="M152.737 138.891C152.641 138.893 152.545 138.881 152.452 138.856L130.015 133.561C129.703 133.487 129.433 133.292 129.264 133.019C129.095 132.747 129.042 132.418 129.115 132.105C129.189 131.793 129.384 131.522 129.657 131.354C129.93 131.185 130.259 131.132 130.571 131.205L153.008 136.507C153.294 136.577 153.545 136.749 153.713 136.99C153.881 137.232 153.956 137.526 153.922 137.818C153.889 138.111 153.751 138.381 153.532 138.578C153.314 138.775 153.031 138.887 152.737 138.891Z" fill="#F8AB74"/>
<path d="M152.147 141.371C152.053 141.37 151.96 141.358 151.869 141.337L129.432 136.042C129.277 136.005 129.131 135.939 129.002 135.846C128.873 135.753 128.764 135.635 128.68 135.5C128.597 135.365 128.541 135.215 128.515 135.058C128.49 134.901 128.495 134.741 128.532 134.586C128.568 134.431 128.635 134.285 128.728 134.157C128.821 134.028 128.938 133.918 129.073 133.835C129.208 133.751 129.359 133.695 129.516 133.669C129.673 133.644 129.833 133.65 129.988 133.686L152.425 138.981C152.718 139.045 152.977 139.215 153.152 139.46C153.326 139.704 153.403 140.004 153.369 140.302C153.334 140.6 153.19 140.875 152.964 141.072C152.738 141.27 152.447 141.376 152.147 141.371Z" fill="#F2A286"/>
<path d="M151.563 143.845C151.47 143.855 151.377 143.855 151.285 143.845L128.862 138.515C128.699 138.487 128.544 138.426 128.406 138.336C128.268 138.246 128.149 138.128 128.058 137.99C127.967 137.853 127.906 137.698 127.877 137.535C127.848 137.373 127.853 137.206 127.891 137.045C127.929 136.885 127.999 136.733 128.098 136.601C128.197 136.469 128.321 136.358 128.464 136.276C128.607 136.194 128.765 136.142 128.929 136.123C129.093 136.104 129.26 136.119 129.418 136.167L151.855 141.461C152.141 141.532 152.392 141.704 152.56 141.946C152.728 142.188 152.802 142.483 152.768 142.776C152.734 143.069 152.594 143.339 152.375 143.536C152.155 143.733 151.871 143.843 151.577 143.845H151.563Z" fill="#F8AB74"/>
<path d="M119.377 149.821C121.626 149.821 123.449 147.998 123.449 145.749C123.449 143.5 121.626 141.677 119.377 141.677C117.128 141.677 115.305 143.5 115.305 145.749C115.305 147.998 117.128 149.821 119.377 149.821Z" fill="#EFEECE"/>
<path d="M119.183 147.987C118.976 147.987 118.773 147.934 118.593 147.833C118.413 147.732 118.262 147.586 118.154 147.41L116.452 144.631C116.283 144.354 116.231 144.022 116.308 143.707C116.384 143.392 116.582 143.121 116.858 142.952C117.135 142.784 117.467 142.732 117.781 142.808C118.096 142.884 118.368 143.082 118.536 143.359L119.599 145.082L123.47 142.692C123.746 142.523 124.078 142.471 124.393 142.547C124.708 142.624 124.979 142.822 125.148 143.098C125.316 143.375 125.368 143.707 125.292 144.021C125.216 144.336 125.018 144.608 124.741 144.776L119.843 147.806C119.644 147.927 119.415 147.99 119.183 147.987Z" fill="#893131"/>
<path d="M149.756 151.51C149.664 151.52 149.57 151.52 149.478 151.51L127.034 146.208C126.722 146.134 126.451 145.939 126.283 145.666C126.114 145.393 126.061 145.064 126.134 144.752C126.208 144.44 126.403 144.169 126.676 144.001C126.949 143.832 127.278 143.778 127.59 143.852L150.034 149.154C150.321 149.224 150.571 149.396 150.74 149.638C150.908 149.881 150.982 150.175 150.947 150.468C150.913 150.761 150.773 151.031 150.554 151.228C150.335 151.425 150.051 151.535 149.756 151.537V151.51Z" fill="#F2A286"/>
<path d="M149.173 153.99C149.08 154.001 148.987 154.001 148.895 153.99L126.451 148.695C126.138 148.621 125.868 148.427 125.699 148.154C125.53 147.881 125.477 147.552 125.551 147.24C125.625 146.927 125.819 146.657 126.092 146.488C126.365 146.319 126.694 146.266 127.007 146.34L149.444 151.635C149.736 151.698 149.995 151.868 150.169 152.112C150.344 152.355 150.421 152.654 150.388 152.952C150.354 153.249 150.211 153.524 149.986 153.722C149.762 153.92 149.472 154.028 149.173 154.025V153.99Z" fill="#F2A286"/>
<path d="M148.582 156.464C148.49 156.473 148.397 156.473 148.304 156.464L125.867 151.148C125.712 151.111 125.566 151.045 125.438 150.952C125.309 150.859 125.199 150.742 125.116 150.606C125.032 150.471 124.976 150.321 124.951 150.164C124.925 150.007 124.931 149.847 124.967 149.692C125.004 149.537 125.07 149.392 125.163 149.263C125.256 149.134 125.374 149.024 125.509 148.941C125.644 148.857 125.794 148.801 125.951 148.776C126.108 148.75 126.268 148.756 126.423 148.792L148.86 154.087C149.147 154.157 149.397 154.329 149.565 154.572C149.734 154.814 149.808 155.109 149.773 155.401C149.739 155.695 149.599 155.965 149.38 156.161C149.161 156.358 148.877 156.468 148.582 156.471V156.464Z" fill="#F8AB74"/>
<path d="M124.642 105.463L158.517 113.459L158.244 114.615C158.084 115.291 157.662 115.876 157.071 116.242C156.48 116.607 155.768 116.722 155.092 116.563L126.323 109.773C125.647 109.613 125.062 109.191 124.697 108.6C124.331 108.009 124.216 107.298 124.375 106.621L124.649 105.465L124.642 105.463Z" fill="#893131"/>
<path d="M116.493 162.46C118.742 162.46 120.565 160.637 120.565 158.388C120.565 156.14 118.742 154.317 116.493 154.317C114.245 154.317 112.422 156.14 112.422 158.388C112.422 160.637 114.245 162.46 116.493 162.46Z" fill="#EFEECE"/>
<path d="M116.292 160.626C116.198 160.625 116.105 160.613 116.014 160.591C115.859 160.557 115.712 160.491 115.583 160.398C115.454 160.305 115.345 160.186 115.263 160.049L113.561 157.27C113.392 156.993 113.341 156.661 113.417 156.347C113.493 156.032 113.691 155.76 113.967 155.592C114.244 155.423 114.576 155.371 114.891 155.447C115.205 155.524 115.477 155.722 115.645 155.998L116.716 157.721L120.579 155.331C120.856 155.163 121.188 155.111 121.502 155.187C121.658 155.225 121.805 155.293 121.935 155.387C122.064 155.482 122.174 155.601 122.257 155.738C122.341 155.874 122.396 156.027 122.421 156.185C122.446 156.343 122.439 156.505 122.402 156.661C122.364 156.817 122.296 156.964 122.201 157.093C122.107 157.223 121.988 157.332 121.851 157.416L116.987 160.438C116.779 160.569 116.537 160.634 116.292 160.626Z" fill="#893131"/>
<path d="M146.866 164.149C146.774 164.159 146.681 164.159 146.588 164.149L124.151 158.854C123.839 158.78 123.568 158.585 123.4 158.312C123.231 158.039 123.177 157.71 123.251 157.398C123.325 157.086 123.52 156.816 123.793 156.647C124.066 156.478 124.394 156.425 124.707 156.498L147.144 161.793C147.43 161.863 147.681 162.035 147.849 162.278C148.018 162.52 148.091 162.815 148.057 163.107C148.023 163.4 147.883 163.671 147.664 163.867C147.445 164.064 147.161 164.174 146.866 164.176V164.149Z" fill="#F8AB74"/>
<path d="M146.282 166.63C146.19 166.643 146.097 166.643 146.004 166.63L123.567 161.335C123.413 161.298 123.267 161.232 123.138 161.139C123.009 161.046 122.899 160.928 122.816 160.793C122.732 160.658 122.676 160.508 122.651 160.351C122.625 160.194 122.631 160.034 122.667 159.879C122.704 159.724 122.771 159.578 122.864 159.45C122.956 159.32 123.074 159.211 123.209 159.128C123.344 159.044 123.494 158.988 123.651 158.962C123.808 158.937 123.969 158.943 124.123 158.979L146.561 164.274C146.854 164.338 147.113 164.509 147.287 164.753C147.462 164.997 147.539 165.297 147.504 165.595C147.47 165.893 147.326 166.168 147.1 166.365C146.874 166.563 146.583 166.67 146.282 166.664V166.63Z" fill="#F2A286"/>
<path d="M145.698 169.11C145.605 169.109 145.512 169.097 145.421 169.075L122.983 163.781C122.829 163.744 122.683 163.678 122.554 163.585C122.425 163.492 122.315 163.374 122.232 163.239C122.148 163.104 122.092 162.954 122.067 162.797C122.041 162.64 122.047 162.48 122.084 162.325C122.12 162.17 122.187 162.024 122.28 161.895C122.372 161.766 122.49 161.657 122.625 161.574C122.76 161.49 122.91 161.434 123.067 161.408C123.224 161.383 123.385 161.389 123.54 161.425L145.977 166.72C146.27 166.784 146.529 166.954 146.703 167.198C146.878 167.443 146.955 167.743 146.92 168.041C146.886 168.339 146.742 168.614 146.516 168.811C146.29 169.009 145.999 169.116 145.698 169.11Z" fill="#F8AB74"/>
<path d="M151.723 57.3904L147.596 64.6446" stroke="#5B1010" stroke-miterlimit="10" stroke-linecap="round"/>
<path d="M157.498 75.3523C155.078 79.1078 152.45 82.7245 149.624 86.1851C145.713 90.8061 140.188 95.9898 140.188 95.9898L110.664 83.6211L115 73.5108L136.617 80.1887L149.069 62.5599L157.498 75.3523Z" fill="#6A1C1A"/>
<path d="M110.344 71.5511L114.999 73.5108L111.949 80.6332L108.919 79.5769L102.242 79.8549L100.275 78.8752C100.102 78.7918 99.9485 78.6738 99.8238 78.5281C99.6987 78.3828 99.6052 78.213 99.5491 78.0297C99.4927 77.8461 99.4752 77.6532 99.4973 77.4626C99.5197 77.2719 99.581 77.0883 99.6775 76.9224L100.212 75.9635L99.7401 75.5954C99.5782 75.4731 99.4449 75.317 99.3495 75.1377C99.2542 74.9587 99.1993 74.7606 99.1889 74.558C99.1782 74.3554 99.2119 74.1528 99.2879 73.9648C99.3643 73.7766 99.4804 73.6074 99.6288 73.4692L100.157 72.9548L99.4621 71.9821C99.3382 71.8196 99.2515 71.632 99.2082 71.4324C99.1653 71.2329 99.1665 71.0262 99.2125 70.827C99.2582 70.628 99.3474 70.4417 99.4734 70.281C99.5994 70.1201 99.7591 69.9892 99.9415 69.8975L100.671 69.5153L100.435 68.2158C100.365 67.8605 100.435 67.492 100.633 67.1882C100.83 66.8845 101.138 66.6699 101.491 66.5899C101.956 66.4774 102.441 66.466 102.911 66.5574C103.381 66.6484 103.825 66.8397 104.215 67.118L110.344 71.5511Z" fill="#EDD0AE"/>
<g style="mix-blend-mode:multiply" opacity="0.4">
<path d="M110.427 72.0309C109.037 68.9942 107.571 65.8812 107.314 62.5459C107.32 62.464 107.308 62.3822 107.279 62.3053C107.25 62.2286 107.205 62.159 107.147 62.1011C107.064 62.0505 106.967 62.0263 106.869 62.0318C106.477 62.0502 106.099 62.1839 105.782 62.4162C105.466 62.6489 105.225 62.9692 105.09 63.338C104.84 64.0891 104.898 64.9085 105.25 65.6172C105.34 65.7668 105.393 65.936 105.403 66.1105C105.387 66.2576 105.334 66.3986 105.25 66.5206L104.514 67.8268C106.067 69.7388 108.111 71.1921 110.427 72.0309Z" fill="#F8AB74"/>
</g>
<path d="M106.23 30.172L113.38 32.9515C113.829 33.1303 114.207 33.4497 114.458 33.8623C114.708 34.2746 114.818 34.7574 114.77 35.2375L114.409 38.8716L111.935 42.9227C111.797 42.8807 111.669 42.8102 111.559 42.7152C111.45 42.6204 111.363 42.5036 111.302 42.3724C111.241 42.2412 111.208 42.0987 111.206 41.954C111.204 41.8093 111.232 41.6661 111.289 41.5331C111.65 40.4004 112.866 37.364 112.866 37.364V35.2166C112.866 35.2166 111.692 40.1711 110.573 41.0953C109.454 42.0196 105.41 40.2198 104.319 39.3235C103.784 38.8925 104.729 37.4891 104.861 35.3975C105.014 33.1391 104.382 30.2416 106.23 30.172Z" fill="#EDD0AE"/>
<g style="mix-blend-mode:multiply" opacity="0.4">
<path d="M110.796 31.84C111.087 35.1747 110.178 38.5041 108.232 41.2275L110.796 31.84Z" fill="#F8AB74"/>
</g>
<g style="mix-blend-mode:multiply" opacity="0.4">
<path d="M108.016 30.8946C108.131 33.8908 107.478 36.8662 106.119 39.539C106.025 39.7843 105.845 39.9869 105.612 40.1086" fill="#F8AB74"/>
</g>
</svg>
